<svg width="543" height="434" viewBox="0 0 543 434" fill="none" xmlns="http://www.w3.org/2000/svg">
<path d="M213.72 277.618H343.463C342.595 265.085 355.204 257.088 366.68 251.966C381.114 245.523 395.835 239.069 407.892 228.848C419.949 218.621 429.167 203.847 428.838 188.04C428.475 170.643 417.01 155.516 412.991 138.589C408.232 118.54 414.194 97.7454 417.35 77.3794C420.507 57.0135 419.891 33.6786 405.322 19.1038C393.329 7.09899 374.83 4.28848 357.903 5.49717C340.976 6.70587 324.342 11.259 307.374 11.3529C287.677 11.4644 268.509 5.58519 249.1 2.21727C229.691 -1.15065 208.598 -1.72567 191.501 8.06125C172.491 18.9454 161.777 42.6441 166.16 64.1072C169.211 79.0516 178.716 92.4647 179.484 107.702C180.124 120.388 174.574 132.557 168.026 143.441C157.318 161.249 143.483 177.502 136.63 197.122C129.777 216.743 132.13 241.821 149.086 253.837C167.175 266.646 200.014 260.204 213.72 277.618Z" fill="#ECF0F7"/>
<path d="M365.783 77.3498L389.432 34.5147L392.81 37.4455L368.26 82.5351L365.783 77.3498Z" fill="white"/>
<path d="M242.428 257.219C242.481 257.207 242.534 257.189 242.581 257.166C242.987 256.984 243.175 256.507 242.987 256.095C195.299 149.419 154.826 74.9812 129.028 46.4945C128.457 45.8592 128.039 45.4063 127.875 45.171C127.616 44.8063 127.11 44.7181 126.745 44.971C126.38 45.2298 126.292 45.7298 126.545 46.1004C126.768 46.418 127.169 46.8592 127.822 47.5827C153.513 75.9459 193.887 150.236 241.51 256.766C241.674 257.119 242.063 257.301 242.428 257.219Z" fill="#7BE1C9"/>
<path d="M113.111 42.7358C116.141 45.918 129.952 50.6884 130.858 49.8237C131.764 48.959 127.663 34.9421 124.632 31.7599C121.602 28.5777 116.565 28.4601 113.387 31.4894C110.204 34.5245 110.08 39.5595 113.111 42.7358Z" fill="#7BE1C9"/>
<path d="M139.544 50.1884C138.814 54.6235 143.41 68.8404 144.681 69.0463C145.946 69.258 154.873 57.2704 155.608 52.8353C156.338 48.4003 153.337 44.2123 148.906 43.4829C144.469 42.7535 140.279 45.7533 139.544 50.1884Z" fill="#7BE1C9"/>
<path d="M127.357 77.6575C131.841 77.3752 144.663 69.6874 144.581 68.411C144.498 67.1287 130.811 61.1349 126.321 61.4172C121.837 61.6996 118.43 65.5699 118.712 70.052C119.001 74.54 122.873 77.9399 127.357 77.6575Z" fill="#7BE1C9"/>
<path d="M187.155 118.832C185.131 126.096 190.238 150.654 192.31 151.23C194.387 151.807 211.452 133.425 213.476 126.161C215.5 118.897 211.246 111.368 203.978 109.344C196.711 107.321 189.179 111.568 187.155 118.832Z" fill="#7BE1C9"/>
<path d="M161.845 162.471C169.383 162.806 192.167 152.307 192.262 150.154C192.356 148.001 170.595 135.519 163.057 135.184C155.519 134.849 149.134 140.684 148.799 148.219C148.463 155.754 154.307 162.136 161.845 162.471Z" fill="#7BE1C9"/>
<path d="M210.185 144.084C205.813 152.213 205.289 182.899 207.608 184.146C209.926 185.393 235.259 168.047 239.631 159.918C244.003 151.789 240.961 141.654 232.828 137.284C224.696 132.908 214.557 135.955 210.185 144.084Z" fill="#7BE1C9"/>
<path d="M173.373 201.663C182.588 201.122 209.003 185.47 208.85 182.84C208.697 180.211 180.634 167.753 171.419 168.294C162.204 168.835 155.166 176.741 155.707 185.958C156.243 195.175 164.152 202.204 173.373 201.663Z" fill="#7BE1C9"/>
<path d="M226.891 178.717C222.519 186.846 221.995 217.533 224.314 218.78C226.632 220.027 251.965 202.681 256.337 194.552C260.709 186.423 257.667 176.288 249.534 171.917C241.402 167.547 231.263 170.594 226.891 178.717Z" fill="#7BE1C9"/>
<path d="M190.079 236.302C199.294 235.761 225.709 220.109 225.556 217.48C225.403 214.85 197.34 202.392 188.125 202.933C178.91 203.475 171.872 211.38 172.414 220.597C172.949 229.814 180.858 236.843 190.079 236.302Z" fill="#7BE1C9"/>
<path d="M259.156 220.797C252.012 226.65 239.837 254.819 241.508 256.86C243.18 258.895 273.208 252.501 280.352 246.649C287.496 240.796 288.537 230.267 282.688 223.132C276.827 215.992 266.294 214.945 259.156 220.797Z" fill="#7BE1C9"/>
<path d="M205.344 270.73C214.559 271.348 242.716 259.119 242.893 256.489C243.069 253.86 216.783 237.996 207.574 237.379C198.359 236.761 190.391 243.731 189.779 252.937C189.161 262.148 196.129 270.112 205.344 270.73Z" fill="#7BE1C9"/>
<path d="M154.255 71.5755C153.513 76.0812 158.186 90.5216 159.474 90.7333C160.763 90.9451 169.831 78.7693 170.578 74.2636C171.32 69.758 168.272 65.5052 163.764 64.7641C159.257 64.0229 155.002 67.0699 154.255 71.5755Z" fill="#7BE1C9"/>
<path d="M142.497 99.6858C147.058 99.3976 160.08 91.5921 159.998 90.2922C159.915 88.9923 146.004 82.8985 141.444 83.1867C136.883 83.4749 133.423 87.4041 133.718 91.9627C134.006 96.5154 137.937 99.974 142.497 99.6858Z" fill="#7BE1C9"/>
<path d="M170.419 91.1157C168.842 97.4095 173.773 118.403 175.574 118.855C177.369 119.308 191.633 103.121 193.21 96.833C194.787 90.5392 190.968 84.1631 184.671 82.5867C178.381 81.0044 171.996 84.8278 170.419 91.1157Z" fill="#7BE1C9"/>
<path d="M150.8 131.455C157.273 131.043 175.78 119.955 175.662 118.108C175.545 116.261 155.785 107.603 149.306 108.015C142.833 108.427 137.913 114.009 138.325 120.479C138.743 126.949 144.328 131.867 150.8 131.455Z" fill="#7BE1C9"/>
<path d="M362.793 236.985C362.769 236.973 362.746 236.955 362.722 236.938C362.545 236.796 362.516 236.538 362.657 236.355C399.8 189.84 429.269 158.3 445.628 147.548C445.993 147.307 446.252 147.136 446.364 147.042C446.54 146.895 446.799 146.913 446.946 147.089C447.093 147.266 447.076 147.525 446.899 147.672C446.746 147.801 446.499 147.966 446.081 148.242C429.793 158.947 400.388 190.422 363.299 236.873C363.181 237.026 362.963 237.073 362.793 236.985Z" fill="#7BE1C9"/>
<path d="M453.961 147.736C452.06 148.919 444.64 149.507 444.304 148.966C443.969 148.424 447.782 142.037 449.683 140.854C451.584 139.672 454.084 140.254 455.261 142.154C456.444 144.054 455.862 146.554 453.961 147.736Z" fill="#7BE1C9"/>
<path d="M439.974 148.03C439.768 150.313 435.684 156.73 435.031 156.671C434.377 156.612 431.506 149.566 431.712 147.283C431.918 145.001 433.93 143.325 436.213 143.531C438.497 143.736 440.179 145.754 439.974 148.03Z" fill="#7BE1C9"/>
<path d="M442.475 163.13C440.298 162.418 434.961 156.989 435.161 156.371C435.367 155.748 442.881 154.542 445.059 155.254C447.236 155.965 448.419 158.306 447.707 160.483C446.995 162.659 444.653 163.847 442.475 163.13Z" fill="#7BE1C9"/>
<path d="M407.727 175.805C407.797 179.646 402.142 191.105 401.048 191.122C399.953 191.14 393.887 179.899 393.816 176.058C393.745 172.217 396.805 169.047 400.648 168.976C404.49 168.906 407.662 171.964 407.727 175.805Z" fill="#7BE1C9"/>
<path d="M414.635 200.551C410.875 199.757 400.983 191.669 401.212 190.593C401.442 189.522 413.764 186.146 417.524 186.94C421.284 187.734 423.685 191.428 422.885 195.187C422.09 198.945 418.395 201.345 414.635 200.551Z" fill="#7BE1C9"/>
<path d="M393.145 185.311C394.263 189.875 390.603 205.074 389.296 205.392C387.99 205.71 377.721 193.922 376.603 189.358C375.485 184.793 378.28 180.182 382.847 179.064C387.419 177.952 392.027 180.746 393.145 185.311Z" fill="#7BE1C9"/>
<path d="M403.942 218.403C399.464 216.962 388.442 205.874 388.854 204.592C389.266 203.316 404.695 200.757 409.167 202.198C413.645 203.639 416.099 208.439 414.657 212.909C413.216 217.391 408.42 219.85 403.942 218.403Z" fill="#7BE1C9"/>
<path d="M380.482 200.257C381.6 204.822 377.94 220.021 376.633 220.338C375.327 220.656 365.059 208.868 363.941 204.304C362.823 199.739 365.618 195.128 370.184 194.01C374.75 192.893 379.364 195.693 380.482 200.257Z" fill="#7BE1C9"/>
<path d="M391.279 233.349C386.801 231.908 375.779 220.821 376.191 219.538C376.603 218.262 392.032 215.703 396.504 217.144C400.982 218.586 403.436 223.385 401.995 227.856C400.553 232.338 395.757 234.796 391.279 233.349Z" fill="#7BE1C9"/>
<path d="M359.203 216.886C361.975 220.68 364.382 236.126 363.299 236.92C362.216 237.714 348.223 230.726 345.451 226.926C342.68 223.132 343.51 217.803 347.305 215.033C351.101 212.262 356.426 213.092 359.203 216.886Z" fill="#7BE1C9"/>
<path d="M379.353 248.378C374.734 247.508 362.406 237.885 362.659 236.561C362.906 235.243 377.894 230.773 382.513 231.65C387.132 232.52 390.175 236.973 389.298 241.596C388.433 246.214 383.978 249.249 379.353 248.378Z" fill="#7BE1C9"/>
<path d="M429.988 156.7C429.783 159.018 425.628 165.541 424.969 165.482C424.31 165.424 421.391 158.259 421.597 155.948C421.803 153.63 423.851 151.924 426.169 152.13C428.488 152.336 430.2 154.383 429.988 156.7Z" fill="#7BE1C9"/>
<path d="M432.195 172.064C429.983 171.341 424.557 165.829 424.763 165.2C424.969 164.571 432.607 163.341 434.82 164.065C437.032 164.788 438.233 167.171 437.509 169.376C436.785 171.582 434.408 172.788 432.195 172.064Z" fill="#7BE1C9"/>
<path d="M419.519 164.271C419.495 167.576 414.376 177.299 413.434 177.288C412.493 177.282 407.526 167.482 407.55 164.177C407.573 160.871 410.274 158.218 413.581 158.242C416.888 158.271 419.548 160.971 419.519 164.271Z" fill="#7BE1C9"/>
<path d="M424.038 186.664C420.896 185.634 413.187 177.805 413.481 176.905C413.776 176.011 424.627 174.264 427.769 175.294C430.911 176.323 432.618 179.705 431.588 182.84C430.564 185.987 427.18 187.693 424.038 186.664Z" fill="#7BE1C9"/>
<path d="M316.936 258.171C316.936 258.171 280.771 196.463 396.077 152.612C396.077 152.618 393.841 279.612 316.936 258.171Z" fill="#95E7D4"/>
<path d="M396.224 152.418L313.794 249.725C308.492 231.461 306.509 186.534 396.224 152.418Z" fill="#7BE1C9"/>
<path d="M317.272 245.984C317.19 245.984 317.101 245.955 317.031 245.896C316.872 245.761 316.854 245.531 316.99 245.372L395.941 152.177C396.077 152.018 396.312 152.001 396.465 152.136C396.624 152.271 396.642 152.501 396.506 152.66L317.554 245.855C317.484 245.943 317.378 245.984 317.272 245.984Z" fill="#1C2A47"/>
<path d="M355.009 201.439C354.827 201.439 354.668 201.304 354.644 201.116C354.615 200.91 354.762 200.728 354.962 200.698L388.598 196.193C388.798 196.157 388.986 196.304 389.016 196.51C389.045 196.716 388.898 196.898 388.698 196.928L355.062 201.433C355.039 201.439 355.021 201.439 355.009 201.439Z" fill="#1C2A47"/>
<path d="M338.098 221.403C338.075 221.403 338.045 221.403 338.022 221.397C337.822 221.356 337.692 221.162 337.733 220.956L344.377 188.322C344.418 188.122 344.618 187.993 344.818 188.034C345.018 188.075 345.148 188.269 345.107 188.475L338.463 221.109C338.428 221.285 338.269 221.403 338.098 221.403Z" fill="#1C2A47"/>
<path d="M307.833 262.154C307.833 262.154 315.288 211.198 399.842 238.426C399.842 238.42 341.409 308.793 307.833 262.154Z" fill="#7BE1C9"/>
<path d="M399.842 238.42L307.833 262.148C307.833 262.154 332.971 311.492 399.842 238.42Z" fill="#3A6B5F"/>
<path d="M375.852 253.984C375.84 253.984 375.828 253.984 375.81 253.978L354.326 249.602C354.161 249.566 354.055 249.407 354.091 249.249C354.126 249.084 354.285 248.984 354.444 249.013L375.928 253.39C376.093 253.425 376.199 253.584 376.163 253.743C376.14 253.895 376.004 253.995 375.852 253.984Z" fill="#7BE1C9"/>
<path d="M345.358 268.524C345.334 268.524 345.31 268.518 345.293 268.512L317.583 259.901C317.424 259.854 317.336 259.683 317.383 259.525C317.43 259.366 317.6 259.278 317.759 259.325L345.469 267.936C345.628 267.983 345.716 268.154 345.669 268.312C345.628 268.454 345.499 268.536 345.358 268.524Z" fill="#7BE1C9"/>
<path d="M227.745 259.377C227.745 259.377 261.757 201.339 153.312 160.1C153.318 160.1 155.419 279.541 227.745 259.377Z" fill="#7BE1C9"/>
<path d="M153.176 159.912L230.704 251.431C235.688 234.255 237.553 191.998 153.176 159.912Z" fill="#95E7D4"/>
<path d="M227.433 247.937C227.327 247.937 227.221 247.89 227.15 247.808L152.894 160.153C152.765 159.994 152.783 159.759 152.936 159.63C153.094 159.5 153.324 159.518 153.459 159.671L227.715 247.325C227.845 247.484 227.827 247.719 227.674 247.849C227.604 247.908 227.515 247.937 227.433 247.937Z" fill="#1C2A47"/>
<path d="M191.944 206.045C191.926 206.045 191.909 206.045 191.891 206.039L160.256 201.804C160.05 201.775 159.909 201.592 159.938 201.386C159.968 201.181 160.156 201.033 160.356 201.069L191.991 205.304C192.197 205.333 192.338 205.516 192.309 205.721C192.285 205.91 192.126 206.045 191.944 206.045Z" fill="#1C2A47"/>
<path d="M207.849 224.82C207.679 224.82 207.52 224.697 207.484 224.52L201.235 193.828C201.194 193.628 201.323 193.428 201.524 193.387C201.718 193.346 201.924 193.475 201.965 193.675L208.214 224.368C208.255 224.568 208.126 224.768 207.926 224.809C207.896 224.82 207.873 224.82 207.849 224.82Z" fill="#1C2A47"/>
<path d="M236.308 263.119C236.308 263.119 229.294 215.192 149.771 240.802C149.777 240.802 204.732 306.987 236.308 263.119Z" fill="#3A6B5F"/>
<path d="M149.777 240.802L236.314 263.119C236.308 263.119 212.67 309.528 149.777 240.802Z" fill="#95E7D4"/>
<path d="M172.338 255.442C172.35 255.442 172.362 255.442 172.374 255.437L192.581 251.319C192.734 251.29 192.834 251.137 192.805 250.984C192.775 250.831 192.622 250.737 192.469 250.76L172.262 254.878C172.109 254.907 172.009 255.06 172.038 255.213C172.068 255.354 172.197 255.448 172.338 255.442Z" fill="#3A6B5F"/>
<path d="M201.014 269.118C201.037 269.118 201.055 269.112 201.079 269.106L227.141 261.007C227.288 260.96 227.37 260.801 227.329 260.654C227.282 260.507 227.123 260.419 226.976 260.466L200.914 268.565C200.767 268.612 200.684 268.771 200.725 268.918C200.767 269.048 200.89 269.124 201.014 269.118Z" fill="#3A6B5F"/>
<path d="M260.891 42.5063C260.156 43.1298 259.456 43.7945 258.797 44.5003C253.371 50.2706 253.724 60.3054 246.198 64.1993C240.814 66.9874 234.358 64.6405 228.315 64.2052C223.855 63.8817 219.224 64.6993 215.463 67.1227C211.709 69.5461 208.955 73.7047 208.826 78.1692C208.696 82.5572 210.973 86.6746 211.344 91.045C211.68 95.0271 210.338 99.1269 207.702 102.139C204.889 105.356 200.858 107.215 197.533 109.903C194.209 112.591 191.449 116.891 192.743 120.967C194.132 125.337 199.446 127.337 201.335 131.513C203.365 136.007 200.799 141.084 198.946 145.648C197.092 150.212 196.457 156.524 200.664 159.089C202.529 160.23 204.865 160.236 207.043 160.036C208.478 159.9 210.008 159.7 211.303 160.341C212.086 160.73 212.698 161.383 213.245 162.059C216.528 166.094 218.67 171.653 223.572 173.4C226.102 174.299 228.886 173.952 231.546 173.576C237.106 172.788 242.956 171.788 247.275 168.194C254.76 161.959 255.048 150.26 261.533 142.989C266.699 137.196 274.885 135.219 282.611 134.466C290.337 133.713 298.317 133.837 305.555 131.031C309.886 129.355 313.816 126.643 316.923 123.196C318.965 120.926 320.713 118.185 320.901 115.138C321.307 108.556 314.628 103.621 313.304 97.1623C312.233 91.9273 314.205 86.857 314.281 81.6455C314.352 76.5399 311.986 71.5225 309.968 66.9168C305.878 57.6055 299.264 43.9592 290.073 38.8183C280.963 33.7244 268.659 35.8949 260.891 42.5063Z" fill="#1C2A47"/>
<mask id="path-54-inside-1_1210_1172" fill="white">
<path fill-rule="evenodd" clip-rule="evenodd" d="M382.515 105.15L389.902 116.638L375.624 127.252L375.625 127.255C375.625 127.255 355.277 171.594 336.711 171.947C318.146 172.305 304.223 151.607 304.582 150.536C304.941 149.465 316.722 136.925 316.722 136.925H322.788V136.931C322.788 136.931 331.356 148.401 338.494 148.401C344.704 148.401 363.889 125.44 368.772 119.471C368.831 119.375 371.372 115.207 373.795 111.576C373.948 111.304 377.632 104.739 379.816 102.815C382.046 100.85 385.224 98.8917 385.6 99.6916C385.779 100.072 384.705 101.742 383.355 103.84C383.083 104.262 382.801 104.701 382.515 105.15ZM218.545 170.435C217.209 166.688 228.813 153.148 228.813 153.148L212.443 136.925C212.443 136.925 196.59 154.106 195.79 165.347C195.028 175.962 225.791 208.294 231.129 213.906C231.444 214.236 231.67 214.474 231.797 214.609C232.582 215.449 233.16 216.986 233.581 218.637C233.189 220.94 232.183 224.119 229.836 228.12C227.588 231.955 230.142 242.861 231.29 242.849C232.437 242.837 231.937 236.167 231.937 236.167C231.937 236.167 232.796 244.49 234.244 244.443C235.691 244.39 234.92 235.814 234.92 235.814C234.92 235.814 236.233 244.861 237.71 244.331C239.187 243.796 238.698 235.32 238.698 235.32C238.698 235.32 240.628 244.99 241.429 243.767C241.936 242.99 242.049 239.539 242.139 236.745C242.192 235.135 242.237 233.744 242.347 233.208C242.495 232.482 243.524 230.074 244.636 227.47C245.008 226.599 245.389 225.707 245.75 224.849C246.12 225.357 246.586 226.776 247.087 228.297C247.838 230.582 248.666 233.098 249.354 233.108C250.278 233.121 250.051 229.865 249.853 227.015C249.786 226.05 249.722 225.132 249.707 224.403C249.649 221.526 245.147 213.968 245.147 213.968L245.147 213.969C244.145 212.16 242.975 210.281 241.947 208.7C239.682 204.715 235.125 197.504 230.624 190.381L230.624 190.381L230.623 190.38L230.623 190.38C224.878 181.29 219.225 172.344 218.545 170.435Z"/>
</mask>
<path fill-rule="evenodd" clip-rule="evenodd" d="M382.515 105.15L389.902 116.638L375.624 127.252L375.625 127.255C375.625 127.255 355.277 171.594 336.711 171.947C318.146 172.305 304.223 151.607 304.582 150.536C304.941 149.465 316.722 136.925 316.722 136.925H322.788V136.931C322.788 136.931 331.356 148.401 338.494 148.401C344.704 148.401 363.889 125.44 368.772 119.471C368.831 119.375 371.372 115.207 373.795 111.576C373.948 111.304 377.632 104.739 379.816 102.815C382.046 100.85 385.224 98.8917 385.6 99.6916C385.779 100.072 384.705 101.742 383.355 103.84C383.083 104.262 382.801 104.701 382.515 105.15ZM218.545 170.435C217.209 166.688 228.813 153.148 228.813 153.148L212.443 136.925C212.443 136.925 196.59 154.106 195.79 165.347C195.028 175.962 225.791 208.294 231.129 213.906C231.444 214.236 231.67 214.474 231.797 214.609C232.582 215.449 233.16 216.986 233.581 218.637C233.189 220.94 232.183 224.119 229.836 228.12C227.588 231.955 230.142 242.861 231.29 242.849C232.437 242.837 231.937 236.167 231.937 236.167C231.937 236.167 232.796 244.49 234.244 244.443C235.691 244.39 234.92 235.814 234.92 235.814C234.92 235.814 236.233 244.861 237.71 244.331C239.187 243.796 238.698 235.32 238.698 235.32C238.698 235.32 240.628 244.99 241.429 243.767C241.936 242.99 242.049 239.539 242.139 236.745C242.192 235.135 242.237 233.744 242.347 233.208C242.495 232.482 243.524 230.074 244.636 227.47C245.008 226.599 245.389 225.707 245.75 224.849C246.12 225.357 246.586 226.776 247.087 228.297C247.838 230.582 248.666 233.098 249.354 233.108C250.278 233.121 250.051 229.865 249.853 227.015C249.786 226.05 249.722 225.132 249.707 224.403C249.649 221.526 245.147 213.968 245.147 213.968L245.147 213.969C244.145 212.16 242.975 210.281 241.947 208.7C239.682 204.715 235.125 197.504 230.624 190.381L230.624 190.381L230.623 190.38L230.623 190.38C224.878 181.29 219.225 172.344 218.545 170.435Z" fill="#B5C4E2"/>
<path d="M382.515 105.15L381.671 104.614L381.328 105.154L381.674 105.691L382.515 105.15ZM389.902 116.638L390.498 117.44L391.248 116.883L390.743 116.097L389.902 116.638ZM375.624 127.252L375.027 126.45L374.29 126.998L374.773 127.779L375.624 127.252ZM375.625 127.255L376.534 127.672L376.758 127.185L376.475 126.729L375.625 127.255ZM336.711 171.947L336.692 170.947L336.692 170.947L336.711 171.947ZM304.582 150.536L303.634 150.218L303.634 150.218L304.582 150.536ZM316.722 136.925V135.925H316.289L315.993 136.24L316.722 136.925ZM322.788 136.925H323.788V135.925H322.788V136.925ZM322.788 136.931H321.788V137.263L321.987 137.529L322.788 136.931ZM368.772 119.471L369.546 120.104L369.59 120.051L369.626 119.992L368.772 119.471ZM373.795 111.576L374.627 112.131L374.649 112.099L374.668 112.065L373.795 111.576ZM379.816 102.815L379.155 102.065L379.155 102.065L379.816 102.815ZM385.6 99.6916L384.696 100.118L384.696 100.118L385.6 99.6916ZM383.355 103.84L382.514 103.299L382.514 103.299L383.355 103.84ZM228.813 153.148L229.572 153.798L230.178 153.092L229.517 152.437L228.813 153.148ZM218.545 170.435L219.487 170.099L219.487 170.099L218.545 170.435ZM212.443 136.925L213.146 136.215L212.41 135.485L211.708 136.247L212.443 136.925ZM195.79 165.347L196.787 165.419L196.787 165.418L195.79 165.347ZM231.129 213.906L230.405 214.595L230.405 214.595L231.129 213.906ZM231.797 214.609L232.527 213.926L232.527 213.926L231.797 214.609ZM233.581 218.637L234.567 218.805L234.603 218.596L234.55 218.39L233.581 218.637ZM229.836 228.12L228.974 227.614L228.974 227.615L229.836 228.12ZM231.29 242.849L231.28 241.849L231.28 241.849L231.29 242.849ZM231.937 236.167L232.932 236.064L230.94 236.242L231.937 236.167ZM234.244 244.443L234.276 245.442L234.28 245.442L234.244 244.443ZM234.92 235.814L235.91 235.67L233.925 235.904L234.92 235.814ZM237.71 244.331L238.047 245.273L238.05 245.271L237.71 244.331ZM238.698 235.32L239.679 235.124L237.7 235.377L238.698 235.32ZM241.429 243.767L240.592 243.219L240.592 243.219L241.429 243.767ZM242.139 236.745L243.139 236.777L243.139 236.777L242.139 236.745ZM242.347 233.208L243.326 233.409L243.326 233.409L242.347 233.208ZM244.636 227.47L243.717 227.077L243.717 227.077L244.636 227.47ZM245.75 224.849L246.559 224.261L245.515 222.825L244.828 224.461L245.75 224.849ZM247.087 228.297L248.037 227.985L248.037 227.985L247.087 228.297ZM249.354 233.108L249.34 234.108L249.34 234.108L249.354 233.108ZM249.853 227.015L248.856 227.084L248.856 227.084L249.853 227.015ZM249.707 224.403L250.707 224.382L250.707 224.382L249.707 224.403ZM245.147 213.968L246.006 213.456L244.389 210.741L244.15 213.892L245.147 213.968ZM245.147 213.969L244.272 214.454L245.891 217.379L246.144 214.045L245.147 213.969ZM241.947 208.7L241.078 209.194L241.092 209.22L241.109 209.245L241.947 208.7ZM230.624 190.381L231.469 189.847L231.467 189.844L230.624 190.381ZM230.624 190.381L231.467 189.844L231.466 189.842L230.624 190.381ZM230.623 190.38L231.465 189.841L231.462 189.837L230.623 190.38ZM230.623 190.38L229.778 190.914L229.784 190.924L230.623 190.38ZM381.674 105.691L389.061 117.179L390.743 116.097L383.356 104.61L381.674 105.691ZM389.305 115.835L375.027 126.45L376.22 128.055L390.498 117.44L389.305 115.835ZM374.773 127.779L374.775 127.781L376.475 126.729L376.474 126.726L374.773 127.779ZM375.625 127.255C374.716 126.838 374.716 126.838 374.716 126.838C374.716 126.838 374.716 126.839 374.716 126.839C374.715 126.84 374.714 126.842 374.713 126.845C374.711 126.85 374.707 126.857 374.703 126.867C374.693 126.888 374.679 126.919 374.66 126.96C374.621 127.042 374.564 127.165 374.488 127.325C374.336 127.647 374.11 128.119 373.816 128.722C373.227 129.927 372.365 131.651 371.271 133.721C369.083 137.865 365.977 143.387 362.298 148.914C358.614 154.449 354.38 159.952 349.942 164.083C345.478 168.239 340.957 170.866 336.692 170.947L336.73 172.946C341.748 172.851 346.733 169.803 351.305 165.547C355.905 161.265 360.239 155.617 363.963 150.023C367.691 144.421 370.832 138.836 373.04 134.655C374.144 132.564 375.016 130.821 375.613 129.6C375.911 128.989 376.141 128.509 376.296 128.18C376.374 128.016 376.433 127.89 376.473 127.804C376.493 127.761 376.508 127.729 376.518 127.707C376.523 127.695 376.527 127.687 376.53 127.681C376.531 127.678 376.532 127.676 376.533 127.675C376.533 127.674 376.533 127.673 376.534 127.673C376.534 127.672 376.534 127.672 375.625 127.255ZM336.692 170.947C327.783 171.119 319.902 166.23 314.225 161.039C311.398 158.455 309.154 155.827 307.643 153.788C306.887 152.768 306.324 151.906 305.966 151.281C305.785 150.965 305.668 150.73 305.604 150.575C305.571 150.496 305.563 150.463 305.564 150.466C305.564 150.469 305.572 150.499 305.574 150.55C305.576 150.593 305.579 150.709 305.53 150.854L303.634 150.218C303.528 150.534 303.594 150.824 303.616 150.919C303.649 151.063 303.701 151.207 303.755 151.338C303.865 151.604 304.028 151.923 304.23 152.275C304.637 152.986 305.248 153.914 306.036 154.979C307.616 157.111 309.945 159.836 312.875 162.515C318.711 167.852 327.074 173.133 336.73 172.946L336.692 170.947ZM305.53 150.854C305.499 150.946 305.479 150.947 305.595 150.782C305.684 150.656 305.815 150.484 305.987 150.269C306.331 149.839 306.81 149.274 307.384 148.614C308.531 147.297 310.031 145.637 311.524 144.004C313.017 142.372 314.498 140.774 315.607 139.582C316.162 138.987 316.623 138.494 316.945 138.149C317.106 137.977 317.232 137.842 317.319 137.75C317.362 137.704 317.395 137.669 317.417 137.645C317.428 137.633 317.436 137.625 317.442 137.619C317.445 137.616 317.447 137.613 317.448 137.612C317.449 137.611 317.45 137.611 317.45 137.61C317.45 137.61 317.45 137.61 317.45 137.61C317.45 137.61 317.45 137.61 316.722 136.925C315.993 136.24 315.993 136.24 315.993 136.24C315.992 136.241 315.992 136.241 315.992 136.241C315.992 136.241 315.991 136.242 315.991 136.243C315.989 136.244 315.987 136.246 315.984 136.249C315.978 136.256 315.97 136.265 315.959 136.277C315.936 136.3 315.903 136.336 315.86 136.382C315.773 136.474 315.646 136.61 315.484 136.783C315.161 137.128 314.699 137.623 314.143 138.22C313.032 139.413 311.546 141.017 310.048 142.654C308.552 144.29 307.039 145.965 305.876 147.301C305.295 147.968 304.795 148.557 304.426 149.019C304.242 149.249 304.083 149.456 303.96 149.631C303.864 149.768 303.709 149.992 303.634 150.218L305.53 150.854ZM316.722 137.925H322.788V135.925H316.722V137.925ZM321.788 136.925V136.931H323.788V136.925H321.788ZM322.788 136.931C321.987 137.529 321.987 137.529 321.988 137.53C321.988 137.53 321.988 137.53 321.988 137.53C321.989 137.531 321.989 137.532 321.99 137.533C321.991 137.534 321.993 137.537 321.995 137.54C322 137.546 322.007 137.556 322.016 137.567C322.034 137.591 322.06 137.625 322.093 137.669C322.161 137.756 322.259 137.883 322.386 138.044C322.641 138.366 323.011 138.823 323.477 139.371C324.408 140.465 325.727 141.927 327.278 143.393C328.825 144.855 330.625 146.342 332.517 147.468C334.399 148.587 336.455 149.401 338.494 149.401V147.401C336.965 147.401 335.273 146.78 333.54 145.749C331.819 144.725 330.138 143.344 328.651 141.939C327.168 140.537 325.899 139.132 325 138.075C324.552 137.547 324.197 137.109 323.955 136.803C323.834 136.65 323.741 136.531 323.68 136.451C323.649 136.411 323.626 136.38 323.611 136.36C323.603 136.35 323.597 136.343 323.594 136.338C323.592 136.336 323.591 136.334 323.59 136.333C323.59 136.333 323.59 136.332 323.59 136.332C323.589 136.332 323.59 136.332 323.589 136.332C323.59 136.332 323.59 136.332 322.788 136.931ZM338.494 149.401C339.537 149.401 340.703 148.935 341.871 148.273C343.068 147.594 344.395 146.636 345.791 145.494C348.586 143.21 351.752 140.119 354.855 136.864C361.064 130.35 367.1 123.095 369.546 120.104L367.998 118.838C365.561 121.816 359.563 129.026 353.407 135.484C350.326 138.716 347.227 141.738 344.526 143.946C343.174 145.05 341.945 145.932 340.885 146.533C339.796 147.149 339.004 147.401 338.494 147.401V149.401ZM369.626 119.992C369.684 119.896 372.216 115.744 374.627 112.131L372.963 111.021C370.528 114.671 367.977 118.853 367.918 118.951L369.626 119.992ZM374.668 112.065C374.74 111.935 375.69 110.244 376.889 108.35C378.116 106.411 379.511 104.416 380.477 103.565L379.155 102.065C377.937 103.137 376.398 105.387 375.199 107.28C373.972 109.218 373.002 110.945 372.923 111.088L374.668 112.065ZM380.477 103.565C381.549 102.621 382.845 101.683 383.897 101.086C384.432 100.783 384.846 100.602 385.107 100.533C385.244 100.496 385.255 100.515 385.186 100.504C385.079 100.488 384.828 100.398 384.696 100.118L386.505 99.2657C386.279 98.7853 385.846 98.5811 385.484 98.5267C385.161 98.4781 384.844 98.5335 384.596 98.599C384.085 98.7339 383.495 99.0153 382.91 99.3467C381.721 100.021 380.313 101.044 379.155 102.065L380.477 103.565ZM384.696 100.118C384.637 99.992 384.624 99.8843 384.621 99.8261C384.618 99.7669 384.624 99.7293 384.625 99.7225C384.627 99.7126 384.622 99.7452 384.586 99.8351C384.515 100.012 384.383 100.274 384.182 100.626C383.784 101.325 383.194 102.241 382.514 103.299L384.196 104.381C384.865 103.341 385.488 102.373 385.919 101.617C386.133 101.242 386.321 100.884 386.444 100.575C386.505 100.422 386.565 100.246 386.596 100.063C386.623 99.9094 386.659 99.5928 386.505 99.2656L384.696 100.118ZM382.514 103.299C382.242 103.72 381.958 104.162 381.671 104.614L383.359 105.687C383.643 105.24 383.924 104.803 384.196 104.381L382.514 103.299ZM228.813 153.148C228.054 152.497 228.054 152.497 228.054 152.497C228.053 152.497 228.053 152.498 228.053 152.498C228.053 152.498 228.052 152.499 228.051 152.5C228.05 152.502 228.047 152.504 228.044 152.508C228.039 152.515 228.03 152.525 228.019 152.538C227.996 152.565 227.963 152.604 227.92 152.655C227.834 152.757 227.708 152.906 227.549 153.097C227.231 153.478 226.779 154.026 226.241 154.696C225.167 156.033 223.745 157.859 222.362 159.808C220.985 161.75 219.625 163.842 218.692 165.705C218.225 166.636 217.849 167.542 217.635 168.365C217.427 169.162 217.335 170.02 217.603 170.771L219.487 170.099C219.42 169.913 219.399 169.528 219.57 168.868C219.735 168.234 220.046 167.467 220.48 166.601C221.346 164.872 222.637 162.876 223.994 160.965C225.345 159.06 226.741 157.267 227.8 155.948C228.33 155.29 228.774 154.751 229.085 154.377C229.241 154.19 229.363 154.045 229.447 153.946C229.488 153.897 229.52 153.86 229.541 153.835C229.552 153.822 229.56 153.813 229.565 153.807C229.568 153.804 229.57 153.802 229.571 153.8C229.571 153.8 229.572 153.799 229.572 153.799C229.572 153.799 229.572 153.798 229.572 153.798C229.572 153.798 229.572 153.798 228.813 153.148ZM211.739 137.635L228.109 153.858L229.517 152.437L213.146 136.215L211.739 137.635ZM196.787 165.418C196.973 162.799 198.048 159.756 199.623 156.612C201.191 153.483 203.216 150.327 205.23 147.501C207.243 144.678 209.232 142.2 210.719 140.428C211.462 139.542 212.079 138.834 212.509 138.348C212.724 138.105 212.892 137.917 213.006 137.791C213.063 137.728 213.106 137.681 213.135 137.649C213.15 137.633 213.161 137.622 213.168 137.614C213.171 137.61 213.174 137.607 213.175 137.605C213.176 137.604 213.177 137.604 213.177 137.603C213.177 137.603 213.177 137.603 213.178 137.603C213.178 137.603 213.178 137.603 212.443 136.925C211.708 136.247 211.707 136.247 211.707 136.247C211.707 136.247 211.707 136.248 211.706 136.248C211.706 136.249 211.705 136.25 211.704 136.251C211.702 136.253 211.699 136.257 211.695 136.261C211.686 136.27 211.674 136.283 211.659 136.3C211.628 136.334 211.582 136.384 211.523 136.45C211.404 136.581 211.231 136.774 211.011 137.023C210.571 137.52 209.943 138.242 209.187 139.142C207.677 140.943 205.653 143.463 203.602 146.34C201.553 149.215 199.465 152.462 197.835 155.716C196.212 158.955 195.006 162.274 194.792 165.276L196.787 165.418ZM231.854 213.216C229.185 210.412 220.183 200.95 211.946 190.87C207.826 185.828 203.916 180.654 201.089 176.096C199.675 173.817 198.546 171.714 197.797 169.874C197.038 168.013 196.708 166.517 196.787 165.419L194.792 165.275C194.681 166.831 195.145 168.667 195.944 170.628C196.752 172.61 197.943 174.819 199.39 177.151C202.283 181.816 206.255 187.066 210.398 192.136C218.686 202.279 227.735 211.788 230.405 214.595L231.854 213.216ZM232.527 213.926C232.397 213.787 232.166 213.545 231.854 213.216L230.405 214.595C230.721 214.927 230.944 215.161 231.066 215.292L232.527 213.926ZM234.55 218.39C234.128 216.733 233.502 214.969 232.527 213.926L231.066 215.292C231.661 215.929 232.193 217.238 232.612 218.884L234.55 218.39ZM230.699 228.626C233.1 224.532 234.153 221.239 234.567 218.805L232.595 218.469C232.226 220.641 231.266 223.707 228.974 227.614L230.699 228.626ZM231.28 241.849C231.447 241.847 231.574 241.896 231.647 241.935C231.718 241.973 231.756 242.01 231.762 242.016C231.772 242.025 231.738 241.993 231.672 241.878C231.544 241.655 231.384 241.285 231.21 240.771C230.866 239.756 230.521 238.332 230.278 236.773C230.034 235.214 229.897 233.559 229.953 232.079C230.01 230.569 230.263 229.369 230.699 228.626L228.974 227.615C228.285 228.789 228.015 230.39 227.954 232.004C227.893 233.647 228.044 235.436 228.302 237.082C228.559 238.727 228.927 240.266 229.315 241.412C229.507 241.979 229.717 242.489 229.939 242.875C230.048 243.065 230.185 243.27 230.357 243.439C230.508 243.588 230.831 243.854 231.3 243.849L231.28 241.849ZM231.937 236.167C230.94 236.242 230.94 236.242 230.94 236.242C230.94 236.242 230.94 236.242 230.94 236.242C230.94 236.242 230.94 236.242 230.94 236.242C230.94 236.243 230.94 236.244 230.94 236.245C230.94 236.248 230.941 236.252 230.941 236.258C230.942 236.27 230.943 236.287 230.945 236.311C230.948 236.358 230.953 236.427 230.958 236.516C230.969 236.694 230.984 236.949 230.998 237.256C231.027 237.87 231.053 238.684 231.044 239.492C231.035 240.313 230.99 241.079 230.891 241.62C230.84 241.9 230.787 242.044 230.761 242.094C230.718 242.176 230.857 241.853 231.28 241.849L231.3 243.849C232.01 243.842 232.383 243.308 232.533 243.022C232.699 242.705 232.795 242.327 232.859 241.979C232.989 241.266 233.034 240.363 233.044 239.515C233.053 238.654 233.026 237.799 232.996 237.163C232.981 236.844 232.966 236.578 232.954 236.391C232.948 236.297 232.944 236.224 232.94 236.173C232.938 236.147 232.937 236.128 232.936 236.114C232.935 236.107 232.935 236.102 232.935 236.098C232.935 236.096 232.934 236.095 232.934 236.094C232.934 236.094 232.934 236.093 232.934 236.093C232.934 236.093 232.934 236.092 232.934 236.092C232.934 236.092 232.934 236.092 231.937 236.167ZM234.211 243.443C234.547 243.433 234.648 243.664 234.538 243.513C234.456 243.4 234.341 243.179 234.211 242.825C233.956 242.13 233.725 241.158 233.53 240.135C233.337 239.123 233.187 238.104 233.085 237.335C233.035 236.952 232.996 236.632 232.97 236.41C232.957 236.298 232.948 236.211 232.941 236.152C232.938 236.123 232.936 236.1 232.934 236.085C232.933 236.078 232.933 236.072 232.932 236.069C232.932 236.067 232.932 236.066 232.932 236.065C232.932 236.065 232.932 236.064 232.932 236.064C232.932 236.064 232.932 236.064 232.932 236.064C232.932 236.064 232.932 236.064 231.937 236.167C230.942 236.27 230.942 236.27 230.942 236.27C230.942 236.27 230.942 236.27 230.942 236.27C230.942 236.271 230.943 236.271 230.943 236.272C230.943 236.273 230.943 236.275 230.943 236.277C230.944 236.281 230.944 236.288 230.945 236.296C230.947 236.313 230.95 236.337 230.953 236.369C230.96 236.432 230.97 236.523 230.983 236.639C231.01 236.871 231.05 237.202 231.103 237.598C231.207 238.388 231.363 239.447 231.565 240.51C231.766 241.562 232.021 242.662 232.334 243.514C232.488 243.934 232.678 244.355 232.92 244.689C233.134 244.983 233.579 245.465 234.276 245.442L234.211 243.443ZM234.92 235.814C233.925 235.904 233.925 235.903 233.925 235.903C233.925 235.903 233.925 235.903 233.925 235.904C233.925 235.904 233.925 235.904 233.925 235.904C233.925 235.905 233.925 235.907 233.925 235.908C233.925 235.912 233.926 235.918 233.926 235.925C233.928 235.941 233.93 235.964 233.932 235.994C233.937 236.055 233.945 236.145 233.954 236.26C233.972 236.49 233.996 236.82 234.02 237.216C234.069 238.011 234.119 239.064 234.125 240.114C234.131 241.176 234.091 242.186 233.973 242.913C233.913 243.285 233.843 243.51 233.791 243.617C233.719 243.762 233.816 243.458 234.207 243.444L234.28 245.442C235.034 245.415 235.423 244.831 235.586 244.497C235.769 244.125 235.876 243.671 235.947 243.232C236.092 242.336 236.131 241.192 236.125 240.103C236.119 239.002 236.067 237.909 236.016 237.093C235.991 236.685 235.966 236.344 235.948 236.105C235.938 235.985 235.931 235.891 235.925 235.826C235.923 235.794 235.92 235.769 235.919 235.752C235.918 235.743 235.918 235.737 235.917 235.732C235.917 235.73 235.917 235.728 235.917 235.727C235.917 235.726 235.917 235.726 235.917 235.725C235.917 235.725 235.917 235.725 235.917 235.725C235.916 235.725 235.916 235.724 234.92 235.814ZM237.372 243.39C237.761 243.25 237.983 243.53 237.909 243.448C237.843 243.375 237.723 243.187 237.57 242.831C237.275 242.141 236.989 241.129 236.735 240.044C236.485 238.971 236.278 237.877 236.134 237.048C236.062 236.634 236.006 236.288 235.968 236.046C235.949 235.925 235.934 235.831 235.924 235.766C235.92 235.734 235.916 235.71 235.914 235.694C235.912 235.686 235.911 235.68 235.911 235.676C235.911 235.674 235.91 235.672 235.91 235.671C235.91 235.671 235.91 235.671 235.91 235.671C235.91 235.67 235.91 235.67 235.91 235.67C235.91 235.67 235.91 235.67 234.92 235.814C233.931 235.958 233.931 235.958 233.931 235.958C233.931 235.958 233.931 235.958 233.931 235.958C233.931 235.959 233.931 235.959 233.931 235.96C233.931 235.961 233.932 235.963 233.932 235.965C233.933 235.97 233.934 235.977 233.935 235.986C233.938 236.004 233.942 236.031 233.947 236.065C233.957 236.133 233.972 236.232 233.992 236.357C234.031 236.608 234.089 236.965 234.163 237.391C234.311 238.241 234.525 239.375 234.787 240.499C235.047 241.608 235.365 242.76 235.731 243.617C235.91 244.034 236.134 244.466 236.423 244.787C236.703 245.098 237.289 245.544 238.047 245.273L237.372 243.39ZM238.698 235.32C237.7 235.377 237.7 235.377 237.7 235.377C237.7 235.377 237.7 235.377 237.7 235.377C237.7 235.378 237.7 235.378 237.7 235.378C237.7 235.379 237.7 235.38 237.7 235.382C237.7 235.386 237.701 235.391 237.701 235.399C237.702 235.414 237.703 235.437 237.705 235.467C237.708 235.527 237.712 235.616 237.717 235.73C237.728 235.958 237.741 236.286 237.752 236.681C237.774 237.473 237.789 238.529 237.758 239.596C237.728 240.673 237.652 241.721 237.504 242.514C237.43 242.915 237.345 243.201 237.265 243.378C237.166 243.597 237.16 243.467 237.369 243.391L238.05 245.271C238.629 245.062 238.93 244.55 239.087 244.202C239.263 243.814 239.383 243.35 239.47 242.88C239.647 241.933 239.726 240.762 239.757 239.653C239.789 238.535 239.774 237.438 239.751 236.624C239.74 236.217 239.726 235.878 239.715 235.64C239.71 235.521 239.705 235.428 239.702 235.364C239.7 235.331 239.699 235.307 239.698 235.29C239.698 235.281 239.697 235.274 239.697 235.27C239.697 235.268 239.697 235.266 239.697 235.265C239.697 235.264 239.697 235.263 239.697 235.263C239.697 235.263 239.697 235.263 239.697 235.263C239.697 235.262 239.697 235.262 238.698 235.32ZM240.592 243.219C240.637 243.151 240.874 242.847 241.328 242.875C241.515 242.887 241.649 242.955 241.72 243.001C241.79 243.046 241.826 243.087 241.833 243.095C241.844 243.108 241.82 243.081 241.766 242.979C241.717 242.884 241.659 242.756 241.593 242.592C241.325 241.922 241.022 240.881 240.732 239.753C240.445 238.637 240.182 237.48 239.989 236.599C239.894 236.159 239.816 235.789 239.762 235.53C239.735 235.4 239.714 235.298 239.7 235.229C239.693 235.194 239.688 235.168 239.684 235.15C239.682 235.141 239.681 235.135 239.68 235.13C239.68 235.128 239.679 235.127 239.679 235.126C239.679 235.125 239.679 235.125 239.679 235.124C239.679 235.124 239.679 235.124 239.679 235.124C239.679 235.124 239.679 235.124 238.698 235.32C237.718 235.516 237.718 235.516 237.718 235.516C237.718 235.516 237.718 235.516 237.718 235.516C237.718 235.517 237.718 235.517 237.718 235.518C237.718 235.519 237.719 235.521 237.719 235.523C237.72 235.528 237.722 235.536 237.724 235.545C237.727 235.564 237.733 235.591 237.74 235.627C237.755 235.699 237.776 235.804 237.804 235.936C237.859 236.201 237.938 236.577 238.035 237.025C238.23 237.918 238.499 239.102 238.795 240.251C239.087 241.387 239.417 242.535 239.736 243.334C239.883 243.702 240.076 244.126 240.33 244.415C240.442 244.541 240.734 244.842 241.204 244.871C241.775 244.907 242.121 244.535 242.266 244.314L240.592 243.219ZM241.14 236.712C241.094 238.116 241.044 239.652 240.943 240.934C240.893 241.576 240.832 242.131 240.756 242.562C240.718 242.778 240.68 242.947 240.643 243.071C240.602 243.207 240.578 243.24 240.592 243.219L242.266 244.314C242.518 243.928 242.644 243.376 242.726 242.907C242.817 242.385 242.885 241.758 242.937 241.091C243.042 239.754 243.094 238.168 243.139 236.777L241.14 236.712ZM241.367 233.007C241.294 233.362 241.254 233.92 241.223 234.522C241.191 235.15 241.166 235.911 241.14 236.712L243.139 236.777C243.165 235.969 243.189 235.229 243.22 234.625C243.252 233.995 243.289 233.59 243.326 233.409L241.367 233.007ZM243.717 227.077C243.162 228.376 242.623 229.638 242.204 230.666C241.803 231.651 241.464 232.533 241.367 233.007L243.326 233.409C243.378 233.158 243.628 232.472 244.056 231.421C244.467 230.412 244.999 229.167 245.556 227.862L243.717 227.077ZM244.828 224.461C244.469 225.317 244.089 226.206 243.717 227.077L245.556 227.862C245.928 226.993 246.31 226.098 246.672 225.236L244.828 224.461ZM248.037 227.985C247.788 227.23 247.54 226.475 247.307 225.846C247.088 225.255 246.837 224.643 246.559 224.261L244.941 225.436C245.032 225.562 245.2 225.915 245.432 226.541C245.649 227.128 245.885 227.844 246.137 228.61L248.037 227.985ZM249.369 232.108C249.593 232.112 249.718 232.214 249.726 232.221C249.737 232.23 249.707 232.206 249.641 232.11C249.512 231.92 249.351 231.606 249.165 231.167C248.798 230.297 248.417 229.14 248.037 227.985L246.137 228.61C246.508 229.74 246.917 230.983 247.323 231.945C247.524 232.422 247.746 232.881 247.989 233.237C248.11 233.414 248.263 233.607 248.454 233.764C248.642 233.919 248.943 234.102 249.34 234.108L249.369 232.108ZM248.856 227.084C248.956 228.526 249.057 229.997 249.025 231.106C249.008 231.671 248.958 232.057 248.893 232.272C248.859 232.382 248.845 232.367 248.897 232.308C248.974 232.22 249.143 232.105 249.369 232.108L249.34 234.108C249.797 234.115 250.16 233.901 250.401 233.626C250.616 233.381 250.734 233.091 250.807 232.853C250.952 232.372 251.006 231.768 251.024 231.164C251.06 229.935 250.949 228.353 250.851 226.945L248.856 227.084ZM248.708 224.423C248.723 225.182 248.789 226.128 248.856 227.084L250.851 226.945C250.783 225.972 250.721 225.081 250.707 224.382L248.708 224.423ZM245.147 213.968C244.288 214.48 244.288 214.48 244.288 214.48C244.288 214.48 244.288 214.48 244.288 214.48C244.288 214.48 244.288 214.48 244.288 214.481C244.289 214.481 244.289 214.482 244.29 214.484C244.292 214.487 244.295 214.492 244.299 214.499C244.307 214.513 244.32 214.533 244.336 214.561C244.368 214.615 244.415 214.696 244.476 214.8C244.597 215.009 244.77 215.311 244.979 215.683C245.397 216.428 245.954 217.449 246.512 218.557C247.071 219.667 247.623 220.849 248.037 221.919C248.464 223.023 248.697 223.893 248.708 224.423L250.707 224.382C250.689 223.474 250.337 222.321 249.903 221.198C249.456 220.043 248.872 218.796 248.298 217.657C247.723 216.515 247.151 215.467 246.723 214.705C246.509 214.323 246.331 214.012 246.205 213.796C246.143 213.689 246.093 213.604 246.059 213.547C246.042 213.518 246.029 213.495 246.02 213.48C246.016 213.473 246.012 213.467 246.01 213.463C246.009 213.461 246.008 213.459 246.007 213.458C246.007 213.458 246.007 213.457 246.006 213.457C246.006 213.457 246.006 213.457 246.006 213.457C246.006 213.456 246.006 213.456 245.147 213.968ZM246.144 214.045L246.144 214.044L244.15 213.892L244.15 213.894L246.144 214.045ZM241.109 209.245C242.13 210.816 243.286 212.673 244.272 214.454L246.022 213.485C245.004 211.647 243.82 209.747 242.785 208.155L241.109 209.245ZM229.778 190.915C234.287 198.05 238.827 205.235 241.078 209.194L242.816 208.206C240.537 204.196 235.963 196.958 231.469 189.847L229.778 190.915ZM229.78 190.918L229.78 190.918L231.467 189.844L231.467 189.844L229.78 190.918ZM229.781 190.919L229.781 190.92L231.466 189.842L231.465 189.841L229.781 190.919ZM229.784 190.924L229.784 190.924L231.462 189.837L231.462 189.836L229.784 190.924ZM217.603 170.771C217.808 171.348 218.338 172.344 219.044 173.575C219.766 174.838 220.723 176.429 221.833 178.238C224.053 181.856 226.907 186.371 229.778 190.914L231.468 189.846C228.595 185.299 225.749 180.796 223.537 177.191C222.431 175.389 221.487 173.818 220.779 172.581C220.053 171.314 219.621 170.477 219.487 170.099L217.603 170.771Z" fill="#1C2A47" mask="url(#path-54-inside-1_1210_1172)"/>
<path d="M382.317 91.745C370.424 91.745 360.75 78.1927 360.75 61.5289C360.75 44.865 370.424 31.3128 382.317 31.3128C394.209 31.3128 403.883 44.865 403.883 61.5289C403.883 78.1868 394.209 91.745 382.317 91.745ZM382.317 34.2832C372.066 34.2832 363.722 46.5061 363.722 61.523C363.722 76.5457 372.06 88.7628 382.317 88.7628C392.568 88.7628 400.912 76.5399 400.912 61.523C400.912 46.5061 392.568 34.2832 382.317 34.2832Z" fill="#1C2A47"/>
<path d="M383.265 115.326V90.2568H380.287V114.161C380.287 118.62 379.799 123.132 378.204 127.296C377.945 127.961 377.875 128.72 378.039 129.508C378.345 130.943 379.51 132.102 380.946 132.402C383.418 132.919 385.601 131.049 385.601 128.667C385.601 128.272 385.542 127.89 385.43 127.531C384.189 123.555 383.265 119.491 383.265 115.326Z" fill="#1C2A47"/>
<path d="M302.442 201.745C302.442 201.745 313.522 215.162 318.518 230.861C323.514 246.561 320.289 279 320.289 279H283.164C283.164 279 282.805 249.025 281.381 248.666C279.951 248.307 271.743 279 271.743 279H232.476C232.476 279 222.66 230.114 250.411 201.745L276.38 203.351L302.442 201.745Z" fill="#3A6B5F"/>
<path d="M302.442 194.787V201.745C302.442 201.745 289.232 214.592 250.412 201.745L250.324 194.787L284.418 192.646L302.442 194.787Z" fill="#1C2A47"/>
<path d="M289.242 110.862C289.242 110.862 303 110.35 309.979 115.167C314.975 118.614 325.997 138.048 325.997 138.048L313.339 148.801C313.339 148.801 316.358 160.53 304.571 166.412L302.435 194.781C302.435 194.781 280.304 207.627 250.316 194.781C250.316 194.781 244.603 141.613 239.248 146.248C233.893 150.889 230.68 154.989 230.68 154.989L210.69 135.184C210.69 135.184 232.487 113.362 239.695 109.938C256.619 101.909 270.3 109.632 270.3 109.632L289.242 110.862Z" fill="#6C8AC5"/>
<mask id="path-61-inside-2_1210_1172" fill="white">
<path fill-rule="evenodd" clip-rule="evenodd" d="M256.661 58.5173C257.338 47.1649 266.547 37.9419 277.904 37.2772C291.109 36.5008 302.019 47.0179 301.93 60.029C301.925 60.3119 301.914 60.5893 301.902 60.8718L301.901 60.9054L301.924 60.8995C301.92 61.6003 301.93 62.4515 301.942 63.4216C302.059 73.2168 302.322 95.1307 289.338 96.5918L289.243 110.862C289.243 110.862 283.441 116.32 270.301 109.644L271.155 103.944C272.002 98.2976 270.548 92.6038 267.324 87.8923C266.081 86.0779 264.936 84.0008 263.818 81.6721C259.002 82.8183 254.942 76.7334 257.421 74.2871C258.228 73.4923 259.186 73.1589 260.14 73.0873C259.615 71.7652 259.079 70.3923 258.527 68.9697C257.132 65.7993 256.438 62.2524 256.661 58.5173Z"/>
</mask>
<path fill-rule="evenodd" clip-rule="evenodd" d="M256.661 58.5173C257.338 47.1649 266.547 37.9419 277.904 37.2772C291.109 36.5008 302.019 47.0179 301.93 60.029C301.925 60.3119 301.914 60.5893 301.902 60.8718L301.901 60.9054L301.924 60.8995C301.92 61.6003 301.93 62.4515 301.942 63.4216C302.059 73.2168 302.322 95.1307 289.338 96.5918L289.243 110.862C289.243 110.862 283.441 116.32 270.301 109.644L271.155 103.944C272.002 98.2976 270.548 92.6038 267.324 87.8923C266.081 86.0779 264.936 84.0008 263.818 81.6721C259.002 82.8183 254.942 76.7334 257.421 74.2871C258.228 73.4923 259.186 73.1589 260.14 73.0873C259.615 71.7652 259.079 70.3923 258.527 68.9697C257.132 65.7993 256.438 62.2524 256.661 58.5173Z" fill="#B5C4E2"/>
<path d="M277.904 37.2772L277.962 38.2755L277.963 38.2755L277.904 37.2772ZM256.661 58.5173L257.659 58.5771L257.659 58.5768L256.661 58.5173ZM301.93 60.029L302.93 60.049L302.93 60.0358L301.93 60.029ZM301.902 60.8718L302.901 60.9119L302.901 60.9118L301.902 60.8718ZM301.901 60.9054L300.902 60.8653L300.848 62.1989L302.143 61.8756L301.901 60.9054ZM301.924 60.8995L302.924 60.9056L302.932 59.6172L301.682 59.9293L301.924 60.8995ZM301.942 63.4216L302.942 63.4096L302.942 63.4096L301.942 63.4216ZM289.338 96.5918L289.226 95.5981L288.343 95.6974L288.338 96.5852L289.338 96.5918ZM289.243 110.862L289.929 111.59L290.241 111.297L290.243 110.868L289.243 110.862ZM270.301 109.644L269.312 109.496L269.206 110.209L269.848 110.536L270.301 109.644ZM271.155 103.944L270.166 103.796L270.166 103.796L271.155 103.944ZM267.324 87.8923L268.149 87.3275L268.149 87.3271L267.324 87.8923ZM263.818 81.6721L264.72 81.2396L264.371 80.5126L263.587 80.6993L263.818 81.6721ZM257.421 74.2871L256.719 73.5743L256.718 73.5753L257.421 74.2871ZM260.14 73.0873L260.215 74.0845L261.572 73.9827L261.07 72.7181L260.14 73.0873ZM258.527 68.9697L259.459 68.6075L259.451 68.5871L259.442 68.5671L258.527 68.9697ZM277.846 36.2789C265.981 36.9733 256.37 46.6009 255.663 58.4578L257.659 58.5768C258.306 47.729 267.113 38.9105 277.962 38.2755L277.846 36.2789ZM302.93 60.0358C303.022 46.4496 291.63 35.4684 277.845 36.2789L277.963 38.2755C290.587 37.5332 301.015 47.5862 300.93 60.0222L302.93 60.0358ZM302.901 60.9118C302.913 60.6309 302.924 60.3435 302.93 60.049L300.931 60.009C300.925 60.2802 300.914 60.5477 300.903 60.8317L302.901 60.9118ZM302.9 60.9455L302.901 60.9119L300.903 60.8317L300.902 60.8653L302.9 60.9455ZM301.682 59.9293L301.659 59.9352L302.143 61.8756L302.167 61.8698L301.682 59.9293ZM302.942 63.4096C302.93 62.4364 302.92 61.5953 302.924 60.9056L300.924 60.8935C300.92 61.6052 300.931 62.4665 300.942 63.4335L302.942 63.4096ZM289.449 97.5855C296.642 96.7762 299.973 90.2926 301.529 83.3506C303.101 76.3327 303 68.2887 302.942 63.4096L300.942 63.4335C301.001 68.3496 301.09 76.1602 299.577 82.9133C298.047 89.7424 295.018 94.9463 289.226 95.5981L289.449 97.5855ZM290.243 110.868L290.338 96.5984L288.338 96.5852L288.243 110.855L290.243 110.868ZM269.848 110.536C276.576 113.954 281.529 114.315 284.869 113.742C286.532 113.457 287.772 112.944 288.609 112.489C289.027 112.261 289.344 112.049 289.563 111.887C289.672 111.807 289.757 111.738 289.818 111.687C289.848 111.662 289.873 111.641 289.891 111.624C289.9 111.616 289.908 111.609 289.914 111.603C289.917 111.6 289.92 111.598 289.923 111.596C289.924 111.595 289.925 111.594 289.926 111.593C289.926 111.592 289.927 111.591 289.927 111.591C289.928 111.591 289.929 111.59 289.243 110.862C288.558 110.133 288.559 110.133 288.559 110.132C288.56 110.132 288.56 110.132 288.56 110.131C288.561 110.131 288.562 110.13 288.562 110.13C288.563 110.129 288.564 110.128 288.564 110.128C288.565 110.127 288.564 110.128 288.562 110.13C288.557 110.134 288.548 110.142 288.532 110.155C288.502 110.181 288.449 110.224 288.374 110.279C288.224 110.39 287.985 110.552 287.654 110.732C286.993 111.091 285.96 111.526 284.531 111.771C281.685 112.259 277.167 112.011 270.754 108.753L269.848 110.536ZM270.166 103.796L269.312 109.496L271.29 109.792L272.144 104.092L270.166 103.796ZM266.499 88.4571C269.591 92.9754 270.973 98.4169 270.166 103.796L272.143 104.093C273.031 98.1783 271.506 92.2322 268.149 87.3275L266.499 88.4571ZM262.917 82.1047C264.048 84.4623 265.218 86.5877 266.499 88.4574L268.149 87.3271C266.944 85.5681 265.823 83.5393 264.72 81.2396L262.917 82.1047ZM256.718 73.5753C255.828 74.4546 255.57 75.6289 255.705 76.753C255.838 77.8646 256.353 78.9853 257.094 79.94C258.564 81.8339 261.151 83.3348 264.05 82.645L263.587 80.6993C261.669 81.1556 259.818 80.1871 258.674 78.7135C258.108 77.9845 257.772 77.197 257.69 76.5154C257.61 75.8463 257.775 75.3427 258.123 74.9988L256.718 73.5753ZM260.065 72.0901C258.921 72.176 257.726 72.5839 256.719 73.5743L258.122 74.9998C258.731 74.4007 259.451 74.1419 260.215 74.0845L260.065 72.0901ZM257.594 69.3319C258.147 70.755 258.684 72.1308 259.211 73.4566L261.07 72.7181C260.546 71.3997 260.011 70.0297 259.459 68.6075L257.594 69.3319ZM255.663 58.4575C255.43 62.356 256.155 66.061 257.611 69.3724L259.442 68.5671C258.109 65.5375 257.446 62.1488 257.659 58.5771L255.663 58.4575Z" fill="#1C2A47" mask="url(#path-61-inside-2_1210_1172)"/>
<path d="M297.288 71.3284C297.4 70.2402 296.611 69.2696 295.523 69.1579C294.434 69.0461 293.463 69.8343 293.351 70.9225C293.239 72.0107 294.028 72.9812 295.116 73.093C296.199 73.2047 297.17 72.4165 297.288 71.3284Z" fill="#1C2A47"/>
<path d="M278.611 73.2989C278.723 72.2107 277.934 71.2401 276.846 71.1284C275.757 71.0166 274.786 71.8048 274.674 72.893C274.563 73.9812 275.351 74.9517 276.44 75.0635C277.528 75.1752 278.499 74.387 278.611 73.2989Z" fill="#1C2A47"/>
<path d="M294.275 83.9042C294.275 83.9042 291.556 82.3631 290.562 82.6925C289.567 83.0219 289.073 84.263 289.073 84.263C289.073 84.263 288.414 83.0748 287.184 83.116C285.954 83.1572 281.97 85.6688 281.97 85.6688C281.97 85.6688 286.084 90.7039 289.767 89.851C293.522 88.9804 294.275 83.9042 294.275 83.9042Z" fill="#6C8AC5"/>
<path d="M271.942 69.6696C271.707 69.6873 271.465 69.6049 271.289 69.4226C270.971 69.0991 270.983 68.5756 271.307 68.258C271.407 68.1638 273.76 65.9463 277.438 65.8287C277.891 65.8169 278.274 66.1698 278.286 66.6227C278.297 67.0757 277.909 67.4639 277.491 67.4698C274.425 67.5639 272.472 69.4167 272.448 69.4344C272.307 69.5755 272.125 69.652 271.942 69.6696Z" fill="#1C2A47"/>
<path d="M292.268 64.8699C292.062 64.7581 291.903 64.5581 291.85 64.3111C291.762 63.864 292.044 63.4346 292.491 63.3405C292.627 63.3111 295.775 62.6935 298.964 64.5934C299.353 64.8287 299.482 65.3287 299.253 65.7169C299.023 66.1051 298.499 66.2286 298.129 66.0051C295.492 64.4346 292.85 64.9463 292.821 64.9463C292.621 64.9934 292.432 64.9581 292.268 64.8699Z" fill="#1C2A47"/>
<path d="M287.46 80.8867C289.796 80.5455 290.584 78.7986 290.667 77.7868C290.679 77.6104 290.626 77.4339 290.514 77.2986C288.431 74.7282 288.672 70.9872 288.678 70.946C288.707 70.5637 288.419 70.2343 288.036 70.2049C287.66 70.1755 287.324 70.4637 287.295 70.846C287.283 71.0166 287.018 74.9399 289.243 77.9163C289.102 78.4633 288.531 79.675 286.312 79.5515C285.924 79.5338 285.6 79.822 285.583 80.2044C285.559 80.5867 285.853 80.9102 286.236 80.9337C286.683 80.9573 287.089 80.9396 287.46 80.8867Z" fill="#1C2A47"/>
<path d="M281.97 85.6747C281.97 85.6747 289.497 84.9982 294.275 83.9042C294.275 83.9042 292.233 87.8334 289.355 87.9922C286.478 88.1451 281.97 85.6747 281.97 85.6747Z" fill="white"/>
<path d="M275.968 60.1701C271.954 64.8522 267.688 69.4402 264.681 74.7988C264.346 75.387 261.986 79.8221 262.657 80.3397C258.997 77.5222 256.672 73.34 254.719 69.1638C251.329 61.9171 252.389 53.247 256.637 46.5885C260.839 40.0065 267.835 36.6184 275.515 36.042C283.753 35.4243 292.715 38.2477 297.699 45.1474C302.377 51.6235 302.542 59.776 303.03 67.4227C302.477 58.8349 290.979 52.3588 284.082 49.2825C284.282 49.3707 278.886 56.6644 278.604 57.0173C277.745 58.082 276.862 59.129 275.968 60.1701Z" fill="#1C2A47"/>
<path d="M268.347 162.506C258.308 162.506 254.118 152.471 254.077 152.371C254 152.183 254.089 151.965 254.283 151.889C254.471 151.807 254.689 151.901 254.765 152.095C254.806 152.195 258.808 161.765 268.347 161.765C277.897 161.765 281.598 154.812 281.634 154.742C281.728 154.559 281.951 154.489 282.134 154.583C282.316 154.677 282.387 154.9 282.293 155.083C282.263 155.153 278.368 162.506 268.347 162.506Z" fill="#95E7D4"/>
<path d="M313.346 149.177C313.164 149.177 312.999 149.036 312.975 148.848C312.969 148.783 312.104 142.078 306.914 137.201C306.767 137.06 306.755 136.825 306.897 136.678C307.038 136.531 307.273 136.519 307.42 136.66C312.811 141.731 313.676 148.477 313.705 148.766C313.729 148.971 313.587 149.154 313.381 149.177C313.376 149.177 313.358 149.177 313.346 149.177Z" fill="#95E7D4"/>
<path d="M280.262 78.7398C280.262 79.9574 278.762 80.9456 276.914 80.9456C275.066 80.9456 273.566 79.9574 273.566 78.7398C273.566 77.5222 275.066 76.534 276.914 76.534C278.762 76.534 280.262 77.5222 280.262 78.7398Z" fill="#91A7D3"/>
<path d="M299.369 77.0281C299.369 78.2457 297.868 79.2339 296.021 79.2339C294.173 79.2339 292.672 78.2457 292.672 77.0281C292.672 75.8105 294.173 74.8223 296.021 74.8223C297.868 74.8223 299.369 75.8046 299.369 77.0281Z" fill="#91A7D3"/>
<path d="M388.743 113.162L389.082 113.529L388.41 112.788L388.743 113.162ZM388.743 113.162L389.082 113.529L389.081 113.529L389.081 113.53L389.077 113.533L389.063 113.547L389.006 113.6C388.956 113.646 388.882 113.715 388.789 113.803C388.602 113.979 388.336 114.232 388.02 114.539C387.388 115.154 386.558 115.983 385.763 116.843C384.964 117.708 384.216 118.587 383.737 119.305C383.495 119.668 383.341 119.96 383.275 120.171C383.257 120.227 383.248 120.268 383.244 120.296C383.275 120.299 383.323 120.299 383.395 120.289C383.59 120.262 383.86 120.174 384.197 120.02C384.867 119.713 385.685 119.199 386.493 118.635C387.295 118.075 388.067 117.48 388.64 117.024C388.926 116.796 389.161 116.604 389.324 116.469C389.406 116.401 389.47 116.348 389.513 116.312L389.54 116.289C390.134 115.524 390.378 114.949 390.452 114.512C390.525 114.082 390.44 113.743 390.29 113.428C390.212 113.265 390.117 113.108 390.011 112.943C389.986 112.905 389.961 112.866 389.934 112.826C389.852 112.699 389.763 112.563 389.687 112.431C389.481 112.075 389.285 111.618 389.423 111.069C389.471 110.879 389.431 110.637 389.27 110.336C389.11 110.037 388.858 109.731 388.574 109.447C388.293 109.166 387.999 108.925 387.773 108.752C387.661 108.666 387.567 108.598 387.501 108.553C387.469 108.53 387.443 108.513 387.427 108.501L387.408 108.489L387.404 108.486L387.404 108.486L387.404 108.486L387.404 108.486L387.404 108.486L387.198 108.351L387.179 108.106C387.152 107.744 386.893 107.424 386.543 107.164C386.377 107.04 386.21 106.946 386.084 106.882C386.022 106.85 385.971 106.827 385.937 106.812C385.92 106.805 385.907 106.799 385.899 106.796L385.892 106.793L385.892 106.793L385.892 106.793L385.892 106.793L385.891 106.793L385.891 106.793L385.643 106.698L385.584 106.439L385.584 106.439L385.584 106.439L385.584 106.438L385.584 106.438L385.583 106.435L385.579 106.418C385.575 106.401 385.568 106.376 385.559 106.344C385.542 106.279 385.514 106.186 385.477 106.076C385.401 105.853 385.289 105.578 385.143 105.336C384.991 105.085 384.834 104.925 384.691 104.857C384.587 104.807 384.441 104.779 384.19 104.928L384.188 104.929L384.188 104.929C384.063 105.002 383.842 105.19 383.534 105.513C383.237 105.824 382.888 106.229 382.511 106.699C381.758 107.638 380.909 108.816 380.16 109.985C379.407 111.158 378.769 112.298 378.424 113.162C378.249 113.602 378.169 113.925 378.163 114.128C378.162 114.156 378.163 114.178 378.164 114.196C378.223 114.193 378.328 114.172 378.493 114.088C378.729 113.969 379.013 113.762 379.337 113.474C379.955 112.922 380.645 112.137 381.305 111.31C381.897 110.45 382.477 109.64 382.94 109.002C383.234 108.596 383.481 108.26 383.655 108.025C383.742 107.908 383.81 107.816 383.857 107.753L383.911 107.681L383.925 107.662L383.928 107.657L383.929 107.656L383.93 107.656C383.93 107.656 383.93 107.656 384.329 107.956M388.743 113.162L388.41 112.788L388.41 112.789L388.409 112.789L388.405 112.793L388.389 112.807L388.326 112.863C388.271 112.911 388.19 112.983 388.086 113.074C387.878 113.256 387.58 113.515 387.22 113.824C386.498 114.441 385.528 115.253 384.532 116.037C383.533 116.823 382.521 117.569 381.711 118.062C381.315 118.303 380.991 118.469 380.752 118.553C380.838 118.325 381.001 118.018 381.237 117.644C381.731 116.86 382.481 115.881 383.272 114.915C384.06 113.952 384.876 113.014 385.497 112.317C385.807 111.968 386.068 111.68 386.251 111.48C386.342 111.379 386.414 111.301 386.463 111.247L386.519 111.187L386.533 111.171L386.536 111.169L386.536 111.169L386.537 111.168L386.538 111.167L386.538 111.167L386.171 110.826M386.171 110.826L386.538 111.167L385.807 110.484L386.171 110.826ZM386.171 110.826L385.807 110.484L385.806 110.485L385.806 110.485L385.805 110.486L385.804 110.487L385.802 110.489L385.788 110.504L385.733 110.562C385.685 110.613 385.614 110.688 385.523 110.783C385.342 110.974 385.081 111.246 384.766 111.569C384.135 112.217 383.288 113.072 382.416 113.904C381.542 114.739 380.655 115.538 379.944 116.082C379.699 116.27 379.484 116.419 379.306 116.528C379.398 116.295 379.539 116.005 379.722 115.666C380.195 114.791 380.907 113.678 381.652 112.575C381.804 112.35 381.957 112.126 382.109 111.906C382.13 111.879 382.152 111.852 382.173 111.825C382.872 110.941 383.516 110.042 383.984 109.365C384.218 109.027 384.409 108.743 384.542 108.543C384.608 108.443 384.66 108.365 384.695 108.311L384.735 108.249L384.746 108.233L384.749 108.228L384.749 108.227L384.75 108.227C384.75 108.227 384.75 108.227 384.329 107.956M384.329 107.956L384.75 108.227L383.93 107.656L384.329 107.956ZM383.193 120.286C383.193 120.286 383.194 120.286 383.195 120.286L383.193 120.286ZM383.24 120.348C383.241 120.352 383.242 120.354 383.241 120.354C383.241 120.354 383.241 120.352 383.24 120.348ZM379.181 116.968C379.181 116.968 379.181 116.967 379.181 116.964L379.181 116.968Z" fill="#91A7D3" stroke="#1C2A47"/>
<path d="M284.123 210.339C280.51 210.339 277.574 207.404 277.574 203.792C277.574 200.181 280.51 197.245 284.123 197.245C287.736 197.245 290.673 200.181 290.673 203.792C290.667 207.398 287.73 210.339 284.123 210.339ZM284.123 200.216C282.152 200.216 280.551 201.822 280.551 203.786C280.551 205.757 282.158 207.357 284.123 207.357C286.094 207.357 287.695 205.757 287.695 203.786C287.695 201.822 286.089 200.216 284.123 200.216Z" fill="#7BE1C9"/>
<path d="M232.897 46.5198L236.651 40.7347L232.897 31.5134L229.143 40.7347L232.897 46.5198Z" fill="white"/>
<path d="M313.951 19.5083L310.226 25.3167L314.031 34.5147L317.734 25.2701L313.951 19.5083Z" fill="white"/>
<path d="M340.979 81.0345L337.253 86.8406L341.058 96.0409L344.761 86.7999L340.979 81.0345Z" fill="white"/>
<path d="M186.318 55.5236L182.596 61.3297L186.398 70.53L190.103 61.2891L186.318 55.5236Z" fill="white"/>
</svg>
