<svg width="25" height="24" viewBox="0 0 25 24" fill="none" xmlns="http://www.w3.org/2000/svg">
<path d="M10.0557 18C11.9017 18 13.5987 17.365 14.9527 16.312L19.3487 20.708L20.7627 19.294L16.3667 14.898C17.4207 13.543 18.0557 11.846 18.0557 10C18.0557 5.589 14.4667 2 10.0557 2C5.64466 2 2.05566 5.589 2.05566 10C2.05566 14.411 5.64466 18 10.0557 18ZM10.0557 4C13.3647 4 16.0557 6.691 16.0557 10C16.0557 13.309 13.3647 16 10.0557 16C6.74666 16 4.05566 13.309 4.05566 10C4.05566 6.691 6.74666 4 10.0557 4Z" fill="#414141"/>
<path d="M11.4677 8.58596C11.8467 8.96596 12.0557 9.46796 12.0557 9.99996H14.0557C14.0557 8.93496 13.6397 7.93096 12.8817 7.17196C11.3677 5.65996 8.74274 5.65996 7.22974 7.17196L8.64174 8.58796C9.40174 7.82996 10.7117 7.83196 11.4677 8.58596Z" fill="#414141"/>
</svg>
