<svg width="178" height="38" viewBox="0 0 178 38" fill="none" xmlns="http://www.w3.org/2000/svg">
<path fill-rule="evenodd" clip-rule="evenodd" d="M8.93222 11.666V14.0237H0.125V1.82947H3.09293V11.666H8.93222Z" fill="#87A2B1"/>
<path fill-rule="evenodd" clip-rule="evenodd" d="M13.9325 12.1936C14.2106 12.1936 14.4778 12.1892 14.7307 12.1765C14.9851 12.165 15.1886 12.1473 15.3402 12.1236V10.1348C15.2258 10.1117 15.0551 10.0882 14.827 10.0657C14.5994 10.0414 14.3881 10.029 14.1994 10.029C13.9325 10.029 13.6824 10.0449 13.4468 10.0744C13.2136 10.1024 13.0067 10.1591 12.8282 10.2406C12.6507 10.3219 12.5122 10.4344 12.4116 10.5758C12.31 10.7163 12.2582 10.8912 12.2582 11.1023C12.2582 11.5129 12.4079 11.7986 12.7057 11.9556C13.0026 12.1155 13.4121 12.1936 13.9325 12.1936ZM13.7046 4.52075C14.5416 4.52075 15.2389 4.60923 15.7962 4.78417C16.3547 4.96143 16.802 5.21386 17.1373 5.54118C17.4746 5.86909 17.7118 6.26957 17.8509 6.73829C17.9906 7.20788 18.06 7.73009 18.06 8.3032V13.7604C17.6543 13.8423 17.0895 13.9394 16.3678 14.0502C15.6446 14.1606 14.7698 14.2176 13.7418 14.2176C13.0955 14.2176 12.5091 14.1653 11.9822 14.0594C11.4559 13.9536 11.0027 13.7807 10.622 13.5392C10.2426 13.301 9.95034 12.9861 9.7475 12.5986C9.54528 12.2111 9.44214 11.7361 9.44214 11.1736C9.44214 10.6332 9.56059 10.1755 9.795 9.80016C10.0297 9.42483 10.3435 9.12643 10.737 8.90291C11.1299 8.68055 11.5803 8.51862 12.0878 8.41886C12.5951 8.3191 13.1214 8.2685 13.6656 8.2685C14.0334 8.2685 14.36 8.28527 14.6466 8.31332C14.9314 8.34339 15.1617 8.38098 15.3402 8.42811V8.18146C15.3402 7.73588 15.1945 7.37848 14.9029 7.10725C14.6107 6.83862 14.1034 6.70388 13.3799 6.70388C12.8992 6.70388 12.4232 6.73569 11.9534 6.80075C11.4843 6.86436 11.0796 6.95544 10.737 7.0714L10.3757 4.96143C10.5401 4.914 10.7458 4.86427 10.9933 4.81193C11.2408 4.75728 11.5099 4.71217 11.8022 4.67169C12.0941 4.62947 12.4019 4.59391 12.7242 4.5647C13.048 4.53521 13.374 4.52075 13.7046 4.52075Z" fill="#87A2B1"/>
<path fill-rule="evenodd" clip-rule="evenodd" d="M26.1086 9.11369C26.1086 8.26878 25.9914 7.67138 25.7569 7.31948C25.5225 6.96844 25.1193 6.79177 24.5493 6.79177C24.3717 6.79177 24.187 6.80102 23.9976 6.81808C23.8076 6.83543 23.6238 6.85567 23.4466 6.88025V14.0238H20.6118V5.08459C20.8528 5.02705 21.1341 4.96315 21.4576 4.89925C21.781 4.83563 22.1236 4.77693 22.4855 4.72286C22.8478 4.67197 23.2166 4.63004 23.5979 4.60055C23.9782 4.57105 24.3517 4.55688 24.7218 4.55688C25.4431 4.55688 26.0307 4.64103 26.4805 4.8125C26.9302 4.98108 27.3015 5.18522 27.5928 5.41973C27.9985 5.15023 28.4645 4.9377 28.9899 4.78474C29.5172 4.63322 30.0026 4.55688 30.4464 4.55688C31.2449 4.55688 31.9013 4.65954 32.4142 4.86455C32.9274 5.07071 33.3377 5.36045 33.6415 5.73548C33.9453 6.11081 34.1538 6.55813 34.2688 7.07167C34.3848 7.59071 34.4407 8.16526 34.4407 8.79735V14.0238H31.6065V9.11369C31.6065 8.26878 31.489 7.67138 31.2543 7.31948C31.0199 6.96844 30.6167 6.79177 30.0466 6.79177C29.8944 6.79177 29.681 6.82647 29.4097 6.89673C29.1374 6.96844 28.9112 7.0549 28.7339 7.16073C28.8224 7.43167 28.8783 7.7162 28.9058 8.01403C28.9305 8.3136 28.9437 8.63254 28.9437 8.97345V14.0238H26.1086V9.11369Z" fill="#4F667C"/>
<path fill-rule="evenodd" clip-rule="evenodd" d="M42.4294 8.46268C42.4166 8.23974 42.3753 8.02345 42.3056 7.81179C42.2353 7.59984 42.129 7.41333 41.9821 7.24793C41.8359 7.08543 41.6518 6.94895 41.4311 6.84456C41.2076 6.73873 40.9323 6.68581 40.6032 6.68581C40.2863 6.68581 40.014 6.73613 39.7865 6.83531C39.5561 6.93651 39.3667 7.0675 39.2155 7.23145C39.0623 7.39598 38.9451 7.58596 38.8629 7.80254C38.781 8.02027 38.7207 8.23974 38.6816 8.46268H42.4294ZM35.7717 9.46713C35.7717 8.64506 35.9077 7.92679 36.1815 7.31118C36.4534 6.69355 36.8113 6.1829 37.2548 5.77114C37.6989 5.36025 38.209 5.04883 38.7862 4.83688C39.3635 4.62608 39.9555 4.52112 40.5643 4.52112C41.9854 4.52112 43.1078 4.92247 43.9314 5.72632C44.7565 6.53017 45.1684 7.71455 45.1684 9.27224C45.1684 9.4252 45.1634 9.59349 45.149 9.77479C45.1365 9.95522 45.1237 10.118 45.1122 10.2583H38.6815C38.7456 10.7981 39.0178 11.2269 39.5004 11.5424C39.9814 11.8602 40.6278 12.0186 41.4404 12.0186C41.9601 12.0186 42.4699 11.9744 42.9712 11.8856C43.4722 11.7989 43.881 11.6896 44.1983 11.56L44.5786 13.6894C44.4258 13.7608 44.2239 13.8293 43.9701 13.901C43.7163 13.971 43.4344 14.0326 43.1234 14.0852C42.8128 14.1384 42.4808 14.1821 42.1248 14.218C41.7695 14.2535 41.4151 14.27 41.0597 14.27C40.1589 14.27 39.376 14.1477 38.7112 13.901C38.0461 13.6541 37.4929 13.3181 37.0569 12.8887C36.6178 12.4613 36.2956 11.9536 36.0858 11.3677C35.8767 10.7808 35.7717 10.1475 35.7717 9.46713Z" fill="#4F667C"/>
<path fill-rule="evenodd" clip-rule="evenodd" d="M46.5942 5.08459C47.0771 4.9539 47.6985 4.83563 48.4589 4.72286C49.2193 4.61298 50.0191 4.55688 50.8558 4.55688C51.7056 4.55688 52.4126 4.65954 52.9771 4.86455C53.5412 5.07071 53.9888 5.36045 54.3179 5.73548C54.6473 6.11081 54.883 6.55813 55.0208 7.07196C55.1621 7.59071 55.2311 8.16526 55.2311 8.79735V14.0241H52.3967V9.11369C52.3967 8.26878 52.276 7.67138 52.0341 7.31948C51.7941 6.96844 51.3434 6.79177 50.6848 6.79177C50.482 6.79177 50.266 6.80102 50.0379 6.81808C49.8103 6.83543 49.6059 6.85567 49.4293 6.88025V14.0241H46.5942V5.08459Z" fill="#4F667C"/>
<path fill-rule="evenodd" clip-rule="evenodd" d="M56.9426 2.46233L59.7768 2.04016V4.76777H63.1813V6.94887H59.7768V10.2065C59.7768 10.7573 59.8812 11.1971 60.0915 11.5248C60.3006 11.8544 60.7226 12.0186 61.3561 12.0186C61.6614 12.0186 61.974 11.9917 62.2975 11.9385C62.621 11.8856 62.9163 11.8131 63.1813 11.7173L63.582 13.7608C63.2385 13.8898 62.8597 14.0011 62.4397 14.0951C62.0221 14.1882 61.5077 14.2347 60.8998 14.2347C60.1262 14.2347 59.4846 14.1384 58.9773 13.9444C58.47 13.7507 58.0653 13.4818 57.7612 13.1365C57.4577 12.789 57.2455 12.3697 57.1242 11.8781C57.0033 11.3842 56.9426 10.8392 56.9426 10.2409V2.46233Z" fill="#4F667C"/>
<path fill-rule="evenodd" clip-rule="evenodd" d="M70.5227 8.46268C70.5108 8.23974 70.4689 8.02345 70.3999 7.81179C70.3308 7.59984 70.2233 7.41333 70.0776 7.24793C69.931 7.08543 69.7466 6.94895 69.5263 6.84456C69.3022 6.73873 69.0272 6.68581 68.6971 6.68581C68.3814 6.68581 68.1089 6.73613 67.8798 6.83531C67.6516 6.93651 67.4607 7.0675 67.3094 7.23145C67.1563 7.39598 67.0397 7.58596 66.9575 7.80254C66.875 8.02027 66.8143 8.23974 66.7774 8.46268H70.5227ZM63.8662 9.46713C63.8662 8.64506 64.0028 7.92679 64.2756 7.31118C64.5469 6.69355 64.9064 6.1829 65.3499 5.77114C65.7943 5.36025 66.3053 5.04883 66.8801 4.83688C67.4592 4.62608 68.0518 4.52112 68.661 4.52112C70.0784 4.52112 71.202 4.92247 72.0262 5.72632C72.8519 6.53017 73.2632 7.71455 73.2632 9.27224C73.2632 9.4252 73.2566 9.59349 73.2432 9.77479C73.2313 9.95522 73.2188 10.118 73.2066 10.2583H66.7776C66.8398 10.7981 67.1123 11.2269 67.5955 11.5424C68.0771 11.8602 68.7235 12.0186 69.5364 12.0186C70.054 12.0186 70.5666 11.9744 71.0666 11.8856C71.5664 11.7989 71.9765 11.6896 72.2921 11.56L72.6734 13.6894C72.5219 13.7608 72.319 13.8293 72.0649 13.901C71.8114 13.971 71.5295 14.0326 71.2182 14.0852C70.9082 14.1384 70.575 14.1821 70.219 14.218C69.8652 14.2535 69.5086 14.27 69.1542 14.27C68.2537 14.27 67.4708 14.1477 66.806 13.901C66.1397 13.6541 65.589 13.3181 65.1498 12.8887C64.7138 12.4613 64.3903 11.9536 64.18 11.3677C63.9715 10.7808 63.8662 10.1475 63.8662 9.46713Z" fill="#4F667C"/>
<path fill-rule="evenodd" clip-rule="evenodd" d="M81.4744 8.46268C81.4625 8.23974 81.4206 8.02345 81.3516 7.81179C81.2819 7.59984 81.174 7.41333 81.0281 7.24793C80.8824 7.08543 80.6984 6.94895 80.4761 6.84456C80.2539 6.73873 79.9795 6.68581 79.6498 6.68581C79.3325 6.68581 79.0587 6.73613 78.8315 6.83531C78.6027 6.93651 78.4124 7.0675 78.2611 7.23145C78.1095 7.39598 77.9908 7.58596 77.9073 7.80254C77.8261 8.02027 77.7661 8.23974 77.7282 8.46268H81.4744ZM74.8179 9.46713C74.8179 8.64506 74.9532 7.92679 75.227 7.31118C75.4986 6.69355 75.8574 6.1829 76.3009 5.77114C76.7444 5.36025 77.2551 5.04883 77.8324 4.83688C78.409 4.62608 79.0035 4.52112 79.612 4.52112C81.031 4.52112 82.1546 4.92247 82.9778 5.72632C83.8026 6.53017 84.2133 7.71455 84.2133 9.27224C84.2133 9.4252 84.2074 9.59349 84.1964 9.77479C84.1833 9.95522 84.1695 10.118 84.1577 10.2583H77.7283C77.7914 10.7981 78.0624 11.2269 78.5462 11.5424C79.0279 11.8602 79.6748 12.0186 80.4865 12.0186C81.0047 12.0186 81.5167 11.9744 82.018 11.8856C82.5181 11.7989 82.9272 11.6896 83.2444 11.56L83.6251 13.6894C83.4729 13.7608 83.2691 13.8293 83.0147 13.901C82.7622 13.971 82.4787 14.0326 82.1689 14.0852C81.8586 14.1384 81.526 14.1821 81.1716 14.218C80.8162 14.2535 80.4603 14.27 80.1058 14.27C79.2054 14.27 78.4228 14.1477 77.7567 13.901C77.0913 13.6541 76.5387 13.3181 76.1015 12.8887C75.6636 12.4613 75.3414 11.9536 75.1317 11.3677C74.9213 10.7808 74.8179 10.1475 74.8179 9.46713Z" fill="#87A2B1"/>
<path fill-rule="evenodd" clip-rule="evenodd" d="M88.5133 12.1408C89.0327 12.1408 89.4012 12.094 89.6169 11.9994C89.8316 11.906 89.9391 11.7236 89.9391 11.4547C89.9391 11.2433 89.8003 11.0585 89.5209 10.9015C89.2421 10.7425 88.8171 10.5632 88.2467 10.364C87.8019 10.2113 87.4006 10.0525 87.0387 9.88917C86.6774 9.72493 86.3705 9.52744 86.1154 9.29872C85.8623 9.06999 85.6669 8.79732 85.5263 8.47925C85.3866 8.16494 85.3175 7.78209 85.3175 7.33708C85.3175 6.46904 85.6669 5.78229 86.3639 5.27772C87.0615 4.77285 88.0191 4.521 89.2365 4.521C89.845 4.521 90.4279 4.57073 90.9855 4.67165C91.544 4.77054 91.9875 4.87839 92.3188 4.99724L91.8225 7.03723C91.4931 6.9314 91.1352 6.83887 90.748 6.75733C90.3607 6.67463 89.9285 6.63386 89.4443 6.63386C88.558 6.63386 88.1151 6.86084 88.1151 7.31916C88.1151 7.42499 88.1329 7.51838 88.1688 7.59964C88.2085 7.68234 88.2854 7.76156 88.3986 7.83877C88.5133 7.91597 88.6674 7.99665 88.8649 8.08571C89.0612 8.17419 89.3121 8.27135 89.6169 8.37833C90.2382 8.59115 90.7508 8.80195 91.1571 9.0084C91.5634 9.21602 91.8834 9.43896 92.1182 9.67867C92.3523 9.91924 92.5173 10.1847 92.6132 10.4767C92.707 10.7702 92.7548 11.11 92.7548 11.4949C92.7548 12.4089 92.3826 13.1002 91.6422 13.569C90.8999 14.0362 89.8503 14.2699 88.4939 14.2699C87.6069 14.2699 86.8677 14.2008 86.2789 14.0597C85.6875 13.918 85.2806 13.8012 85.0515 13.7075L85.5263 11.5784C86.0092 11.7531 86.5023 11.8919 87.0093 11.9913C87.5175 12.0911 88.0191 12.1408 88.5133 12.1408Z" fill="#87A2B1"/>
<path fill-rule="evenodd" clip-rule="evenodd" d="M10.2302 26.819C10.2302 25.2466 10.0115 24.1336 9.57483 23.4787C9.13727 22.8228 8.38966 22.4961 7.32732 22.4961C6.99633 22.4961 6.65566 22.5129 6.30123 22.5458C5.94743 22.5788 5.60457 22.6158 5.27421 22.6603V35.9563H0V19.3191C0.44819 19.2107 0.973267 19.0959 1.57585 18.9762C2.17594 18.8556 2.81385 18.7463 3.48676 18.6477C4.15936 18.5494 4.84977 18.4742 5.55769 18.4184C6.26466 18.3649 6.96164 18.3363 7.64611 18.3363C8.99069 18.3363 10.0833 18.4951 10.9203 18.8123C11.7583 19.128 12.4481 19.5048 12.991 19.942C13.7464 19.4394 14.6137 19.0462 15.5929 18.7628C16.5724 18.4794 17.4744 18.3363 18.3014 18.3363C19.7888 18.3363 21.0096 18.5277 21.9648 18.9109C22.9205 19.2925 23.6819 19.8327 24.2492 20.5316C24.8152 21.2299 25.2037 22.0598 25.4156 23.0192C25.629 23.9815 25.7347 25.0514 25.7347 26.2305V35.9563H20.4605V26.819C20.4605 25.2466 20.242 24.1336 19.8054 23.4787C19.3691 22.8228 18.6202 22.4961 17.5585 22.4961C17.2756 22.4961 16.879 22.5612 16.3714 22.6924C15.8645 22.8228 15.4454 22.9874 15.116 23.1837C15.2804 23.6866 15.386 24.2151 15.4338 24.772C15.4816 25.3295 15.5044 25.9232 15.5044 26.5576V35.9563H10.2302V26.819Z" fill="#4F667C"/>
<path fill-rule="evenodd" clip-rule="evenodd" d="M36.2145 32.5501C36.7327 32.5501 37.2278 32.5394 37.7001 32.5177C38.1729 32.496 38.5496 32.4627 38.833 32.4185V28.7193C38.6199 28.6754 38.3023 28.6317 37.8773 28.5872C37.4531 28.5444 37.0634 28.5218 36.7093 28.5218C36.2145 28.5218 35.747 28.5493 35.31 28.6037C34.8743 28.6583 34.4905 28.7627 34.1605 28.9151C33.8292 29.0678 33.571 29.2748 33.381 29.5373C33.1932 29.7996 33.0981 30.1269 33.0981 30.5193C33.0981 31.2838 33.3757 31.8133 33.9304 32.1079C34.4849 32.4029 35.2453 32.5501 36.2145 32.5501ZM35.7891 18.2705C37.3465 18.2705 38.6426 18.435 39.6828 18.7627C40.7201 19.0897 41.5528 19.5604 42.1785 20.1706C42.8023 20.783 43.2458 21.525 43.5055 22.3988C43.7662 23.2712 43.8959 24.2433 43.8959 25.3123V35.4649C43.1399 35.6181 42.09 35.7971 40.7448 36.0045C39.3999 36.2132 37.7706 36.3176 35.8601 36.3176C34.6561 36.3176 33.5644 36.2184 32.5855 36.0215C31.6051 35.8252 30.7631 35.5036 30.0548 35.0563C29.346 34.609 28.8025 34.0243 28.4258 33.304C28.048 32.5829 27.8589 31.6986 27.8589 30.6504C27.8589 29.6465 28.077 28.7964 28.5143 28.0966C28.9503 27.3971 29.5351 26.8408 30.2671 26.4267C30.9981 26.0115 31.8354 25.7117 32.7805 25.526C33.7235 25.341 34.703 25.2464 35.7178 25.2464C36.402 25.2464 37.0105 25.275 37.5406 25.3294C38.0716 25.3843 38.5017 25.4549 38.833 25.5425V25.0845C38.833 24.254 38.5611 23.5887 38.0191 23.0855C37.4759 22.583 36.532 22.3326 35.1859 22.3326C34.2908 22.3326 33.4038 22.3924 32.5314 22.513C31.6582 22.6327 30.9043 22.8025 30.2671 23.0193L29.5935 19.0897C29.9001 19.0027 30.2836 18.911 30.7449 18.8121C31.2047 18.7129 31.706 18.6262 32.2489 18.5495C32.7918 18.4741 33.3634 18.4079 33.9651 18.3532C34.5683 18.2986 35.175 18.2705 35.7891 18.2705Z" fill="#4F667C"/>
<path fill-rule="evenodd" clip-rule="evenodd" d="M58.48 23.0528C58.0071 22.944 57.4523 22.8295 56.8154 22.7095C56.1775 22.5892 55.4939 22.5294 54.7622 22.5294C54.4309 22.5294 54.0365 22.5566 53.5764 22.6109C53.1158 22.6659 52.7673 22.7249 52.5325 22.7902V35.9563H47.2571V19.6477C48.2013 19.3414 49.3161 19.0526 50.6026 18.7805C51.8893 18.5066 53.323 18.3699 54.9041 18.3699C55.187 18.3699 55.5292 18.3861 55.9299 18.4187C56.3309 18.4514 56.7325 18.4951 57.1338 18.5497C57.5342 18.6044 57.9352 18.6712 58.3381 18.7464C58.7391 18.8218 59.0804 18.9158 59.3639 19.0245L58.48 23.0528Z" fill="#4F667C"/>
<path fill-rule="evenodd" clip-rule="evenodd" d="M67.5408 32.5501C68.0603 32.5501 68.5554 32.5394 69.0279 32.5177C69.4996 32.496 69.8765 32.4627 70.1609 32.4185V28.7193C69.949 28.6754 69.6299 28.6317 69.2048 28.5872C68.7807 28.5444 68.3919 28.5218 68.0365 28.5218C67.5408 28.5218 67.0745 28.5493 66.6376 28.6037C66.2009 28.6583 65.8181 28.7627 65.488 28.9151C65.1574 29.0678 64.8973 29.2748 64.7092 29.5373C64.5213 29.7996 64.4263 30.1269 64.4263 30.5193C64.4263 31.2838 64.7035 31.8133 65.2583 32.1079C65.8128 32.4029 66.5738 32.5501 67.5408 32.5501ZM67.1157 18.2705C68.6744 18.2705 69.9708 18.435 71.011 18.7627C72.0477 19.0897 72.8809 19.5604 73.5057 20.1706C74.1302 20.783 74.5746 21.525 74.8337 22.3988C75.0931 23.2712 75.2229 24.2433 75.2229 25.3123V35.4649C74.4668 35.6181 73.4182 35.7971 72.0715 36.0045C70.7275 36.2132 69.0988 36.3176 67.1867 36.3176C65.9846 36.3176 64.892 36.2184 63.9131 36.0215C62.9329 35.8252 62.09 35.5036 61.3815 35.0563C60.6739 34.609 60.131 34.0243 59.7537 33.304C59.3755 32.5829 59.1868 31.6986 59.1868 30.6504C59.1868 29.6465 59.4046 28.7964 59.8422 28.0966C60.2779 27.3971 60.8629 26.8408 61.5937 26.4267C62.3253 26.0115 63.1633 25.7117 64.1069 25.526C65.0507 25.341 66.0309 25.2464 67.0454 25.2464C67.7302 25.2464 68.3378 25.275 68.8682 25.3294C69.4001 25.3843 69.8293 25.4549 70.1609 25.5425V25.0845C70.1609 24.254 69.8893 23.5887 69.3464 23.0855C68.8041 22.583 67.8599 22.3326 66.5147 22.3326C65.6177 22.3326 64.7319 22.3924 63.8593 22.513C62.987 22.6327 62.2316 22.8025 61.5937 23.0193L60.9214 19.0897C61.2283 19.0027 61.6118 18.911 62.0728 18.8121C62.5323 18.7129 63.0342 18.6262 63.5765 18.5495C64.12 18.4741 64.6913 18.4079 65.2933 18.3532C65.8952 18.2986 66.5031 18.2705 67.1157 18.2705Z" fill="#4F667C"/>
<path fill-rule="evenodd" clip-rule="evenodd" d="M83.2149 35.9563C82.0063 33.7737 80.7808 31.2187 79.5368 28.2922C78.2929 25.3668 77.1146 22.1797 76.002 18.7301H81.595C81.8316 19.5822 82.1097 20.5041 82.4304 21.4967C82.7495 22.4914 83.082 23.4951 83.4252 24.5095C83.7687 25.5261 84.1131 26.5142 84.4572 27.475C84.8007 28.4359 85.1392 29.308 85.4715 30.0945C85.7787 29.308 86.1103 28.4359 86.4654 27.475C86.8207 26.5142 87.1692 25.5261 87.5133 24.5095C87.8568 23.4951 88.1894 22.4914 88.5088 21.4967C88.8288 20.5041 89.1067 19.5822 89.3439 18.7301H94.7988C93.6861 22.1797 92.509 25.3668 91.2664 28.2922C90.024 31.2187 88.7985 33.7737 87.5915 35.9563H83.2149Z" fill="#4F667C"/>
<path fill-rule="evenodd" clip-rule="evenodd" d="M96.1782 35.9564H101.454V18.7302H96.1782V35.9564ZM101.949 13.7516C101.949 14.648 101.636 15.3523 101.011 15.8641C100.386 16.3771 99.649 16.6336 98.7989 16.6336C97.9494 16.6336 97.2115 16.3771 96.5867 15.8641C95.9616 15.3523 95.6484 14.648 95.6484 13.7516C95.6484 12.8566 95.9616 12.1514 96.5867 11.6393C97.2115 11.1272 97.9494 10.8693 98.7989 10.8693C99.649 10.8693 100.386 11.1272 101.011 11.6393C101.636 12.1514 101.949 12.8566 101.949 13.7516Z" fill="#4F667C"/>
<path fill-rule="evenodd" clip-rule="evenodd" d="M112.425 36.2839C110.892 36.2622 109.647 36.1087 108.692 35.825C107.737 35.5416 106.98 35.1432 106.427 34.6288C105.872 34.1173 105.494 33.4947 105.293 32.7631C105.093 32.0316 104.992 31.2072 104.992 30.2903V11.3277L110.268 10.543V29.3077C110.268 29.7444 110.302 30.1376 110.373 30.4866C110.444 30.8368 110.58 31.1314 110.781 31.3714C110.981 31.6126 111.269 31.8072 111.648 31.9613C112.025 32.1131 112.533 32.2114 113.171 32.2557L112.425 36.2839Z" fill="#4F667C"/>
<path fill-rule="evenodd" clip-rule="evenodd" d="M122.196 36.2839C120.662 36.2622 119.418 36.1087 118.461 35.825C117.506 35.5416 116.749 35.1432 116.197 34.6288C115.642 34.1173 115.264 33.4947 115.064 32.7631C114.863 32.0316 114.763 31.2072 114.763 30.2903V11.3277L120.037 10.543V29.3077C120.037 29.7444 120.071 30.1376 120.143 30.4866C120.214 30.8368 120.35 31.1314 120.551 31.3714C120.751 31.6126 121.04 31.8072 121.418 31.9613C121.796 32.1131 122.303 32.2114 122.94 32.2557L122.196 36.2839Z" fill="#4F667C"/>
<path fill-rule="evenodd" clip-rule="evenodd" d="M153.19 32.4514C154.157 32.4514 154.842 32.3649 155.242 32.1903C155.643 32.0151 155.844 31.6768 155.844 31.1751C155.844 30.7812 155.585 30.4386 155.066 30.1428C154.546 29.8481 153.756 29.515 152.694 29.1443C151.868 28.861 151.119 28.5663 150.447 28.2598C149.774 27.9547 149.201 27.5887 148.728 27.1636C148.256 26.7365 147.891 26.2305 147.631 25.6401C147.373 25.0513 147.243 24.3415 147.243 23.5113C147.243 21.8964 147.891 20.6186 149.19 19.6803C150.487 18.7411 152.269 18.2706 154.535 18.2706C155.667 18.2706 156.752 18.3649 157.791 18.5497C158.829 18.7347 159.655 18.9377 160.269 19.1557L159.349 22.9541C158.734 22.7577 158.069 22.5831 157.349 22.4307C156.629 22.2778 155.819 22.2017 154.925 22.2017C153.271 22.2017 152.447 22.6273 152.447 23.4789C152.447 23.6744 152.482 23.8508 152.551 24.0034C152.623 24.1564 152.765 24.3024 152.977 24.4441C153.19 24.5878 153.478 24.7402 153.845 24.905C154.21 25.071 154.677 25.2526 155.242 25.4504C156.399 25.8456 157.354 26.2383 158.109 26.6214C158.865 27.0069 159.461 27.4233 159.897 27.8694C160.333 28.3165 160.641 28.8127 160.818 29.3569C160.994 29.9013 161.084 30.5323 161.084 31.2517C161.084 32.9519 160.393 34.2372 159.013 35.1076C157.632 35.9779 155.679 36.4157 153.154 36.4157C151.502 36.4157 150.128 36.2842 149.03 36.0216C147.934 35.7599 147.172 35.5419 146.747 35.3678L147.631 31.4041C148.528 31.732 149.449 31.9882 150.393 32.1735C151.336 32.3603 152.269 32.4514 153.19 32.4514Z" fill="#4F667C"/>
<path fill-rule="evenodd" clip-rule="evenodd" d="M170.318 32.5501C170.837 32.5501 171.331 32.5394 171.806 32.5177C172.277 32.496 172.654 32.4627 172.938 32.4185V28.7193C172.726 28.6754 172.406 28.6317 171.982 28.5872C171.558 28.5444 171.167 28.5218 170.814 28.5218C170.318 28.5218 169.852 28.5493 169.415 28.6037C168.978 28.6583 168.595 28.7627 168.266 28.9151C167.934 29.0678 167.674 29.2748 167.486 29.5373C167.298 29.7996 167.202 30.1269 167.202 30.5193C167.202 31.2838 167.48 31.8133 168.035 32.1079C168.59 32.4029 169.35 32.5501 170.318 32.5501ZM169.894 18.2705C171.451 18.2705 172.748 18.435 173.788 18.7627C174.824 19.0897 175.658 19.5604 176.282 20.1706C176.907 20.783 177.352 21.525 177.611 22.3988C177.869 23.2712 178 24.2433 178 25.3123V35.4649C177.244 35.6181 176.195 35.7971 174.849 36.0045C173.505 36.2132 171.875 36.3176 169.965 36.3176C168.761 36.3176 167.67 36.2184 166.69 36.0215C165.709 35.8252 164.867 35.5036 164.158 35.0563C163.451 34.609 162.907 34.0243 162.53 33.304C162.153 32.5829 161.964 31.6986 161.964 30.6504C161.964 29.6465 162.182 28.7964 162.62 28.0966C163.056 27.3971 163.641 26.8408 164.37 26.4267C165.103 26.0115 165.941 25.7117 166.884 25.526C167.827 25.341 168.808 25.2464 169.822 25.2464C170.507 25.2464 171.114 25.275 171.646 25.3294C172.177 25.3843 172.606 25.4549 172.938 25.5425V25.0845C172.938 24.254 172.666 23.5887 172.123 23.0855C171.581 22.583 170.638 22.3326 169.292 22.3326C168.394 22.3326 167.509 22.3924 166.636 22.513C165.764 22.6327 165.009 22.8025 164.37 23.0193L163.698 19.0897C164.006 19.0027 164.389 18.911 164.85 18.8121C165.309 18.7129 165.81 18.6262 166.353 18.5495C166.897 18.4741 167.468 18.4079 168.07 18.3532C168.672 18.2986 169.28 18.2705 169.894 18.2705Z" fill="#4F667C"/>
<path fill-rule="evenodd" clip-rule="evenodd" d="M131.933 1.255C131.646 1.255 131.368 1.28941 131.105 1.35476C132.11 2.38618 133.098 4.07081 133.945 6.60786C134.694 6.05789 135.174 5.20921 135.174 4.25529C135.174 2.59987 133.721 1.255 131.933 1.255Z" fill="#992A76"/>
<path fill-rule="evenodd" clip-rule="evenodd" d="M131.105 1.35474C129.714 1.69276 128.688 2.86355 128.688 4.25555C128.688 5.91154 130.143 7.25554 131.932 7.25554C132.692 7.25554 133.391 7.01409 133.945 6.60783C133.098 4.07078 132.11 2.38615 131.105 1.35474Z" fill="#D576AC"/>
<path fill-rule="evenodd" clip-rule="evenodd" d="M149.186 7.02054C147.18 6.94015 145.482 8.3816 145.397 10.2394C145.348 11.2891 145.826 12.2476 146.613 12.8968C149.029 10.6246 151.005 9.56396 152.461 9.25832C151.981 8.00193 150.713 7.07953 149.186 7.02054Z" fill="#D22724"/>
<path fill-rule="evenodd" clip-rule="evenodd" d="M152.461 9.25806C151.005 9.56369 149.029 10.6243 146.613 12.8965C147.219 13.3962 148.004 13.7122 148.877 13.7463C150.885 13.8244 152.582 12.3838 152.667 10.5243C152.687 10.0813 152.614 9.65362 152.461 9.25806Z" fill="#F29325"/>
<path fill-rule="evenodd" clip-rule="evenodd" d="M138.835 6.5313C139.671 7.35482 139.624 8.10546 139.228 8.73033C139.297 8.75346 139.365 8.7711 139.432 8.79568C139.919 8.97785 140.388 9.20137 140.849 9.44368C143.388 7.95453 142.818 5.47212 142.669 4.96784C142.391 4.01449 141.795 3.16582 140.705 3.04437C139.479 2.91049 138.365 3.721 138.22 4.85449C138.138 5.49641 138.389 6.09757 138.838 6.52899L138.835 6.5313Z" fill="#5567A8"/>
<path fill-rule="evenodd" clip-rule="evenodd" d="M144.7 15.994C144.167 14.798 143.354 13.6955 142.258 12.6889C141.18 11.6986 139.993 10.9615 138.698 10.4769C137.476 10.0229 136.233 9.79651 134.963 9.79651C134.883 9.79651 134.804 9.79738 134.725 9.79882C133.373 9.82976 132.023 10.1273 130.674 10.6903C130.648 10.7027 130.62 10.7163 130.594 10.7285L144.443 23.4507C144.455 23.4264 144.471 23.4036 144.483 23.3764C145.091 22.1345 145.413 20.8917 145.447 19.6501C145.481 18.4079 145.231 17.1902 144.7 15.994Z" fill="#4F667C"/>
<mask id="mask0_1214_888" style="mask-type:alpha" maskUnits="userSpaceOnUse" x="124" y="23" width="22" height="16">
<path fill-rule="evenodd" clip-rule="evenodd" d="M124.161 23.105H145.189V38.0001H124.161V23.105Z" fill="white"/>
</mask>
<g mask="url(#mask0_1214_888)">
<path fill-rule="evenodd" clip-rule="evenodd" d="M129.484 31.876H140.199C140.199 31.876 134.793 39.8494 129.484 31.876ZM144.442 23.105H124.925C124.418 24.6997 124.161 25.9269 124.161 27.4522C124.161 29.0081 125.872 38.0003 134.695 38.0003C143.517 38.0003 145.189 28.9653 145.189 27.4094C145.189 25.8832 144.936 24.6997 144.442 23.105Z" fill="#4F667C"/>
</g>
<path fill-rule="evenodd" clip-rule="evenodd" d="M145.924 4.45079C145.789 3.52694 145.636 3.31383 145.199 3.05851C144.63 2.72511 143.876 2.88154 143.515 3.40867C143.154 3.93667 143.324 4.63469 143.894 4.9678C145.051 5.60741 143.815 7.10119 143.801 7.11999C145.292 6.47372 146.057 5.37262 145.924 4.45079Z" fill="#A762A4"/>
<path fill-rule="evenodd" clip-rule="evenodd" d="M153.462 9.16565C153.162 9.15206 152.83 9.1801 152.461 9.25789C152.614 9.65345 152.687 10.0811 152.667 10.5241C152.582 12.3837 150.885 13.8242 148.877 13.7465C148.004 13.7123 147.218 13.396 146.612 12.8963C146.568 12.9388 146.522 12.9819 146.479 13.023C146.202 13.287 145.934 13.5461 145.674 13.8011C145.992 14.2892 146.283 14.7865 146.512 15.3047C146.651 15.6167 146.766 15.9313 146.873 16.2477C148.258 15.4048 149.816 14.6856 151.522 14.2635C156.066 13.1415 156.34 9.27784 153.462 9.16565Z" fill="#ED7226"/>
<path fill-rule="evenodd" clip-rule="evenodd" d="M128.895 9.51451L129.694 9.11836C129.744 9.09176 129.797 9.06747 129.867 9.03711C131.35 8.41889 132.865 8.08087 134.372 8.00858C134.365 7.98429 134.359 7.96261 134.353 7.93832C134.222 7.47075 134.085 7.02719 133.945 6.60791C133.391 7.01418 132.692 7.25562 131.932 7.25562C130.143 7.25562 128.688 5.91162 128.688 4.25563C128.688 2.86363 129.714 1.69284 131.105 1.35482C130.176 0.399157 129.231 0.00012207 128.374 0.00012207C125.169 0.00156785 123.153 5.56261 127.486 8.41427C127.99 8.74593 128.456 9.11721 128.895 9.51451Z" fill="#D35E9E"/>
<path fill-rule="evenodd" clip-rule="evenodd" d="M128.82 14.3914C126.945 14.3914 125.426 15.7967 125.426 17.5307C125.426 18.3236 125.744 19.0485 126.268 19.6011C127.367 18.2597 129.107 17.3942 131.065 17.3942C131.457 17.3942 131.841 17.4278 132.213 17.494C132.191 15.7773 130.68 14.3914 128.82 14.3914Z" fill="#ACCD6C"/>
<path fill-rule="evenodd" clip-rule="evenodd" d="M140.417 22.3075L133.882 16.3035C132.363 17.4826 131.396 19.2491 131.396 21.2266C131.396 21.5965 131.442 21.9553 131.509 22.3075H140.417Z" fill="#F29325"/>
<path fill-rule="evenodd" clip-rule="evenodd" d="M137.033 22.3076C136.798 19.8286 134.421 18.3403 134.421 18.3403C133.765 17.9312 133.017 17.6394 132.212 17.4943V17.531C132.212 19.2645 130.695 20.6701 128.82 20.6701C127.802 20.6701 126.89 20.2563 126.268 19.6013C125.638 20.3702 125.236 21.3001 125.109 22.3076H137.033Z" fill="#38B5AA"/>
<path fill-rule="evenodd" clip-rule="evenodd" d="M131.065 17.3943C129.107 17.3943 127.367 18.2597 126.268 19.6011C126.891 20.2561 127.802 20.6698 128.82 20.6698C130.695 20.6698 132.213 19.2643 132.213 17.5311V17.4943C131.841 17.4278 131.458 17.3943 131.065 17.3943Z" fill="#CEDF9A"/>
<path fill-rule="evenodd" clip-rule="evenodd" d="M132.625 17.5884C132.98 17.1096 133.402 16.677 133.882 16.3034L132.075 14.6437C131.684 14.751 131.33 14.9299 131.015 15.1543C131.733 15.7225 132.201 16.5536 132.213 17.4942C132.352 17.5199 132.489 17.5552 132.625 17.5884Z" fill="#D22724"/>
</svg>
