<svg width="621" height="482" viewBox="0 0 621 482" fill="none" xmlns="http://www.w3.org/2000/svg">
<path d="M191.014 85.4818C69.3708 103.508 9.17903 205.993 1.44509 278.306C-8.00362 366.58 32.9758 413.238 109.44 407.182C192.344 400.602 287.706 391.641 390.592 407.182C493.513 422.723 570.502 436.969 608.297 342.359C646.092 247.75 596.399 67.526 457.153 35.8495C354.582 12.5033 317.697 66.7209 191.014 85.4818Z" fill="#ECF0F7"/>
<path d="M473.671 435.359C473.671 435.359 474.581 370.956 453.269 351.845C431.957 332.734 374.669 247.295 421.003 226.259C467.337 205.223 481.265 282.401 510.976 308.548C540.687 334.694 515.525 432.979 515.525 432.979L473.671 435.359Z" fill="#DAE1F0"/>
<path d="M502.786 448.204L500.686 447.994C500.756 447.224 508.42 371.2 494.597 337.074C488.193 321.288 475.454 306.132 461.911 290.066C445.604 270.711 428.771 250.725 419.987 226.573L421.947 225.873C430.591 249.675 447.318 269.521 463.486 288.736C477.134 304.907 489.977 320.203 496.522 336.304C510.59 370.885 502.891 447.469 502.786 448.204Z" fill="#B5C4E2"/>
<path d="M456.103 284.291C454.213 279.111 454.318 268.016 454.423 256.255C454.528 244.95 454.633 232.139 452.428 228.954L454.143 227.764C456.698 231.509 456.593 243.55 456.488 256.29C456.383 267.351 456.313 278.761 458.063 283.591L456.103 284.291Z" fill="#B5C4E2"/>
<path d="M466.216 295.177C464.572 293.217 454.318 288.947 443.504 284.431C421.492 275.296 404.52 267.806 402.805 262.1L404.8 261.505C406.374 266.756 428.316 275.856 444.309 282.506C457.677 288.072 465.971 291.572 467.826 293.847L466.216 295.177Z" fill="#B5C4E2"/>
<path d="M488.508 324.648C487.213 322.128 486.338 312.748 485.079 297.557C483.994 284.431 482.769 269.591 481.124 266.651L482.944 265.601C484.834 268.926 485.954 282.751 487.178 297.382C488.158 309.178 489.138 321.358 490.363 323.668L488.508 324.648Z" fill="#B5C4E2"/>
<path d="M498.167 348.344C494.633 342.709 477.24 338.299 461.877 334.414C446.129 330.424 431.256 326.678 427.652 321.358L429.366 320.168C432.551 324.823 447.739 328.673 462.402 332.384C479.655 336.759 495.962 340.889 499.952 347.224L498.167 348.344Z" fill="#B5C4E2"/>
<path d="M501.911 402.072C500.406 389.751 485.009 382.716 473.775 377.571C469.821 375.786 466.426 374.211 464.466 372.741L465.726 371.06C467.511 372.39 470.835 373.896 474.65 375.646C485.673 380.686 502.331 388.316 503.976 401.792L501.911 402.072Z" fill="#B5C4E2"/>
<path d="M504.501 381.456L502.402 381.316C502.717 376.766 506.916 367 511.36 356.64C516.085 345.579 521.474 333.049 521.089 328.639L523.189 328.464C523.644 333.364 518.604 345.089 513.32 357.445C509.121 367.21 504.816 377.256 504.501 381.456Z" fill="#B5C4E2"/>
<path d="M493.198 432.383C518.114 397.207 489.453 280.581 546.215 233.294C602.943 186.007 642.942 213.273 606.617 280.336C570.292 347.399 557.939 426.223 538.237 433.504C518.534 440.784 493.198 432.383 493.198 432.383Z" fill="#DAE1F0"/>
<path d="M513.355 448.554L511.29 448.169C511.395 447.609 521.964 391.676 544.57 317.998C559.408 269.626 577.676 246.84 589.749 231.754C596.468 223.353 601.333 217.263 603.187 210.263L605.217 210.788C603.258 218.208 598.288 224.438 591.394 233.049C579.426 247.995 561.333 270.606 546.6 318.593C524.028 392.202 513.46 448.029 513.355 448.554Z" fill="#B5C4E2"/>
<path d="M557.028 289.612L555.384 288.281C562.033 279.986 575.856 273.546 589.259 267.281C602.907 260.91 615.82 254.89 618.095 248.135L620.09 248.8C617.5 256.395 604.237 262.59 590.169 269.171C576.976 275.366 563.362 281.736 557.028 289.612Z" fill="#B5C4E2"/>
<path d="M546.6 318.628L544.605 318.033C546.11 313.098 545.9 298.362 545.69 282.786C545.305 253.7 545.41 232.769 550.309 228.674L551.674 230.284C547.16 234.064 547.51 261.085 547.79 282.751C548 299.167 548.209 313.343 546.6 318.628Z" fill="#B5C4E2"/>
<path d="M532.637 367.175L530.607 366.615C533.022 357.9 546.425 348.624 560.633 338.859C573.127 330.249 586.075 321.323 589.609 313.518L591.534 314.393C587.79 322.723 574.596 331.824 561.858 340.609C548.56 349.71 534.842 359.195 532.637 367.175Z" fill="#B5C4E2"/>
<path d="M528.298 383.661L526.268 383.136C528.473 374.351 521.509 347.189 516.435 327.378C512.69 312.818 510.59 304.417 511.045 301.897L513.11 302.247C512.725 304.452 515.525 315.338 518.464 326.853C523.888 348.029 530.608 374.351 528.298 383.661Z" fill="#B5C4E2"/>
<path d="M518.849 423.038L516.784 422.583C517.869 417.613 527.178 412.643 537.956 406.902C548 401.547 559.373 395.492 561.263 390.067L563.258 390.767C561.088 396.927 549.819 402.947 538.936 408.758C529.522 413.798 519.724 419.013 518.849 423.038Z" fill="#B5C4E2"/>
<path d="M175.476 317.158C175.476 317.158 175.406 282.226 174.636 253.245C173.866 224.263 201.303 192.377 207.742 175.856C214.181 159.3 207.427 133.994 230.664 122.794C230.664 122.794 217.015 147.155 229.369 159.79C241.722 172.426 225.904 215.898 223.455 234.554C221.005 253.14 206.937 302.527 175.476 317.158Z" fill="#DAE1F0"/>
<path d="M142.826 374.666C142.826 374.666 126.028 296.612 99.6414 263.465C73.255 230.319 75.0398 235.359 36.5101 227.239C-1.98467 219.118 0.115041 247.365 0.115041 247.365C0.115041 247.365 21.6721 235.114 34.0954 251.285C46.5537 267.456 50.1232 288.772 74.5149 322.268C98.9065 355.765 142.826 374.666 142.826 374.666Z" fill="#DAE1F0"/>
<path d="M60.7265 137.844C68.4604 166.126 127.112 181.036 140.586 211.103C154.059 241.169 148.25 313.903 148.25 313.903C148.25 313.903 111.61 282.296 109.125 254.365C106.64 226.434 87.5678 215.338 72.7998 186.917C58.0668 158.46 60.7265 137.844 60.7265 137.844Z" fill="#DAE1F0"/>
<path d="M164.173 445.859L162.073 445.999C162.038 445.194 156.614 365.39 147.235 314.113L146.5 310.088C137.366 260.07 131.872 229.864 104.156 203.087C75.6698 175.506 59.922 138.649 59.782 138.264L61.7067 137.459C61.8467 137.809 77.4546 174.316 105.626 201.582C133.797 228.814 139.361 259.265 148.565 309.703L149.3 313.728C158.713 365.11 164.138 445.054 164.173 445.859Z" fill="#DAE1F0"/>
<path d="M160.008 419.293C157.559 393.706 134.987 363.78 111.12 332.103C96.9118 313.238 82.2138 293.777 69.8955 273.161L71.6803 272.076C83.9286 292.587 98.5916 312.012 112.765 330.808C136.841 362.73 159.553 392.901 162.073 419.083L160.008 419.293Z" fill="#B5C4E2"/>
<path d="M155.599 373.791C152.869 351.985 162.738 335.919 172.256 320.413C178.31 310.543 184.575 300.357 187.514 288.771C195.003 259.265 200.672 203.472 200.707 202.912L202.807 203.122C202.737 203.682 197.068 259.615 189.544 289.261C186.534 301.162 180.165 311.488 174.041 321.498C164.277 337.424 155.039 352.44 157.663 373.511L155.599 373.791Z" fill="#B5C4E2"/>
<path d="M263.28 335.674C263.28 335.674 255.546 408.477 248.897 416.878C242.282 425.278 219.885 429.478 219.885 440.679C219.885 451.879 406.06 450.479 407.46 440.679C408.86 430.878 389.752 423.878 382.508 416.878C375.264 409.877 366.865 335.674 366.865 335.674H263.28Z" fill="#273B63"/>
<path d="M248.966 431.928L248.861 429.828C249.666 429.793 328.685 425.663 382.543 429.828L382.368 431.928C328.65 427.798 249.771 431.893 248.966 431.928Z" fill="#C8F2E9"/>
<path d="M110.315 75.5414C96.8771 80.9316 94.7774 340.714 110.175 354.715C125.573 368.715 507.721 365.915 513.32 354.715C518.919 343.514 530.888 87.3369 508.981 73.3362C487.074 59.3356 143.001 62.3807 110.315 75.5414Z" fill="#273B63"/>
<path d="M122.914 90.4872C112.345 98.0476 115.914 301.512 122.914 309.913C129.913 318.313 486.864 318.313 496.662 309.913C506.461 301.512 503.662 99.2726 496.662 90.4872C489.663 81.7018 134.112 82.4718 122.914 90.4872Z" fill="#DAE1F0"/>
<path d="M355.282 316.213C355.282 316.213 355.282 288.912 360.181 279.111C365.08 269.311 383.978 237.109 391.677 203.508C399.376 169.906 390.277 85.9019 379.778 85.9019C369.28 85.9019 369.98 148.205 369.98 148.205C369.98 148.205 370.68 69.8011 358.081 69.8011C345.483 69.8011 344.783 143.305 344.783 143.305C344.783 143.305 345.483 55.8004 330.785 55.8004C316.087 55.8004 316.787 142.605 316.787 142.605C316.787 142.605 316.192 71.2012 302.474 71.2012C288.756 71.2012 291.59 180.406 288.091 212.608C284.591 244.809 302.474 316.213 302.474 316.213H355.282Z" fill="white"/>
<path d="M386.707 221.008C388.632 215.303 390.312 209.423 391.676 203.507C393.391 196.017 394.266 186.042 394.476 175.051C361.685 180.406 309.543 200.812 288.37 209.423C288.265 210.543 288.16 211.593 288.055 212.573C287.915 213.868 287.81 215.268 287.74 216.668C306.498 223.318 351.432 235.989 386.707 221.008Z" fill="#ECF0F7"/>
<path d="M166.203 10.9983C160.568 20.0287 159.309 195.807 166.203 207.603C173.097 219.398 439.445 211.628 451.239 196.332C463.032 181.036 456.138 33.5744 451.239 14.8835C446.339 -3.73739 176.036 -4.71743 166.203 10.9983Z" fill="#B5C4E2"/>
<path d="M309.648 160.49C282.841 160.49 170.192 17.7185 165.397 11.6282L167.042 10.3331C168.197 11.8032 283.821 158.39 309.648 158.39C335.474 158.39 449.314 15.7234 450.433 14.2883L452.078 15.5834C447.354 21.4987 336.454 160.49 309.648 160.49Z" fill="#3D5C9B"/>
<path d="M166.973 208.338L165.433 206.903C165.958 206.343 218.871 148.87 260.375 120.413L261.565 122.164C220.271 150.48 167.498 207.778 166.973 208.338Z" fill="#3D5C9B"/>
<path d="M450.469 197.102C404.87 148.135 364.451 116.388 364.066 116.073L365.361 114.428C365.781 114.743 406.305 146.595 452.009 195.702L450.469 197.102Z" fill="#3D5C9B"/>
<path d="M286.971 136.654C272.973 136.654 283.191 167.806 278.992 182.506C274.792 197.207 262.194 210.508 265.694 235.009C269.193 259.51 288.79 275.611 292.99 286.811C297.189 298.012 292.99 316.213 292.99 316.213H339.883C339.883 316.213 337.084 298.712 335.684 262.31C334.284 225.908 306.393 218.908 302.474 213.308C298.589 207.707 309.788 193.007 309.088 174.106C308.388 155.205 294.285 136.654 286.971 136.654Z" fill="white"/>
<path d="M313.078 351.599C312.728 351.599 312.378 351.599 312.028 351.564C304.609 350.969 302.194 345.334 302.369 340.714C302.579 335.219 306.289 329.548 312.133 329.548C317.662 329.548 321.792 331.474 323.821 334.939C325.606 338.054 325.466 342.149 323.471 345.649C321.267 349.359 317.382 351.599 313.078 351.599ZM312.133 331.614C307.583 331.614 304.644 336.269 304.469 340.784C304.329 344.669 306.254 349.009 312.203 349.464C312.483 349.499 312.798 349.499 313.078 349.499C316.647 349.499 319.832 347.644 321.617 344.529C323.261 341.694 323.401 338.404 321.966 335.919C320.357 333.154 316.857 331.614 312.133 331.614Z" fill="#C8F2E9"/>
<path d="M142.301 5.60916C178.731 11.6645 183.035 36.1656 182.335 67.3871C181.67 98.6086 200.673 118.98 213.551 118.98C213.551 118.98 196.578 125.105 183.7 118.98C170.787 112.854 157.909 129.83 124.663 121.71C91.4176 113.554 61.5317 89.4031 75.8098 47.5062C90.0528 5.60917 117.874 1.51397 142.301 5.60916Z" fill="#7BE1C9"/>
<path d="M125.503 54.7853C125.503 54.7853 138.101 29.3041 150.699 42.1497C163.298 54.9953 132.222 77.5714 126.343 91.9221C126.343 91.9221 93.5873 60.3856 107.025 42.1497C120.464 23.9139 125.503 54.7853 125.503 54.7853Z" fill="white"/>
<path d="M388.247 146.385C388.247 146.385 400.845 120.903 413.444 133.749C426.042 146.595 394.966 169.171 389.087 183.521C389.087 183.521 356.331 151.985 369.77 133.749C383.208 115.513 388.247 146.385 388.247 146.385Z" fill="#65BAA6"/>
<path d="M404.94 98.1527C440.74 104.138 444.974 128.184 444.309 158.881C443.644 189.577 462.332 209.598 475 209.598C475 209.598 458.307 215.618 445.639 209.598C432.971 203.578 420.267 220.273 387.582 212.258C354.896 204.243 325.536 180.477 339.534 139.315C353.567 98.1527 380.933 94.1625 404.94 98.1527Z" fill="white"/>
<path d="M388.247 146.385C388.247 146.385 400.845 120.904 413.444 133.749C426.042 146.595 394.966 169.171 389.087 183.522C389.087 183.522 356.331 151.985 369.77 133.749C383.208 115.514 388.247 146.385 388.247 146.385Z" fill="#7BE1C9"/>
<path d="M281.869 411.028C281.644 413.223 281.299 415.371 280.818 417.459C274.657 444.071 247.023 462.523 197.721 465.875C98.1698 472.638 43.3228 466.627 23.7877 419.291C19.3698 408.592 17.6563 394.768 17.898 379.665C18.71 327.883 42.3609 260.925 58.3505 252.495C79.0118 241.601 93.6625 247.237 93.6625 247.237C127.097 254.373 180.44 352.423 222.14 356.179C263.837 359.937 284.786 381.845 281.869 411.028Z" fill="#95E7D4"/>
<path d="M62.8555 312.227C62.8555 312.227 87.6495 332.136 96.2896 354.301C104.93 376.465 104.93 396 122.961 399.756C140.993 403.512 174.804 405.767 208.99 395.623C243.176 385.48 243.927 373.459 207.864 367.074C171.8 360.688 132.356 326.503 121.086 302.083C109.816 277.664 110.191 267.898 103.054 261.512C95.9174 255.127 85.397 252.872 74.8791 265.268C64.3612 277.664 58.3481 298.328 62.8555 312.227Z" fill="#65BAA6"/>
<path d="M138.214 245.769C138.646 245.18 139.18 244.648 139.591 244.051C141.433 241.376 139.415 238.343 137.117 236.777C135.555 235.713 135.323 234.867 135.705 232.917C136.007 231.375 136.882 230.353 136.585 228.745C136.338 227.404 135.751 225.488 134.702 224.615C133.629 223.721 132.048 223.793 130.811 223.267C127.742 221.959 130.594 219.513 129.284 217.22C127.321 213.785 121.712 214.61 118.374 214.102C118.398 214.107 118.415 214.1 118.42 214.075C115.554 212.935 115.053 209.923 111.378 210.535C109.642 210.822 108.439 211.912 106.991 212.766C104.48 214.247 102.365 212.212 99.9339 213.126C97.186 214.16 94.994 216.637 94.2206 219.467C93.1451 223.407 90.8637 222.254 87.7581 223.668C86.1098 224.419 84.0579 224.944 84.4011 227.252C84.5848 228.484 85.6724 229.543 85.7594 230.763C85.8681 232.322 84.3939 233.207 83.5262 234.367C82.5933 235.616 81.9843 237.439 82.6151 238.937C83.2942 240.556 85.1963 241.352 85.2857 243.324C85.4089 246.072 81.5445 248.324 83.1202 251.326C84.1619 253.31 86.4192 253.31 87.92 254.579C88.9278 255.432 88.7852 256.706 88.6692 257.846C88.3526 260.974 89.8051 263.748 93.4714 263.025C96.142 262.499 98.0923 262.197 99.9895 264.495C101.645 266.501 103.272 267.494 106.07 267.257C107.849 267.105 109.497 266.368 111.199 265.892C112.794 265.445 113.284 265.711 114.715 266.153C117.734 267.086 119.481 264.207 122.287 264.244C123.365 264.258 124.073 265.07 125.173 265.254C126.449 265.466 127.843 265.046 128.936 264.403C130.371 263.557 131.05 262.554 131.539 260.986C131.959 259.632 132.261 259.151 133.569 258.6C136.882 257.201 138.685 255.669 138.468 251.797C138.381 250.265 137.291 249.037 137.457 247.531C137.535 246.845 137.837 246.284 138.214 245.769Z" fill="#1C2A47"/>
<path d="M259.079 471.76C259.079 477.084 209.631 481.403 148.633 481.403C87.6354 481.403 38.1875 477.087 38.1875 471.76C38.1875 466.433 87.6354 462.117 148.633 462.117C209.631 462.119 259.079 466.436 259.079 471.76Z" fill="#DAE1F0"/>
<path d="M138.741 294.446C138.741 294.446 159.654 316.485 168.168 318.614L154.518 327.255L136.36 317.111C136.363 317.111 129.601 299.079 138.741 294.446Z" fill="#B5C4E2"/>
<path d="M138.741 294.446L138.565 294.613C138.567 294.616 143.797 300.128 150.098 305.909C153.247 308.8 156.664 311.76 159.833 314.134C161.418 315.32 162.938 316.36 164.338 317.174C165.737 317.986 167.011 318.573 168.11 318.849L168.168 318.614L168.04 318.411L154.513 326.974L136.482 316.901L136.363 317.111L136.59 317.027C136.59 317.027 136.581 317.002 136.564 316.957C136.303 316.244 134.195 310.25 134.198 304.529C134.198 302.468 134.471 300.445 135.191 298.719C135.911 296.994 137.066 295.57 138.852 294.662L138.741 294.446L138.565 294.613L138.741 294.446L138.633 294.231C136.733 295.193 135.493 296.725 134.744 298.533C133.992 300.341 133.714 302.424 133.714 304.529C133.717 310.753 136.134 317.184 136.138 317.198L136.17 317.28L154.53 327.537L168.777 318.518L168.229 318.38C167.199 318.124 165.957 317.556 164.582 316.756C159.765 313.957 153.336 308.331 148.128 303.413C145.523 300.952 143.22 298.669 141.569 297.001C140.742 296.167 140.08 295.486 139.623 295.014C139.396 294.778 139.22 294.594 139.099 294.471C138.981 294.345 138.918 294.28 138.918 294.28L138.794 294.149L138.635 294.231L138.741 294.446Z" fill="#3D5C9B"/>
<path d="M149.822 341.717C149.822 341.717 183.193 336.521 203.731 345.787C224.267 355.053 218.759 370.581 212.245 383.854C205.732 397.127 199.724 402.137 199.724 402.137L187.202 396.878C187.202 396.878 191.71 374.339 199.224 363.067C199.224 363.067 169.922 378.595 154.143 377.843C138.366 377.092 138.615 347.539 138.615 347.539L149.822 341.717Z" fill="#1C2A47"/>
<path d="M101.896 270.469C101.896 270.469 93.2854 275.037 86.7745 277.541C80.2636 280.045 78.2601 289.688 82.0158 296.699C85.7715 303.712 95.1633 321.619 99.1703 332.262C103.177 342.906 105.495 351.672 105.495 351.672C105.495 351.672 127.345 355.867 139.492 351.483C151.639 347.101 149.824 341.717 149.824 341.717C149.824 341.717 141.999 314.23 140.87 306.842C140.87 306.842 144.251 299.203 141.496 292.443C138.741 285.681 131.604 282.925 128.097 278.793C124.59 274.662 111.005 269.283 101.896 270.469Z" fill="white"/>
<path d="M128.477 242.009C128.191 245.765 127.86 249.537 128.37 254.782C128.776 259.064 126.717 262.46 120.767 267.269C120.767 267.269 118.587 267.465 116.124 266.742C116.078 266.742 116.035 266.728 115.989 266.713L116.545 270.832L116.666 271.704L116.741 272.335C116.741 272.335 116.83 274.979 113.734 275.731C110.624 276.482 104.238 273.476 101.894 270.472C101.894 270.472 102.269 259.202 101.324 254.784C101.324 254.784 98.4236 249.992 96.8164 243.425C95.2237 236.844 100.152 230.442 104.736 228.083C109.335 225.739 123.22 225.664 127.442 235.251C127.44 235.247 128.764 238.251 128.477 242.009Z" fill="#B5C4E2"/>
<path d="M128.477 242.009L128.235 241.99C128.059 244.319 127.863 246.664 127.863 249.368C127.863 251.021 127.935 252.807 128.131 254.803C128.163 255.142 128.179 255.473 128.179 255.799C128.177 257.663 127.653 259.366 126.447 261.174C125.238 262.98 123.343 264.879 120.617 267.081L120.769 267.269L120.748 267.028H120.738C120.685 267.033 120.436 267.049 120.044 267.049C119.218 267.049 117.761 266.967 116.194 266.508L116.161 266.498H116.127V266.523L116.129 266.498H116.127V266.523L116.129 266.498L116.115 266.496L116.069 266.481L115.701 266.358L116.31 270.858L116.431 271.731L116.671 271.697L116.431 271.726L116.506 272.357L116.746 272.328L116.504 272.333V272.335V272.349C116.504 272.456 116.484 273.084 116.127 273.754C115.948 274.09 115.685 274.435 115.295 274.742C114.904 275.049 114.384 275.317 113.683 275.487C113.379 275.561 113.031 275.598 112.654 275.595C111.054 275.598 108.908 274.938 106.924 273.94C104.937 272.944 103.1 271.61 102.09 270.312L101.899 270.462L102.141 270.469C102.141 270.467 102.213 268.258 102.213 265.411C102.213 263.618 102.184 261.571 102.088 259.661C101.991 257.75 101.831 255.98 101.563 254.724L101.553 254.685L101.532 254.651C101.532 254.651 101.522 254.634 101.5 254.598C101.184 254.059 98.5493 249.479 97.0509 243.357C96.8455 242.514 96.7512 241.673 96.7512 240.842C96.7512 238.094 97.7904 235.459 99.3275 233.255C100.862 231.054 102.895 229.289 104.845 228.286C105.585 227.909 106.595 227.585 107.777 227.358C108.959 227.131 110.317 227.001 111.755 227.001C114.619 227.001 117.804 227.523 120.61 228.825C123.416 230.13 125.84 232.209 127.218 235.336L127.22 235.341C127.276 235.469 128.276 237.84 128.274 240.926C128.274 241.269 128.262 241.622 128.235 241.982L128.477 242.009L128.718 242.028C128.747 241.656 128.759 241.291 128.759 240.936C128.759 237.644 127.669 235.169 127.662 235.15C126.231 231.897 123.701 229.734 120.815 228.395C117.927 227.054 114.677 226.524 111.755 226.524C110.288 226.524 108.903 226.657 107.687 226.892C106.472 227.126 105.425 227.457 104.628 227.866C102.595 228.912 100.517 230.722 98.9336 232.989C97.353 235.254 96.2727 237.98 96.2703 240.851C96.2703 241.719 96.3693 242.599 96.582 243.481C98.1989 250.086 101.111 254.895 101.118 254.907L101.326 254.782L101.089 254.832C101.348 256.038 101.51 257.795 101.604 259.693C101.698 261.59 101.727 263.63 101.727 265.418C101.727 266.837 101.708 268.098 101.691 269.005C101.682 269.457 101.672 269.822 101.667 270.073C101.66 270.324 101.655 270.46 101.655 270.46L101.652 270.547L101.706 270.617C102.791 272.006 104.669 273.36 106.704 274.38C108.739 275.4 110.923 276.083 112.651 276.086C113.06 276.086 113.444 276.047 113.795 275.963C114.556 275.779 115.143 275.479 115.59 275.129C116.262 274.602 116.613 273.959 116.791 273.427C116.97 272.896 116.985 272.473 116.985 272.354V272.325V272.313L116.907 271.668L116.787 270.795L116.231 266.68L115.991 266.711L115.914 266.941C115.96 266.955 116.025 266.982 116.127 266.984V266.742L116.059 266.975C117.688 267.451 119.189 267.535 120.047 267.535C120.511 267.535 120.786 267.511 120.794 267.511L120.866 267.504L120.924 267.458C123.67 265.239 125.601 263.313 126.853 261.445C128.105 259.577 128.67 257.759 128.668 255.802C128.668 255.458 128.651 255.113 128.617 254.762C128.424 252.781 128.351 251.012 128.351 249.373C128.351 246.693 128.544 244.363 128.723 242.031L128.477 242.009Z" fill="#3D5C9B"/>
<path d="M102.411 249.001C102.411 249.001 102.438 249.03 102.489 249.085C102.66 249.276 103.093 249.772 103.48 250.337C103.869 250.9 104.207 251.538 104.205 251.99C104.205 252.06 104.198 252.126 104.181 252.186C104.072 252.587 103.847 252.817 103.639 253.046C103.431 253.274 103.238 253.508 103.238 253.897C103.238 254.083 103.282 254.303 103.385 254.571C103.903 255.937 104.234 256.502 104.236 256.505C104.253 256.534 104.289 256.543 104.318 256.527C104.347 256.51 104.357 256.473 104.34 256.444C104.34 256.444 104.321 256.411 104.282 256.338C104.166 256.118 103.886 255.548 103.499 254.528C103.4 254.267 103.361 254.061 103.361 253.895C103.361 253.551 103.523 253.356 103.731 253.126C103.936 252.899 104.183 252.648 104.299 252.217C104.318 252.145 104.328 252.07 104.328 251.99C104.326 251.413 103.866 250.656 103.412 250.03C102.958 249.407 102.503 248.921 102.501 248.921C102.479 248.897 102.44 248.894 102.416 248.918C102.39 248.938 102.387 248.976 102.411 249.001Z" fill="#273B63"/>
<path d="M127.061 243.418C127.061 243.418 125.277 242.855 122.882 244.545C122.882 244.545 123.305 242.618 124.714 242.383C126.123 242.151 127.061 243.418 127.061 243.418Z" fill="#273B63"/>
<path d="M117.436 245.127C117.436 245.127 116.157 243.575 114.286 243.848C112.415 244.121 111.001 244.852 111.001 244.852C111.001 244.852 111.823 243.026 113.648 242.615C115.475 242.207 116.936 243.256 117.436 245.127Z" fill="#273B63"/>
<path d="M123.518 248.16C123.452 249.105 123.701 249.891 124.076 249.918C124.451 249.944 124.809 249.2 124.876 248.254C124.942 247.309 124.693 246.524 124.318 246.497C123.943 246.473 123.583 247.217 123.518 248.16Z" fill="#273B63"/>
<path d="M115.3 249.289C115.235 250.234 115.484 251.02 115.859 251.046C116.234 251.073 116.591 250.328 116.659 249.383C116.724 248.438 116.475 247.652 116.101 247.625C115.723 247.599 115.366 248.343 115.3 249.289Z" fill="#273B63"/>
<path d="M121.248 249.46C121.248 249.46 121.383 249.697 121.589 250.069C121.896 250.627 122.355 251.495 122.739 252.332C123.124 253.166 123.426 253.98 123.426 254.401C123.426 254.524 123.399 254.609 123.358 254.648C123.221 254.785 122.95 254.938 122.626 255.083C122.14 255.298 121.531 255.501 121.042 255.646C120.798 255.718 120.586 255.779 120.433 255.82C120.281 255.861 120.192 255.885 120.192 255.885C120.16 255.893 120.141 255.926 120.148 255.958C120.155 255.989 120.189 256.009 120.221 256.001C120.221 256.001 120.871 255.837 121.598 255.598C121.961 255.477 122.343 255.339 122.674 255.194C123.005 255.046 123.283 254.894 123.443 254.735C123.52 254.657 123.547 254.541 123.547 254.401C123.547 254.087 123.407 253.627 123.201 253.1C122.585 251.529 121.354 249.399 121.354 249.399C121.337 249.37 121.301 249.361 121.272 249.378C121.243 249.392 121.231 249.431 121.248 249.46Z" fill="#273B63"/>
<path d="M120.543 258.26C120.543 258.26 120.476 258.269 120.35 258.279C120.224 258.289 120.045 258.298 119.825 258.298C118.982 258.298 117.546 258.151 116.327 257.298C116.301 257.278 116.262 257.285 116.243 257.312C116.223 257.339 116.231 257.377 116.257 257.397C117.507 258.269 118.967 258.419 119.823 258.419C120.272 258.419 120.555 258.378 120.558 258.378C120.592 258.373 120.613 258.342 120.608 258.31C120.606 258.279 120.575 258.255 120.543 258.26Z" fill="#273B63"/>
<path d="M108.688 238.222C108.688 238.222 109.72 240.194 109.157 244.607C108.594 249.02 108.311 247.425 107.936 249.397C107.562 251.369 108.594 252.873 107.279 254.468C105.964 256.065 107.936 250.241 103.803 246.765C99.6707 243.29 100.705 253.528 101.737 255.5C102.769 257.472 104.461 258.223 104.461 258.223L101.831 261.322C101.831 261.322 89.1527 255.311 89.8101 242.633C90.4675 229.954 97.8871 226.479 97.8871 226.479C97.8871 226.479 104.086 217.744 119.769 221.783C135.454 225.821 133.53 238.671 133.388 240.566C133.013 245.545 128.129 245.637 128.129 245.637C128.129 245.637 128.597 240.378 125.216 237.277C125.216 237.277 124.276 239.438 120.989 240.284C117.702 241.129 119.3 238.123 119.957 236.808C119.957 236.808 118.08 239.343 115.073 239.343C112.069 239.348 108.688 238.222 108.688 238.222Z" fill="#1C2A47"/>
<path d="M116.666 271.702C115.237 271.327 113.028 270.484 110.281 268.652C105.217 265.271 106.058 258.885 106.058 258.885C108.221 264.055 115.076 266.308 115.076 266.308L116.127 266.743C116.081 266.743 116.037 266.728 115.992 266.714L116.547 270.832L116.666 271.702Z" fill="#273B63"/>
<path d="M85.6462 280.045C92.2586 279.363 97.2928 286.556 103.678 299.58C110.063 312.604 116.825 332.513 116.825 332.513C116.825 332.513 147.004 329.132 156.77 321.37C156.77 321.37 158.9 313.481 160.403 311.603C161.906 309.725 164.785 308.348 166.665 307.345C168.543 306.342 169.795 305.341 169.795 305.341L162.406 325.002C162.406 325.002 157.396 329.635 154.644 332.265C151.889 334.894 122.336 350.422 110.566 347.415C98.7961 344.409 84.143 313.481 82.5165 305.967C80.89 298.453 77.1318 280.922 85.6462 280.045Z" fill="#B5C4E2"/>
<path d="M85.646 280.044L85.6702 280.284C85.9505 280.255 86.226 280.24 86.4991 280.24C88.0024 280.24 89.421 280.67 90.8131 281.514C92.9012 282.778 94.9241 284.982 96.9905 288.044C99.0568 291.104 101.172 295.019 103.46 299.683C106.648 306.182 109.932 314.411 112.419 321.012C113.664 324.313 114.708 327.206 115.44 329.275C115.808 330.309 116.095 331.138 116.294 331.706C116.492 332.277 116.596 332.586 116.596 332.586L116.658 332.77L116.852 332.748C116.857 332.748 124.407 331.902 133.185 330.082C137.573 329.173 142.269 328.021 146.487 326.607C150.704 325.193 154.44 323.52 156.922 321.551L156.985 321.502L157.007 321.425C157.007 321.425 157.041 321.302 157.101 321.084C157.314 320.318 157.87 318.377 158.534 316.425C158.866 315.448 159.226 314.472 159.581 313.638C159.936 312.807 160.294 312.118 160.594 311.743C161.316 310.839 162.392 310.037 163.52 309.341C164.651 308.645 165.836 308.05 166.778 307.548C168.675 306.535 169.937 305.525 169.947 305.52L169.797 305.332L169.57 305.247L162.181 324.908L162.409 324.992L162.244 324.816C162.244 324.816 157.234 329.449 154.477 332.081C154.334 332.216 154.097 332.405 153.781 332.627C152.587 333.47 150.269 334.831 147.282 336.392C142.799 338.734 136.8 341.526 130.763 343.73C124.728 345.936 118.65 347.551 114.039 347.548C112.779 347.548 111.631 347.428 110.626 347.171C107.767 346.446 104.664 343.981 101.628 340.557C97.0702 335.423 92.6475 328.153 89.2204 321.469C87.5069 318.126 86.0399 314.931 84.9258 312.222C83.8116 309.513 83.0527 307.287 82.7531 305.904C81.9144 302.037 80.5151 295.519 80.5175 290.016C80.5175 287.428 80.8293 285.067 81.6341 283.331C82.0353 282.461 82.5573 281.751 83.2171 281.231C83.8793 280.711 84.6817 280.378 85.675 280.276L85.646 280.044L85.6218 279.805C84.5488 279.914 83.6497 280.284 82.915 280.861C81.8153 281.727 81.0976 283.044 80.6529 284.624C80.2082 286.205 80.0317 288.059 80.0317 290.028C80.0317 295.609 81.4407 302.146 82.2794 306.018C82.6951 307.932 83.918 311.274 85.7088 315.289C88.3939 321.307 92.3502 328.808 96.7488 335.099C98.9481 338.246 101.256 341.088 103.579 343.292C105.901 345.496 108.236 347.067 110.505 347.647C111.561 347.918 112.748 348.039 114.036 348.039C117.393 348.039 121.449 347.212 125.695 345.939C132.063 344.029 138.854 341.112 144.295 338.449C147.016 337.117 149.397 335.846 151.219 334.795C152.13 334.27 152.901 333.799 153.507 333.4C154.114 333.002 154.552 332.68 154.81 332.436C156.185 331.124 158.126 329.306 159.724 327.82C160.521 327.076 161.234 326.416 161.746 325.94C162.003 325.703 162.208 325.512 162.351 325.379C162.493 325.246 162.571 325.176 162.571 325.176L162.612 325.137L170.328 304.602L169.642 305.15L169.63 305.16C169.492 305.269 168.294 306.199 166.551 307.13C165.616 307.628 164.422 308.227 163.267 308.937C162.111 309.65 160.995 310.475 160.214 311.448C160.009 311.705 159.806 312.045 159.6 312.449C158.88 313.86 158.119 316.067 157.531 317.928C156.947 319.789 156.538 321.302 156.538 321.304L156.773 321.367L156.623 321.179C154.22 323.088 150.523 324.753 146.334 326.155C140.051 328.262 132.663 329.792 126.85 330.795C123.943 331.295 121.429 331.665 119.643 331.909C118.749 332.03 118.038 332.122 117.55 332.182C117.306 332.211 117.118 332.235 116.992 332.25C116.864 332.264 116.799 332.272 116.799 332.272L116.825 332.511L117.055 332.434C117.052 332.429 110.293 312.519 103.895 299.471C100.838 293.235 98.0877 288.329 95.3084 284.963C93.9187 283.281 92.5194 281.98 91.0645 281.098C89.6095 280.216 88.0966 279.754 86.4991 279.757C86.2091 279.757 85.9167 279.771 85.6218 279.803L85.646 280.044Z" fill="#3D5C9B"/>
<path d="M105.495 351.674C105.495 351.674 98.2953 376.843 116.327 389.616C134.359 402.388 180.943 373.839 197.471 354.304C197.471 354.304 222.766 389.115 244.304 399.633L254.573 390.116C254.573 390.116 225.521 347.541 210.244 337.773C194.968 328.004 146.38 347.039 146.38 347.039C146.38 347.039 118.205 353.801 105.495 351.674Z" fill="#3D5C9B"/>
<path d="M288.883 393.997C287.88 393.746 287.131 394.749 286.002 394.998C284.876 395.249 270.851 400.008 264.964 401.259L254.572 390.116L244.302 399.633L254.888 408.114C255.983 410.129 258.305 413.994 261.334 416.664C265.592 420.42 268.973 418.793 270.851 417.416C272.729 416.038 276.11 412.283 279.491 409.651C282.872 407.021 287.631 402.137 288.883 398.881C290.135 395.626 289.883 394.248 288.883 393.997Z" fill="#B5C4E2"/>
<path d="M288.882 393.997L288.94 393.762C288.812 393.731 288.684 393.714 288.561 393.716C288.31 393.716 288.075 393.777 287.855 393.864C287.524 393.997 287.222 394.188 286.913 394.359C286.603 394.533 286.291 394.688 285.951 394.763C285.869 394.782 285.745 394.816 285.579 394.864C284.324 395.234 280.537 396.481 276.371 397.782C272.204 399.084 267.658 400.44 264.917 401.023L264.968 401.259L265.144 401.095L254.585 389.775L243.935 399.647L254.738 408.302L254.89 408.113L254.677 408.229C255.779 410.257 258.109 414.139 261.174 416.845C263.16 418.6 264.995 419.221 266.582 419.221C268.453 419.221 269.956 418.37 270.993 417.612C271.957 416.903 273.27 415.618 274.773 414.18C276.274 412.742 277.961 411.149 279.638 409.844C281.342 408.519 283.384 406.634 285.163 404.665C286.942 402.695 288.457 400.653 289.107 398.971C289.704 397.417 289.97 396.278 289.97 395.447C289.97 394.983 289.885 394.608 289.709 394.321C289.532 394.031 289.254 393.842 288.94 393.765L288.882 393.997L288.824 394.231C289.037 394.287 289.184 394.388 289.298 394.57C289.412 394.753 289.489 395.036 289.489 395.442C289.491 396.17 289.245 397.269 288.658 398.792C288.053 400.365 286.565 402.393 284.805 404.336C283.046 406.282 281.018 408.152 279.343 409.457C277.639 410.782 275.945 412.384 274.439 413.824C272.939 415.265 271.621 416.548 270.708 417.218C269.712 417.947 268.303 418.735 266.582 418.733C265.123 418.731 263.416 418.175 261.493 416.478C258.505 413.844 256.185 409.999 255.1 407.995L255.076 407.952L244.672 399.616L254.559 390.454L264.881 401.523L265.014 401.494C267.977 400.863 272.953 399.36 277.34 397.982C279.532 397.293 281.576 396.636 283.14 396.136C283.923 395.884 284.585 395.674 285.088 395.517C285.339 395.44 285.55 395.374 285.714 395.326C285.878 395.278 285.997 395.244 286.055 395.232C286.606 395.109 287.055 394.831 287.459 394.601C287.659 394.485 287.85 394.381 288.034 394.309C288.218 394.236 288.389 394.195 288.561 394.195C288.645 394.195 288.732 394.205 288.824 394.229L288.882 393.997Z" fill="#3D5C9B"/>
<path d="M188.599 396.315C188.599 396.315 186.465 404.368 185.187 406.495C183.906 408.621 178.93 414.091 179.783 417.281C180.636 420.471 184.206 421.745 189.895 423.112C195.584 424.48 196.42 427.755 199.975 429.123C203.53 430.491 207.62 431.073 208.615 430.312C209.611 429.553 211.119 430.186 212.937 428.183C214.839 426.083 210.807 424.427 208.678 422.61C207.301 421.435 203.678 417.887 199.552 414.24C195.427 410.593 199.724 400.883 199.724 400.883L188.599 396.315Z" fill="#B5C4E2"/>
<path d="M188.599 396.315L188.365 396.252C188.365 396.252 188.331 396.377 188.27 396.6C188.058 397.383 187.509 399.372 186.874 401.397C186.557 402.41 186.216 403.43 185.89 404.309C185.564 405.189 185.242 405.931 184.979 406.369C184.694 406.842 184.205 407.509 183.633 408.285C182.775 409.45 181.735 410.866 180.904 412.302C180.075 413.74 179.444 415.197 179.442 416.493C179.442 416.785 179.476 417.07 179.548 417.343C179.771 418.177 180.177 418.895 180.745 419.509C181.598 420.432 182.806 421.13 184.331 421.732C185.856 422.332 187.7 422.832 189.837 423.347C192.64 424.023 194.223 425.152 195.576 426.3C196.253 426.875 196.869 427.458 197.549 427.987C198.228 428.516 198.97 428.992 199.886 429.345C202.394 430.309 205.147 430.885 206.964 430.887C207.358 430.887 207.709 430.861 208.011 430.8C208.311 430.74 208.564 430.65 208.76 430.5C208.973 430.339 209.217 430.247 209.512 430.172C209.954 430.058 210.5 429.993 211.117 429.758C211.733 429.524 212.41 429.118 213.113 428.342C213.487 427.931 213.674 427.499 213.671 427.071C213.671 426.592 213.446 426.155 213.118 425.754C212.622 425.152 211.871 424.599 211.083 424.05C210.295 423.504 209.468 422.965 208.833 422.421C208.154 421.841 206.902 420.659 205.309 419.17C203.716 417.682 201.776 415.881 199.712 414.054C199.078 413.496 198.656 412.785 198.385 411.973C198.114 411.163 198.003 410.252 198.003 409.312C198.003 407.352 198.486 405.259 198.972 403.667C199.216 402.869 199.458 402.195 199.642 401.721C199.733 401.484 199.808 401.298 199.861 401.17C199.888 401.107 199.91 401.059 199.922 401.025C199.936 400.994 199.944 400.977 199.944 400.977L200.045 400.749L188.437 395.979L188.367 396.244L188.599 396.315L188.507 396.537L199.632 401.107L199.724 400.885L199.504 400.788C199.501 400.795 199.008 401.909 198.513 403.531C198.02 405.153 197.522 407.28 197.522 409.319C197.522 410.298 197.636 411.258 197.928 412.135C198.218 413.01 198.689 413.803 199.395 414.426C201.454 416.246 203.39 418.044 204.983 419.533C206.575 421.022 207.825 422.201 208.523 422.798C209.418 423.559 210.609 424.275 211.564 424.995C212.042 425.355 212.46 425.715 212.748 426.066C213.038 426.421 213.193 426.754 213.19 427.076C213.19 427.363 213.074 427.668 212.755 428.021C211.875 428.987 211.109 429.297 210.406 429.481C210.056 429.57 209.72 429.626 209.393 429.708C209.07 429.79 208.753 429.903 208.465 430.121C208.361 430.201 208.173 430.28 207.914 430.331C207.658 430.382 207.334 430.409 206.962 430.409C205.241 430.411 202.513 429.843 200.057 428.898C199.197 428.567 198.501 428.12 197.843 427.61C196.86 426.844 195.97 425.923 194.784 425.06C193.597 424.197 192.108 423.397 189.945 422.878C187.106 422.196 184.805 421.536 183.13 420.666C182.291 420.231 181.612 419.746 181.093 419.182C180.573 418.619 180.213 417.979 180.007 417.22C179.947 416.993 179.918 416.751 179.918 416.495C179.918 415.739 180.174 414.859 180.59 413.943C181.213 412.565 182.185 411.105 183.115 409.808C184.046 408.51 184.928 407.379 185.385 406.62C185.723 406.057 186.095 405.15 186.477 404.089C187.623 400.911 188.822 396.382 188.824 396.377L188.599 396.315L188.507 396.537L188.599 396.315Z" fill="#3D5C9B"/>
<path d="M207.172 282.295L195.347 316.48L192.974 323.272C192.809 323.723 192.432 324.069 191.966 324.187L161.778 332.078C161.161 332.243 160.591 331.989 160.274 331.551C159.989 331.191 159.883 330.696 160.05 330.198L161.657 325.63L176.368 282.488C176.564 281.918 177.074 281.526 177.675 281.512L203.356 280.475L205.747 280.385C206.766 280.342 207.504 281.333 207.172 282.295Z" fill="#6C8AC5"/>
<path d="M207.172 282.295L195.347 316.48L192.974 323.272C192.809 323.724 192.432 324.069 191.966 324.188L161.777 332.078C161.161 332.243 160.591 331.989 160.274 331.552C165.758 327.027 180.757 314.122 190.837 300.326C198.02 290.5 201.611 284.112 203.354 280.477L205.744 280.388C206.766 280.342 207.503 281.333 207.172 282.295Z" fill="#486DB7"/>
<path d="M201.056 302.108C201.041 302.083 201.019 302.064 201.005 302.04C201.36 301.68 201.827 301.061 201.641 300.418C201.353 299.42 199.879 298.789 197.8 298.842C195.722 298.898 194.634 299.599 195.069 300.029C195.504 300.459 196.662 300.998 197.95 300.819L198.243 301.172C197.844 301.206 197.421 301.269 196.971 301.38C194.953 301.873 194.037 302.789 194.552 303.118C195.069 303.446 196.314 303.729 197.534 303.282L197.822 303.507C197.513 303.546 197.191 303.599 196.855 303.681C194.837 304.174 193.921 305.09 194.436 305.419C194.953 305.747 196.198 306.03 197.418 305.583L198.093 306.115C196.942 306.48 195.666 307.021 195.891 307.439C196.22 308.051 198.098 308.191 198.098 308.191L197.3 310.68C197.3 310.68 199.789 309.505 200.633 308.239C201.121 307.509 200.974 306.741 200.582 306.248C200.862 305.842 201.288 305.061 200.937 304.411C200.862 304.273 200.756 304.152 200.633 304.041C200.901 303.674 201.433 302.811 201.056 302.108Z" fill="#B5C4E2"/>
<path d="M201.055 302.108L201.268 301.992C201.246 301.953 201.227 301.929 201.215 301.917L201.205 301.905L201.203 301.907L201.205 301.905L201.203 301.907L201.205 301.905L201.137 301.953L201.207 301.909L201.205 301.905L201.137 301.953L201.207 301.909L201.002 302.037L201.174 302.207C201.333 302.045 201.514 301.834 201.662 301.583C201.807 301.332 201.92 301.039 201.92 300.715C201.92 300.595 201.903 300.471 201.87 300.348C201.787 300.063 201.626 299.809 201.403 299.592C201.067 299.265 200.601 299.019 200.035 298.852C199.467 298.685 198.798 298.596 198.049 298.596C197.964 298.596 197.879 298.596 197.795 298.598C196.886 298.623 196.156 298.765 195.637 298.966C195.376 299.067 195.168 299.181 195.011 299.314C194.933 299.381 194.866 299.454 194.817 299.536C194.769 299.618 194.735 299.717 194.735 299.819C194.733 299.961 194.803 300.099 194.902 300.196C195.124 300.413 195.47 300.631 195.907 300.803C196.342 300.972 196.869 301.093 197.442 301.093C197.621 301.093 197.802 301.08 197.986 301.056L197.952 300.817L197.766 300.972L198.058 301.325L198.244 301.17L198.225 300.928C197.814 300.962 197.379 301.027 196.915 301.141C196.072 301.346 195.41 301.627 194.945 301.917C194.713 302.062 194.53 302.212 194.397 302.366C194.329 302.444 194.276 302.523 194.235 302.608C194.196 302.692 194.17 302.782 194.17 302.879C194.17 302.966 194.194 303.055 194.24 303.132C194.286 303.21 194.351 303.27 194.423 303.318C194.614 303.439 194.871 303.546 195.173 303.623C195.475 303.7 195.828 303.751 196.205 303.751C196.649 303.751 197.135 303.681 197.616 303.505L197.534 303.277L197.384 303.468L197.672 303.693L197.821 303.502L197.792 303.263C197.476 303.301 197.147 303.355 196.797 303.442C195.953 303.647 195.291 303.927 194.827 304.217C194.595 304.362 194.411 304.512 194.278 304.667C194.211 304.744 194.158 304.824 194.117 304.909C194.078 304.993 194.051 305.083 194.051 305.179C194.051 305.266 194.075 305.356 194.121 305.433C194.167 305.51 194.233 305.571 194.305 305.619C194.496 305.74 194.752 305.846 195.054 305.924C195.356 306.001 195.709 306.052 196.086 306.052C196.531 306.052 197.017 305.982 197.498 305.805L197.415 305.578L197.266 305.769L197.94 306.301L198.09 306.11L198.017 305.88C197.478 306.052 196.915 306.26 196.47 306.482C196.248 306.596 196.055 306.709 195.905 306.837C195.83 306.903 195.765 306.968 195.712 307.048C195.661 307.127 195.62 307.224 195.62 307.333C195.62 307.405 195.639 307.483 195.675 307.548C195.738 307.664 195.83 307.758 195.932 307.833C196.11 307.966 196.33 308.06 196.56 308.138C197.251 308.365 198.066 308.423 198.075 308.425L198.092 308.183L197.863 308.109L196.893 311.127L197.396 310.89C197.401 310.888 198.029 310.591 198.771 310.131C199.511 309.67 200.364 309.056 200.828 308.365C201.07 308.002 201.178 307.62 201.176 307.26C201.176 306.811 201.014 306.402 200.765 306.09L200.577 306.24L200.775 306.378C200.884 306.221 201.014 306.008 201.118 305.764C201.222 305.52 201.304 305.24 201.304 304.945C201.304 304.73 201.258 304.503 201.145 304.29C201.05 304.118 200.925 303.978 200.789 303.857L200.627 304.036L200.823 304.179C200.932 304.031 201.077 303.811 201.2 303.548C201.321 303.285 201.423 302.975 201.423 302.644C201.423 302.427 201.377 302.202 201.263 301.989L201.055 302.108L200.843 302.221C200.915 302.357 200.944 302.497 200.944 302.647C200.944 302.874 200.869 303.123 200.765 303.347C200.661 303.57 200.531 303.768 200.436 303.896L200.306 304.072L200.468 304.22C200.579 304.319 200.666 304.418 200.722 304.524C200.794 304.66 200.823 304.8 200.823 304.95C200.823 305.155 200.763 305.375 200.676 305.578C200.589 305.781 200.475 305.97 200.378 306.107L200.277 306.255L200.388 306.395C200.574 306.627 200.695 306.934 200.695 307.263C200.695 307.529 200.62 307.811 200.427 308.099C200.047 308.674 199.23 309.283 198.518 309.723C198.16 309.945 197.826 310.129 197.585 310.257C197.464 310.32 197.365 310.371 197.297 310.405C197.263 310.421 197.237 310.434 197.22 310.443L197.193 310.455L197.297 310.673L197.527 310.748L198.418 307.966L198.114 307.944L198.095 307.942C197.998 307.935 197.536 307.889 197.075 307.78C196.845 307.727 196.613 307.654 196.434 307.57C196.253 307.487 196.135 307.383 196.101 307.318L196.072 307.333H196.103L196.101 307.318L196.072 307.333H196.103H196.079L196.103 307.338V307.333H196.079L196.103 307.338L196.108 307.328C196.12 307.296 196.193 307.214 196.316 307.13C196.499 306.999 196.787 306.857 197.113 306.719C197.44 306.584 197.807 306.453 198.165 306.339L198.6 306.202L197.459 305.305L197.333 305.351C196.91 305.506 196.483 305.566 196.086 305.566C195.75 305.566 195.438 305.523 195.175 305.455C194.912 305.387 194.697 305.295 194.564 305.211C194.542 305.196 194.537 305.187 194.535 305.187V305.179C194.535 305.172 194.537 305.15 194.554 305.117C194.583 305.056 194.653 304.962 194.769 304.86C195.119 304.549 195.857 304.169 196.91 303.913C197.237 303.833 197.546 303.782 197.85 303.744L198.426 303.671L197.577 303.004L197.452 303.05C197.029 303.205 196.601 303.265 196.205 303.265C195.869 303.265 195.557 303.222 195.294 303.154C195.03 303.086 194.815 302.995 194.682 302.91C194.66 302.895 194.655 302.886 194.653 302.886V302.879C194.653 302.871 194.655 302.85 194.672 302.816C194.701 302.755 194.771 302.661 194.887 302.56C195.238 302.248 195.975 301.868 197.029 301.612C197.466 301.506 197.877 301.443 198.264 301.412L198.725 301.373L198.051 300.558L197.918 300.578C197.756 300.599 197.597 300.609 197.44 300.609C196.937 300.609 196.466 300.503 196.081 300.353C195.697 300.203 195.395 300.007 195.24 299.853C195.211 299.821 195.219 299.821 195.216 299.821C195.216 299.821 195.216 299.809 195.231 299.785C195.255 299.742 195.332 299.662 195.46 299.584C195.654 299.466 195.958 299.345 196.354 299.253C196.751 299.161 197.239 299.096 197.807 299.082C197.889 299.079 197.969 299.079 198.049 299.079C198.996 299.079 199.794 299.232 200.371 299.488C200.661 299.616 200.893 299.768 201.065 299.937C201.236 300.106 201.35 300.288 201.406 300.483C201.427 300.563 201.439 300.641 201.439 300.718C201.439 300.926 201.365 301.141 201.246 301.341C201.128 301.542 200.971 301.728 200.83 301.871L200.695 302.006L200.797 302.168C200.818 302.202 200.835 302.219 200.843 302.228L200.847 302.233L200.925 302.175L200.84 302.221L200.847 302.233L200.925 302.175L200.84 302.221L201.055 302.108Z" fill="#3D5C9B"/>
<path d="M192.254 305.208C191.41 308 189.126 309.781 187.152 309.184C185.177 308.587 184.264 305.842 185.107 303.048C185.951 300.256 188.235 298.475 190.209 299.072C192.184 299.669 193.097 302.417 192.254 305.208Z" fill="#486DB7"/>
<path d="M280.818 417.46C274.657 444.071 247.023 462.524 197.721 465.876C98.1698 472.638 43.3228 466.627 23.7877 419.292C19.3698 408.592 17.6563 394.768 17.898 379.666C25.4118 382.672 39.4003 390.889 54.5924 412.904C77.1315 445.587 122.587 462.117 177.436 454.978C230.809 448.04 263.206 440.376 280.818 417.46Z" fill="#65BAA6"/>
</svg>
