<svg width="481" height="282" viewBox="0 0 481 282" fill="none" xmlns="http://www.w3.org/2000/svg">
<path d="M72.8135 217.749C74.824 216.697 76.9533 215.756 79.2466 215.147C83.9082 213.91 89.1413 214.039 93.9999 215.512C97.436 216.554 100.645 218.251 103.747 219.892C105.289 220.707 106.881 221.546 108.493 222.308C112.786 224.329 119.038 226.414 124.457 224.881C124.534 224.979 124.607 225.076 124.69 225.182C127.365 228.687 129.471 232.547 131.505 236.283C134.371 241.544 137.337 246.987 141.964 251.562C142.513 252.107 143.084 252.634 143.671 253.145C139.233 255.179 133.896 254.989 130.092 254.441C125.872 253.84 121.687 252.563 117.641 251.335C116.806 251.083 115.97 250.829 115.134 250.584C111.816 249.601 107.953 248.541 104.111 248.434C103.412 248.415 102.731 248.434 102.063 248.466C100.475 244.674 98.812 240.91 96.0029 237.46C89.4345 229.383 79.8676 224.412 72.8135 217.749Z" fill="#DAE1F0"/>
<path d="M53.797 155.812C56.0316 157.607 58.4752 159.28 60.8391 160.896C65.1128 163.819 69.5294 166.844 72.6782 170.601C75.9865 174.547 77.8572 179.249 79.579 183.874C75.8422 183.647 71.964 181.691 67.7444 177.902C67.0422 177.272 66.3384 176.611 65.6587 175.972C62.9519 173.43 60.1549 170.803 56.5219 169.163C53.4106 167.757 50.0046 167.222 46.6707 167.089C45.7805 165.64 44.8843 164.173 43.982 162.687C41.1715 158.041 38.5579 153.167 38.1173 148.491C37.8166 145.301 38.7715 142.224 40.9369 140.309C43.8828 146.062 48.2948 151.392 53.797 155.812Z" fill="#DAE1F0"/>
<path d="M90.4498 179.969C90.1249 180.484 89.8016 181 89.4858 181.517C86.3746 186.627 85.1881 191.185 85.9279 195.111C84.0302 191.917 82.7174 188.374 81.3655 184.721C79.4904 179.656 77.552 174.419 73.8467 169.991C70.5685 166.083 66.0603 162.991 61.7024 160.009C59.364 158.408 56.946 156.755 54.758 154.998C49.2904 150.604 44.9249 145.286 42.0708 139.553C45.0708 138.258 49.3069 138.443 53.2528 139.743C58.6813 141.53 63.6678 145.032 68.3204 148.611C77.3024 155.525 85.3565 162.152 94.2422 167.864C94.4541 169.361 94.4063 170.884 94.1009 172.364C93.5219 175.079 91.9595 177.564 90.4498 179.969Z" fill="#DAE1F0"/>
<path d="M56.1204 169.85C59.579 171.413 62.3159 173.98 64.9595 176.463C65.6437 177.107 66.3505 177.771 67.0647 178.408C71.5835 182.467 75.7866 184.517 79.8798 184.679L79.9881 184.968C82.4377 191.581 84.97 198.43 91.4753 203.17C94.4422 205.333 97.967 206.823 101.376 208.264C102.779 208.857 104.233 209.467 105.612 210.119C112.928 213.552 119.223 218.397 123.901 224.172C118.854 225.517 112.979 223.54 108.914 221.627C107.326 220.875 105.746 220.043 104.217 219.234C101.059 217.567 97.8061 215.843 94.2617 214.77C89.1941 213.234 83.7354 213.098 78.8783 214.388C76.4723 215.028 74.2467 216.008 72.158 217.113C68.373 213.391 65.3986 209.114 64.1505 203.484C61.3189 190.735 54.5264 179.856 47.176 167.906C50.2256 168.066 53.3174 168.587 56.1204 169.85Z" fill="#DAE1F0"/>
<path d="M99.0646 88.0558C91.0135 80.1255 78.9578 79.8549 73.827 87.4891C73.7984 87.5297 73.7714 87.5703 73.7443 87.6124C70.1804 92.9889 69.0315 100.652 72.7217 107.435C74.6165 110.919 77.7082 114.107 78.4225 117.781C79.6255 124.008 73.6646 127.613 70.8947 132.526C68.212 137.282 68.6661 144.026 72.045 149.632C75.2029 154.87 80.8059 159.465 81.4661 165.073C81.8992 168.761 79.9954 171.808 78.1759 174.61C75.2841 179.067 72.4135 183.659 71.2691 189.082C70.1247 194.505 70.9368 200.971 74.7774 206.172C77.9473 210.462 82.9684 213.687 84.9819 218.439C86.9578 223.098 85.4044 227.744 85.8601 232.485C86.7232 241.435 95.3668 250.183 104.49 252.696C108.299 253.759 112.312 253.868 116.173 253.014C117.018 252.834 117.893 252.853 118.729 253.071C122.743 254.064 126.755 254.214 130.391 253.279C138.644 251.155 144.066 242.724 141.564 233.739C140.238 228.978 136.923 224.229 137.158 219.61C137.397 214.909 141.245 211.882 142.825 207.699C144.741 202.629 143.126 196.145 139.926 190.624C136.726 185.103 132.107 180.341 127.508 175.718C124.618 172.809 121.549 169.65 120.591 165.948C119.144 160.322 123.063 155.94 124.274 150.801C125.57 145.301 123.486 138.521 118.991 133.603C114.344 128.522 106.968 124.619 105.844 118.393C105.179 114.719 107.095 111.644 107.693 108.217C108.859 101.543 104.813 93.763 99.1939 88.179L99.0646 88.0558Z" fill="#6C8AC5"/>
<path d="M108.069 144.323C110.839 144.416 113.66 144.712 116.462 145.453C122.147 146.956 127.636 150.263 131.919 154.772C134.944 157.957 137.332 161.703 139.651 165.325C140.8 167.129 141.988 168.982 143.247 170.765C146.598 175.512 151.991 181.511 158.668 183.163C158.69 183.313 158.717 183.463 158.738 183.614C159.49 188.957 159.406 194.334 159.34 199.533C159.235 206.86 159.126 214.436 161.295 222.099C161.553 223.01 161.842 223.915 162.161 224.813C156.227 224.287 150.665 220.851 146.958 217.97C142.839 214.768 139.153 210.887 135.589 207.134C134.853 206.36 134.115 205.587 133.377 204.815C130.441 201.76 126.971 198.299 122.952 195.858C122.222 195.407 121.49 195.016 120.758 194.655C121.343 189.665 121.828 184.658 120.908 179.295C118.761 166.744 111.579 155.674 108.069 144.323Z" fill="#DAE1F0"/>
<path d="M124.95 67.0079C126.248 70.2666 127.844 73.5224 129.386 76.6713C132.176 82.3636 135.06 88.2452 136.153 94.1523C137.301 100.344 136.477 106.478 135.538 112.43C131.704 109.929 128.755 105.504 126.54 98.9216C126.171 97.8274 125.82 96.7001 125.487 95.6148C124.134 91.2769 122.735 86.7917 119.857 82.8506C117.393 79.4746 114.093 76.8382 110.633 74.6842C110.554 72.604 110.48 70.5026 110.411 68.3803C110.206 61.7411 110.349 54.9802 112.686 49.7494C114.281 46.1811 117.134 43.4875 120.58 42.7645C120.256 50.6453 121.75 58.9814 124.95 67.0079Z" fill="#DAE1F0"/>
<path d="M167.657 139.391C166.471 140.38 165.152 141.273 163.875 142.136C162.299 143.203 160.669 144.308 159.247 145.615C154.983 149.538 152.65 155.328 152.732 161.659C151.517 159.494 150.19 157.393 148.756 155.364C147.653 153.806 146.466 152.264 145.316 150.76C142.63 147.261 139.853 143.643 138.098 139.762C137.03 137.409 136.295 134.917 135.914 132.361C136.215 126.454 140.323 121.25 148.165 116.879C148.806 116.521 149.454 116.173 150.105 115.827C153.209 114.154 156.421 112.425 158.747 109.792C159.839 108.547 160.737 107.145 161.411 105.633C164.672 111.699 168.361 117.638 172.82 123.505C173.871 124.886 174.848 126.322 175.744 127.808C173.872 132.257 171.329 136.331 167.657 139.391Z" fill="#DAE1F0"/>
<path d="M160.964 199.912C161.039 194.651 161.114 189.217 160.362 183.753C159.39 176.773 157.054 169.775 153.535 163.129L153.877 163.18C153.438 156.597 155.699 150.508 160.083 146.474C161.463 145.203 163.069 144.117 164.623 143.066C165.914 142.191 167.25 141.288 168.466 140.273C172.06 137.279 174.596 133.359 176.475 129.075C185.898 145.984 179.358 161.004 184.4 178.891C187.465 189.76 195.615 199.085 199.304 209.864C202.531 219.296 201.976 228.888 199.79 237.008C198.799 240.694 197.463 244.211 195.338 246.883C192.209 250.818 187.629 252.639 182.767 253.629C174.765 244.46 166.171 233.638 162.869 222.007C160.752 214.574 160.862 207.116 160.964 199.912Z" fill="#DAE1F0"/>
<path d="M132.666 205.457C133.403 206.224 134.138 206.995 134.871 207.77C138.48 211.562 142.198 215.484 146.405 218.754C150.314 221.795 156.224 225.427 162.558 225.9C166.468 236.214 173.986 245.715 181.119 253.925C180.275 254.067 179.426 254.188 178.579 254.295C175.663 254.679 172.719 254.814 169.78 254.701C166.793 254.847 163.798 254.75 160.826 254.411C154.155 253.694 147.056 252.216 140.764 247.229C137.436 244.593 134.514 241.104 131.857 237.441C126.005 229.374 121.111 219.816 120.062 210.37C119.495 205.267 120.069 200.474 120.636 195.689C121.271 196.011 121.905 196.354 122.538 196.742C126.406 199.086 129.794 202.467 132.666 205.457Z" fill="#DAE1F0"/>
<path d="M149.427 114.859C148.774 115.211 148.122 115.561 147.472 115.92C141.104 119.472 137.117 123.586 135.553 128.211C135.448 123.669 136.174 119.11 136.925 114.41C137.965 107.894 139.042 101.155 137.755 94.208C136.621 88.0648 133.684 82.0584 130.827 76.252C129.301 73.1361 127.722 69.915 126.451 66.7239C123.271 58.747 121.818 50.4544 122.218 42.6353C126.18 43.0742 130.57 45.8354 133.985 49.6051C138.683 54.7908 141.883 61.5307 144.683 68.1518C150.086 80.9281 154.675 92.8507 160.693 104.3C160.024 106.017 159.062 107.605 157.85 108.994C155.62 111.53 152.472 113.219 149.427 114.859Z" fill="#DAE1F0"/>
<path d="M119.012 83.3316C121.755 87.0893 123.122 91.4693 124.442 95.7065C124.785 96.8038 125.138 97.9386 125.511 99.0464C127.883 106.094 131.114 110.813 135.374 113.466C135.353 113.589 135.334 113.714 135.314 113.838C133.961 122.352 132.549 131.157 136.621 140.131C138.478 144.225 141.331 147.947 144.09 151.536C145.225 153.015 146.4 154.542 147.48 156.071C153.194 164.147 156.985 173.104 158.498 182.074C152.332 180.45 147.271 174.793 144.098 170.299C142.859 168.544 141.68 166.692 140.54 164.914C138.189 161.234 135.758 157.43 132.636 154.142C128.171 149.445 122.448 145.994 116.52 144.426C113.574 143.646 110.628 143.344 107.749 143.254C105.956 137.009 105.358 130.664 107.4 123.927C112.03 108.665 111.331 92.998 110.677 75.8477C113.821 77.8603 116.791 80.2893 119.012 83.3316Z" fill="#DAE1F0"/>
<path d="M394.559 260.074L169.244 259.487C158.337 259.46 150.639 250.256 152.048 238.929L173.749 64.8886C174.997 55.598 178.433 51.4179 189.34 51.4449L428.438 52.0326C436.295 52.0326 440.973 56.7599 440.005 64.8886L419.671 239.617C418.26 250.943 405.468 260.103 394.559 260.074Z" fill="#324B7F"/>
<path d="M426.062 57.044L192.908 56.5164C182.519 56.4908 179.88 60.0411 178.489 70.3614L158.574 236.574C157.183 246.894 163.838 246.024 174.227 246.043L391.108 246.577C401.499 246.604 411.128 247.525 412.52 237.206L432.956 72.2147C434.083 65.5169 433.746 57.044 426.062 57.044Z" fill="white"/>
<path d="M437.349 246.683H160.206C156.831 246.683 154.098 248.487 154.098 250.7V259.09C154.098 261.309 156.831 263.106 160.206 263.106H437.262C440.636 263.106 441.872 261.303 441.872 259.09V250.7C441.872 248.483 440.723 246.683 437.349 246.683Z" fill="#324B7F"/>
<path d="M313.574 246.683H24.8526C21.3187 246.683 19.9924 248.487 19.9924 250.7V259.09C19.9924 261.309 21.3187 263.106 24.8526 263.106H313.574C317.11 263.106 319.974 261.303 319.974 259.09V250.7C319.974 248.483 317.11 246.683 313.574 246.683Z" fill="#1C2A47"/>
<path d="M447.269 229.958C441.359 239.568 446.216 251.824 445.657 263.057H394.32C394.251 262.801 394.17 262.544 394.108 262.289C390.753 249.512 389.525 235.182 396.397 223.839C399.844 218.147 405.213 213.42 406.989 207.036C410.507 194.391 398.627 180.374 404.394 168.545C406.218 164.802 409.571 162.001 411.878 158.522C417.525 150.006 416.173 138.996 415.886 128.85C415.8 125.833 415.998 122.423 418.313 120.432C423.29 116.138 431.056 121.555 433.992 125.659C439.092 132.786 442.522 143.434 441.287 152.098C440.451 157.968 437.486 163.698 438.478 169.543C439.788 177.261 447.304 182.169 452.72 187.921C460.183 195.859 464.025 208.406 458.152 217.532C455.173 222.157 450.15 225.272 447.269 229.958Z" fill="#91A7D3"/>
<path d="M411.981 249.622C415.308 253.38 418.72 257.04 422.131 260.533C421.552 255.873 421.225 251.185 421.151 246.49L421.084 246.413C417.926 242.741 414.811 238.971 411.558 234.883L412.132 234.241C415.202 238.098 418.148 241.671 421.123 245.144C421.078 240.422 421.245 235.703 421.546 231.002C418.839 227.534 415.982 223.763 412.791 219.471L413.384 218.855C416.379 222.882 419.083 226.447 421.635 229.735C421.963 224.982 422.417 220.245 422.922 215.536C420.817 212.678 418.723 209.82 416.641 206.96L414.535 204.072L415.137 203.459L417.242 206.349C419.176 208.998 421.115 211.646 423.06 214.293C423.347 211.666 423.642 209.047 423.945 206.437C424.186 204.332 424.426 202.218 424.663 200.093C421.299 195.509 418.675 191.977 416.172 188.679L416.76 188.054C419.151 191.21 421.653 194.571 424.8 198.853C425.316 194.149 425.791 189.414 426.154 184.663C422.996 180.577 420.042 176.857 417.11 173.295L417.675 172.641C420.46 176.024 423.271 179.555 426.247 183.394C426.576 178.689 426.776 173.97 426.773 169.245C423.4 165.267 420.113 161.557 416.731 157.917L417.262 157.225C420.465 160.672 423.578 164.183 426.767 167.923C426.689 159.364 425.914 150.796 423.967 142.295L424.728 142.05C426.704 150.672 427.484 159.336 427.558 167.999C430.606 164.363 433.34 160.959 435.889 157.619L436.475 158.246C433.769 161.799 430.847 165.423 427.564 169.321C427.564 173.995 427.369 178.664 427.047 183.317C430.412 179.645 433.439 176.253 436.269 172.996L436.821 173.665C433.814 177.137 430.576 180.746 426.949 184.694C426.602 189.367 426.137 194.013 425.632 198.649C429.478 194.619 432.507 191.415 435.337 188.381L435.868 189.074C432.869 192.288 429.656 195.688 425.475 200.06C425.235 202.234 424.99 204.401 424.74 206.563C424.455 209.036 424.175 211.517 423.899 214.006C426.506 211.277 429.12 208.546 431.742 205.816L433.696 203.776L434.218 204.478L432.263 206.518C429.42 209.482 426.582 212.447 423.748 215.415C423.25 220.043 422.8 224.696 422.471 229.365C423.834 227.874 425.265 226.325 426.763 224.717C426.873 225.009 426.999 225.295 427.14 225.572C425.463 227.376 423.883 229.091 422.375 230.745C422.074 235.404 421.901 240.073 421.934 244.746C423.363 243.038 424.845 241.298 426.399 239.505C426.525 239.784 426.666 240.058 426.82 240.325C425.119 242.288 423.502 244.191 421.951 246.057C422.012 250.769 422.328 255.474 422.898 260.153C423.915 258.734 424.978 257.291 426.086 255.824C426.257 256.057 426.441 256.275 426.633 256.5C425.388 258.153 424.198 259.775 423.062 261.369C423.139 261.931 423.205 262.494 423.289 263.057H422.483C422.429 262.693 422.388 262.329 422.332 261.965L422.2 261.832C418.591 258.152 414.972 254.273 411.447 250.297L411.981 249.622Z" fill="#1C2A47"/>
<path d="M405.639 242.92C405.768 247.098 406.359 251.809 403.997 254.964C401.236 258.651 395.995 258.11 392.428 260.76C391.587 261.385 390.873 262.164 390.323 263.057H385.06C385.547 259.127 387.156 255.164 388.994 253.486C390.741 251.893 393.032 251.12 394.6 249.303C397.409 246.049 396.989 240.773 398.14 236.387C399.967 229.428 405.797 224.888 411.684 222.097C407.263 227.618 405.404 235.385 405.639 242.92Z" fill="#486DB7"/>
<path d="M390.376 256.336C389.119 257.839 387.961 260.244 386.929 263.057H380.189C380.014 260.972 379.866 259.171 379.773 257.911C379.171 249.826 378.771 240.972 383.495 234.421C386.138 230.755 390.164 228.203 392.432 224.287C394.185 221.256 394.726 217.66 394.838 214.15C394.956 211.021 394.677 207.89 394.007 204.831C393.522 202.689 392.645 199.707 392.003 197.12C396.373 202.262 399.896 208.893 402.078 215.285C404.75 223.088 405.304 231.875 402.229 239.521C399.644 245.932 394.782 251.054 390.376 256.336Z" fill="#DAE1F0"/>
<path d="M388.406 263.057H380.681C379.644 255.891 376.32 249.058 372.862 242.615C369.854 237 366.621 231.029 367.11 224.665C367.753 216.295 374.532 209.934 380.838 204.479C377.516 210.235 378.582 217.588 381.024 223.779C383.466 229.97 387.15 235.654 389.029 242.036C390.833 248.199 390.772 254.874 389.039 261.047C388.854 261.717 388.636 262.388 388.406 263.057Z" fill="#6C8AC5"/>
<path d="M378.886 263.057C378.589 262.838 378.279 262.637 377.958 262.455C373.597 259.989 367.568 260.934 364.066 257.345C361.069 254.268 361.37 249.378 361.18 245.054C360.839 237.279 358.05 229.408 352.472 224.048C359.528 226.488 366.66 230.734 369.346 237.77C371.039 242.204 370.98 247.672 374.504 250.817C376.472 252.574 379.191 253.199 381.347 254.713C383.387 256.144 385.361 259.491 386.385 263.067L378.886 263.057Z" fill="#DAE1F0"/>
<path fill-rule="evenodd" clip-rule="evenodd" d="M261.49 52.5557C253.132 52.1814 247.14 65.6101 247.14 65.6101C246.583 66.6313 245.984 67.6925 245.376 68.7693C244.824 69.7482 244.264 70.7399 243.722 71.7262C241.82 75.1902 239.85 78.6876 237.846 82.2453C226.736 101.969 214.582 123.547 207.251 151.583C203.011 167.786 217.153 164.616 248.156 157.666C249.734 157.312 251.356 156.949 253.021 156.577L248.79 131.836C247.253 132.164 239.532 134.362 235.144 135.621C234.84 135.713 234.517 135.721 234.209 135.644C233.901 135.568 233.619 135.41 233.393 135.187C233.167 134.964 233.006 134.684 232.925 134.377C232.845 134.07 232.849 133.747 232.937 133.442L233.902 129.985C238.75 112.61 246.123 93.7931 253.253 75.6057C253.593 74.7368 253.907 73.878 254.217 73.022L261.49 71.6976V52.5557Z" fill="#B5C4E2"/>
<path fill-rule="evenodd" clip-rule="evenodd" d="M247.568 65.8213L247.558 65.838C247 66.8628 246.399 67.9271 245.791 69.0033C245.239 69.9825 244.68 70.9718 244.14 71.9552C242.237 75.4217 240.266 78.9212 238.262 82.4782L238.262 82.4789C227.151 102.204 215.025 123.734 207.712 151.703C206.66 155.725 206.795 158.392 207.894 160.088C208.981 161.764 211.12 162.652 214.513 162.831C217.894 163.01 222.39 162.478 228.004 161.458C233.612 160.438 240.298 158.939 248.052 157.201C249.49 156.879 250.964 156.548 252.475 156.211L248.405 132.416C246.151 132.973 239.325 134.917 235.279 136.078C234.893 136.194 234.484 136.203 234.094 136.106L234.209 135.644C234.517 135.721 234.84 135.713 235.144 135.621C239.192 134.459 246.075 132.499 248.324 131.945C248.514 131.899 248.67 131.862 248.79 131.836L253.021 156.577C251.356 156.949 249.734 157.312 248.156 157.666C217.153 164.616 203.011 167.786 207.251 151.583C214.582 123.547 226.736 101.969 237.846 82.2453C239.85 78.6876 241.82 75.1902 243.722 71.7262C244.264 70.7399 244.824 69.7482 245.376 68.7693C245.984 67.6925 246.583 66.6313 247.14 65.6101C247.14 65.6101 253.132 52.1814 261.49 52.5557V71.6976L254.217 73.022C253.907 73.878 253.593 74.7368 253.253 75.6057L252.809 75.432C253.147 74.5694 253.459 73.7157 253.768 72.8601L253.862 72.6025L261.014 71.3003V53.0256C259.229 53.0587 257.544 53.7525 255.994 54.8287C254.312 55.997 252.813 57.5995 251.559 59.2325C250.306 60.8633 249.309 62.5086 248.624 63.7479C248.282 64.367 248.019 64.8832 247.842 65.2438C247.753 65.4241 247.686 65.5653 247.641 65.6609C247.619 65.7087 247.602 65.7451 247.591 65.7692C247.586 65.7813 247.581 65.7903 247.579 65.7961L247.576 65.8025L247.575 65.8039L247.575 65.8041L247.568 65.8213ZM233.443 129.857C238.299 112.455 245.682 93.614 252.809 75.432L253.253 75.6057C246.123 93.7931 238.75 112.61 233.902 129.985L232.937 133.442C232.849 133.747 232.845 134.07 232.925 134.377C233.006 134.684 233.167 134.964 233.393 135.187C233.619 135.41 233.901 135.568 234.209 135.644L234.094 136.106C233.703 136.009 233.345 135.809 233.058 135.525C232.771 135.242 232.566 134.887 232.464 134.497C232.362 134.108 232.367 133.699 232.478 133.312C232.478 133.312 232.479 133.311 232.479 133.31L233.443 129.857C233.443 129.857 233.443 129.857 233.443 129.857Z" fill="#1C2A47"/>
<path d="M262.514 78.7742C267.006 78.7742 270.647 73.5843 270.647 67.1823C270.647 60.7803 267.006 55.5905 262.514 55.5905C258.023 55.5905 254.382 60.7803 254.382 67.1823C254.382 73.5843 258.023 78.7742 262.514 78.7742Z" fill="#ECF0F7"/>
<path d="M362.54 40.537C363.191 43.6574 363.226 47.0003 364.723 49.79C366.012 52.1694 368.245 53.8739 369.716 56.1391C371.187 58.4042 371.656 61.8433 369.565 63.6756C368.575 64.5459 367.208 64.8645 366.218 65.7303C363.433 68.1744 365.298 72.5439 365.701 76.1663C366.152 80.2247 364.212 84.5355 360.847 86.951C358.427 88.6886 355.11 89.8174 354.26 92.6628C353.596 94.9069 354.8 97.5238 353.546 99.5139C351.702 102.433 347.012 100.81 344.11 102.66C342.066 103.965 341.448 106.607 340.304 108.747C338.17 112.741 333.59 115.31 329.176 114.991C326.815 114.82 324.456 113.905 322.138 114.506C319.146 115.284 316.981 118.426 313.92 118.729C307.564 119.35 307.29 111.799 303.747 107.261C299.29 101.549 289.065 100.647 287.808 93.4218C287.507 91.7279 287.774 89.7844 286.707 88.4616C285.639 87.1389 283.567 86.9691 282.346 85.7561C280.051 83.4789 281.853 79.192 281.168 76.1363C281.027 75.8672 280.329 74.3025 280.147 74.1311C271.916 56.7569 273.202 37.7322 284.959 27.2842C294.693 18.6279 309.28 17.9439 323.116 23.9774C323.266 23.8782 323.358 23.7564 323.51 23.6617C327.119 21.392 331.126 21.2838 335.164 22.1586C342.571 23.7489 343.824 30.9653 349.799 33.1853C352.084 34.0316 354.734 32.8667 357.114 33.4138C360.193 34.1202 361.889 37.418 362.54 40.537Z" fill="#273B63"/>
<path d="M290.953 71.2166C295.074 69.6339 302.602 69.0853 305.826 67.6693C308 66.7134 310.227 65.6717 312.06 64.2032C312.991 63.4517 314.278 62.1695 315.352 59.742C315.337 59.7706 314.657 56.7133 315.259 58.9905C313.833 53.6184 314.456 48.9408 316.364 45.1139C316.457 42.6518 316.194 39.7884 314.295 36.0172C310.072 27.6269 306.448 27.4495 302.892 24.7184C299.399 22.0414 299.462 22.5179 294.621 20.2903C290.387 18.3363 285.338 18.4325 281.087 20.3173C281.087 20.3173 278.591 21.616 277.663 22.3555C276.663 23.1522 275.738 24.0375 274.788 24.8943C273.493 25.2099 268.638 26.7115 267.236 29.6516C264.486 35.4265 265.532 38.5198 265.532 38.5198C268.725 38.9332 272.72 35.6384 275.187 36.9461C276.262 37.639 276.722 37.9727 277.28 38.5995C280.287 41.9664 282.774 44.7216 282.693 49.5811C282.629 53.5673 279.987 57.6843 281.869 61.3052C283.547 64.5369 288.11 65.6913 290.048 68.7982C290.495 69.5422 290.802 70.3619 290.953 71.2166Z" fill="#273B63"/>
<path d="M278.97 159.178L247.887 166.543C243.526 167.577 239.988 164.711 240.17 160.286L241.232 134.62C241.4 130.562 243.086 129.51 247.096 128.578C261.763 125.151 292.856 114.916 292.856 114.916L295.599 136.244C296.862 146.101 289.123 156.773 278.97 159.178Z" fill="#95E7D4"/>
<path d="M272.059 230.725C271.928 236.724 271.701 241.836 271.408 246.254H358.947C351.982 236.483 345.22 227.28 344.647 210.499C344.045 193.041 348.556 185.498 350.211 169.824C350.211 169.833 356.045 137.667 334.26 123.612L329.624 120.626C316.212 112.385 297.018 105.144 278.6 122.257C273.456 127.04 269.845 133.276 268.155 140.222C267.403 143.289 266.802 146.364 266.253 148.988C266.236 149.032 266.225 149.077 266.22 149.124C266.014 150.108 265.863 151.103 265.768 152.104C265.705 152.802 265.665 153.501 265.641 154.208L265.725 154.275C265.414 172.695 272.83 195.291 272.059 230.725Z" fill="#95E7D4"/>
<path d="M297.986 83.061C302.241 79.8489 310.785 76.6969 314.054 73.9793C316.26 72.1485 318.496 70.1945 320.135 67.8767C320.967 66.6983 322.035 64.7789 322.477 61.6058C322.477 61.6434 320.672 58.3276 322.119 60.7581C318.69 55.0087 317.865 49.3782 318.81 44.3052C318.104 41.4178 316.856 38.1876 313.397 34.4509C305.728 26.1358 301.469 27.1354 296.445 25.1648C291.511 23.2288 291.741 23.7594 285.394 22.7944C281.219 22.1601 276.235 23.0454 272.188 25.0491C270.119 26.0772 268.412 27.7246 267.183 29.6891C266.919 30.1145 266.651 30.5248 266.419 30.8495C266.281 31.0439 266.145 31.2403 266.012 31.4387C264.64 33.4345 262.98 35.2164 261.086 36.7266C259.216 38.2432 257.311 40.4558 256.746 42.7901C254.516 51.9875 257.704 58.0104 257.704 58.0104C261.54 57.4227 265.083 47.9021 268.38 48.5935C269.854 49.0445 270.498 49.2714 271.352 49.8095C275.949 52.709 279.744 55.0704 281.26 60.7295C282.504 65.3711 280.809 71.0242 284.179 74.5881C287.186 77.7731 292.862 77.5942 296.137 80.5403C296.905 81.2585 297.532 82.1133 297.986 83.061Z" fill="#273B63"/>
<path d="M307.405 81.3505C306.221 84.9354 304.626 87.9175 302.663 90.1737C302.644 90.1947 302.65 90.2819 302.63 90.2624C297.077 84.5611 297.399 77.8799 297.399 77.8799C298.919 76.7165 299.955 74.0289 299.893 70.9145C299.815 66.781 297.842 63.4727 295.487 63.5268C295.308 63.5268 295.155 63.6606 294.987 63.7177L310.626 49.1377C312.6 56.4081 312.236 66.7028 307.405 81.3505Z" fill="#273B63"/>
<path fill-rule="evenodd" clip-rule="evenodd" d="M293.703 116.055L282.582 83.0851C281.85 80.9101 282.618 78.663 284.292 78.0918L296.459 73.9432C298.132 73.3721 300.101 74.6858 300.835 76.8608L314.599 117.668C314.78 118.202 314.87 118.739 314.879 119.256C316.17 121.25 315.721 124.007 313.547 125.961C309.383 129.707 305.281 133.504 301.242 137.353C298.898 139.588 295.002 139.314 293.764 136.816C290.909 131.051 290.187 129.683 289.563 128.272C289.125 127.279 288.734 126.265 287.684 123.685C286.361 120.434 289.687 117.748 293.703 116.055Z" fill="#B5C4E2"/>
<path fill-rule="evenodd" clip-rule="evenodd" d="M294.296 116.322L293.888 116.494C291.908 117.329 290.146 118.39 289.045 119.605C287.959 120.804 287.553 122.099 288.126 123.506C288.474 124.361 288.749 125.042 288.977 125.607C289.439 126.754 289.708 127.42 289.999 128.079C290.412 129.013 290.866 129.924 291.974 132.145C292.526 133.252 293.24 134.684 294.191 136.605C294.718 137.668 295.827 138.292 297.122 138.384C298.416 138.477 299.843 138.029 300.913 137.008C304.956 133.156 309.061 129.356 313.229 125.607C315.263 123.779 315.619 121.275 314.479 119.514L314.404 119.4L314.402 119.263C314.395 118.797 314.313 118.308 314.147 117.822L314.147 117.82L300.383 77.0129C300.383 77.0129 300.383 77.0129 300.383 77.0129C300.047 76.0172 299.433 75.2343 298.734 74.7683C298.036 74.3026 297.279 74.1665 296.613 74.394L284.446 78.5425C284.446 78.5425 284.446 78.5425 284.446 78.5425C283.779 78.7702 283.259 79.3424 282.986 80.1411C282.712 80.9397 282.699 81.9374 283.034 82.933C283.034 82.933 283.034 82.9331 283.034 82.9332L294.296 116.322ZM282.582 83.0851C281.85 80.9101 282.618 78.663 284.292 78.0918L296.459 73.9432C298.132 73.3721 300.101 74.6858 300.835 76.8608L314.599 117.668C314.78 118.202 314.87 118.739 314.879 119.256C316.17 121.25 315.721 124.007 313.547 125.961C309.383 129.707 305.281 133.504 301.242 137.353C298.898 139.588 295.002 139.314 293.764 136.816C292.819 134.907 292.107 133.48 291.556 132.375C290.442 130.14 289.981 129.216 289.563 128.272C289.269 127.605 288.996 126.929 288.53 125.775C288.303 125.211 288.029 124.532 287.684 123.685C286.361 120.434 289.687 117.748 293.703 116.055L282.582 83.0851Z" fill="#1C2A47"/>
<path fill-rule="evenodd" clip-rule="evenodd" d="M255.998 56.5611C255.853 49.5266 259.1 43.2331 264.157 39.056L300.28 56.2364L300.443 64.2021C303.721 64.3825 306.377 67.6234 306.458 71.6491C306.542 75.8367 303.811 79.2908 300.353 79.3615C300.225 79.3641 300.098 79.3621 299.972 79.3555C297.596 88.803 289.117 95.9356 278.953 96.1451C266.775 96.3961 256.611 86.62 256.362 74.4193L255.998 56.5611Z" fill="#B5C4E2"/>
<path fill-rule="evenodd" clip-rule="evenodd" d="M300.443 64.2021L300.28 56.2364L264.157 39.056C259.1 43.2331 255.853 49.5266 255.998 56.5611L256.362 74.4193C256.611 86.62 266.775 96.3961 278.953 96.1451C289.117 95.9356 297.596 88.803 299.972 79.3555C300.098 79.3621 300.225 79.3641 300.353 79.3615C303.811 79.2908 306.542 75.8367 306.458 71.6491C306.377 67.6234 303.721 64.3825 300.443 64.2021ZM256.838 74.4096C256.838 74.4097 256.838 74.4096 256.838 74.4096C257.083 86.3485 267.03 95.9144 278.943 95.6689C288.885 95.4639 297.184 88.4859 299.51 79.2394L299.606 78.8596L299.997 78.8799C300.112 78.8858 300.227 78.8877 300.343 78.8853C303.456 78.8217 306.062 75.6737 305.981 71.6587C305.904 67.8035 303.374 64.8404 300.417 64.6776L299.975 64.6533L299.81 56.5401L264.229 39.6176C259.408 43.709 256.335 49.782 256.474 56.5513L256.838 74.4096Z" fill="#1C2A47"/>
<path d="M306.722 47.4978C304.14 42.3647 303.308 35.8518 298.659 32.5555C295.782 30.5158 292.042 30.2363 288.546 30.4843C284.335 30.7849 280.201 31.7424 276.086 32.6983L267.108 34.7831C266.764 34.8628 266.406 34.95 266.135 35.1814C265.835 35.4385 265.693 35.8323 265.562 36.2065C265.053 37.663 263.039 41.2043 263.457 42.7044C263.925 44.3864 266.053 44.4104 267.463 44.4811C281.968 45.2041 290.559 53.5147 293.818 58.3261C296.505 62.2927 297.988 67.0125 300.768 70.9115C302.572 73.4395 304.887 75.561 307.562 77.1388C307.674 77.205 307.797 77.2561 307.91 77.3192L315.353 58.8522C312.313 55.1861 308.86 51.753 306.722 47.4978Z" fill="#273B63"/>
<path d="M306.26 78.4946C310.752 78.4946 314.393 73.3048 314.393 66.9028C314.393 60.5008 310.752 55.3109 306.26 55.3109C301.769 55.3109 298.128 60.5008 298.128 66.9028C298.128 73.3048 301.769 78.4946 306.26 78.4946Z" fill="#ECF0F7"/>
<path d="M309.553 78.4946C314.045 78.4946 317.686 73.3048 317.686 66.9028C317.686 60.5008 314.045 55.3109 309.553 55.3109C305.062 55.3109 301.421 60.5008 301.421 66.9028C301.421 73.3048 305.062 78.4946 309.553 78.4946Z" fill="#1C2A47"/>
<path d="M309.068 58.4148C308.882 58.4146 308.703 58.3428 308.569 58.2143C308.434 58.0858 308.354 57.9105 308.346 57.7248C307.835 46.7643 304.344 38.2898 297.97 32.533C288.241 23.7474 274.962 24.3667 274.835 24.3742C274.74 24.3795 274.645 24.3661 274.555 24.3347C274.465 24.3034 274.383 24.2546 274.312 24.1913C274.241 24.128 274.183 24.0514 274.142 23.9658C274.101 23.8802 274.077 23.7874 274.071 23.6925C274.066 23.5977 274.08 23.5027 274.111 23.4131C274.142 23.3234 274.191 23.2408 274.254 23.1699C274.318 23.0991 274.394 23.0414 274.48 23.0002C274.566 22.959 274.659 22.935 274.753 22.9297C275.322 22.9011 288.738 22.2608 298.928 31.4492C305.605 37.4737 309.259 46.2908 309.79 57.6587C309.797 57.8495 309.729 58.0356 309.6 58.1764C309.471 58.3172 309.292 58.4013 309.101 58.4103L309.068 58.4148Z" fill="#1C2A47"/>
<path d="M286.015 90.2713C285.919 90.2729 285.827 90.2365 285.758 90.1699C285.689 90.1034 285.65 90.0123 285.648 89.9166C285.647 89.8209 285.683 89.7286 285.75 89.6598C285.816 89.591 285.907 89.5515 286.003 89.5499C305.681 88.8675 308.205 75.1412 308.229 75.0029C308.236 74.9561 308.253 74.9113 308.279 74.8711C308.304 74.8309 308.336 74.796 308.375 74.7684C308.414 74.7408 308.457 74.7211 308.504 74.7105C308.55 74.6998 308.598 74.6983 308.644 74.7061C308.691 74.7139 308.736 74.7308 308.776 74.7559C308.817 74.781 308.851 74.8138 308.879 74.8524C308.907 74.891 308.926 74.9346 308.937 74.9808C308.948 75.027 308.949 75.0749 308.941 75.1217C308.917 75.272 306.29 89.5694 286.029 90.2713H286.015Z" fill="#1C2A47"/>
<path d="M287.113 88.9291H284.863C284.497 88.9291 284.2 89.2258 284.2 89.5919V90.3209C284.2 90.687 284.497 90.9838 284.863 90.9838H287.113C287.479 90.9838 287.776 90.687 287.776 90.3209V89.5919C287.776 89.2258 287.479 88.9291 287.113 88.9291Z" fill="#ECF0F7"/>
<path fill-rule="evenodd" clip-rule="evenodd" d="M245.777 184.155H245.674L235.349 181.682C233.22 181.173 230.988 182.31 230.271 184.388C229.86 185.601 229.595 186.838 229.86 187.637C230.878 190.723 233.602 194.652 236.123 196.092C240.094 198.357 248.72 197.602 254.159 195.455C254.308 195.531 254.457 195.607 254.607 195.684C255.492 196.135 256.387 196.592 257.278 197.032C259.474 198.115 261.668 199.213 263.873 200.317C282.805 209.789 302.55 219.669 331.016 224.528C347.364 227.327 346.024 213.109 342.251 178.748L317.308 185.634C317.458 187.137 318.731 194.512 319.49 198.912L319.538 199.195C319.767 200.544 318.427 201.921 317.132 201.676L313.815 201.046C297.165 197.887 279.373 192.298 262.167 186.887C261.186 186.578 259.863 186.174 258.563 185.778C257.592 185.481 256.635 185.189 255.843 184.943C255.618 184.735 255.416 184.547 255.232 184.376C253.51 182.776 253.369 182.646 250.856 181.04C248.938 179.81 246.81 178.944 244.579 178.485C243.562 178.281 243.138 179.415 243.85 180.084C244.701 180.887 245.52 181.938 246.355 183.792C246.457 184.021 246.038 184.122 245.777 184.155Z" fill="#B5C4E2"/>
<path fill-rule="evenodd" clip-rule="evenodd" d="M245.617 184.631L235.238 182.145C235.238 182.145 235.238 182.145 235.238 182.145C233.333 181.689 231.355 182.711 230.722 184.542C230.522 185.133 230.362 185.716 230.284 186.238C230.204 186.77 230.215 187.192 230.313 187.488L230.313 187.488C230.804 188.976 231.713 190.686 232.814 192.202C233.918 193.724 235.182 195.006 236.36 195.679C238.223 196.742 241.258 197.125 244.566 196.953C247.854 196.781 251.318 196.064 253.983 195.012L254.184 194.933L254.375 195.03C254.519 195.104 254.662 195.177 254.806 195.25L254.824 195.259C255.709 195.711 256.601 196.166 257.489 196.605C259.686 197.689 261.881 198.787 264.085 199.89L264.087 199.891C283.016 209.362 302.706 219.213 331.097 224.058L331.097 224.058C335.133 224.749 337.963 224.368 339.926 222.997C341.887 221.628 343.099 219.192 343.709 215.495C344.318 211.802 344.311 206.936 343.911 200.822C343.519 194.845 342.755 187.709 341.838 179.356L317.83 185.984C318.107 188.089 319.251 194.726 319.959 198.831L320.008 199.115C320.153 199.97 319.799 200.798 319.249 201.365C318.699 201.931 317.887 202.304 317.044 202.144L317.043 202.144L313.726 201.514C297.044 198.349 279.224 192.751 262.024 187.342C261.045 187.033 259.724 186.63 258.424 186.233L258.423 186.233C257.452 185.937 256.494 185.644 255.702 185.398L255.598 185.366L255.519 185.293C255.294 185.084 255.091 184.896 254.907 184.725C254.042 183.921 253.593 183.505 253.05 183.088C252.505 182.669 251.859 182.246 250.599 181.442L250.598 181.441C248.73 180.243 246.658 179.399 244.484 178.952C244.323 178.92 244.218 178.945 244.154 178.978C244.088 179.012 244.037 179.067 244.006 179.142C243.943 179.292 243.958 179.533 244.176 179.737L244.177 179.738C245.078 180.587 245.932 181.691 246.79 183.597L246.79 183.598C246.883 183.805 246.861 184.03 246.737 184.211C246.637 184.356 246.495 184.436 246.403 184.479C246.21 184.568 245.982 184.609 245.838 184.627L245.808 184.631H245.617ZM244.579 178.485C246.81 178.944 248.938 179.81 250.856 181.04C253.369 182.646 253.51 182.776 255.232 184.376C255.416 184.547 255.618 184.735 255.843 184.943C256.634 185.189 257.592 185.481 258.563 185.778L258.563 185.778C259.863 186.174 261.186 186.578 262.167 186.887C279.373 192.298 297.165 197.887 313.815 201.046L317.132 201.676C318.427 201.921 319.767 200.544 319.538 199.195L319.49 198.912C318.731 194.512 317.458 187.137 317.308 185.634L342.251 178.748C342.269 178.908 342.286 179.068 342.304 179.228C346.036 213.241 347.288 227.313 331.016 224.528C302.55 219.669 282.805 209.789 263.873 200.317L263.872 200.316C261.667 199.213 259.473 198.115 257.278 197.032C256.387 196.592 255.492 196.135 254.608 195.684L254.607 195.684L254.593 195.676C254.448 195.602 254.303 195.528 254.159 195.455C248.72 197.602 240.094 198.357 236.123 196.092C233.602 194.652 230.878 190.723 229.86 187.637C229.595 186.838 229.86 185.601 230.271 184.388C230.988 182.31 233.22 181.173 235.349 181.682L245.674 184.155H245.777C246.038 184.122 246.457 184.021 246.355 183.792C245.52 181.938 244.701 180.887 243.85 180.084C243.138 179.415 243.562 178.281 244.579 178.485Z" fill="#1C2A47"/>
<path d="M349.385 151.488L353.223 182.509C353.353 183.537 353.271 184.581 352.982 185.577C352.693 186.573 352.204 187.499 351.544 188.299C350.884 189.098 350.067 189.755 349.144 190.227C348.221 190.7 347.211 190.978 346.176 191.046L320.902 192.616C316.904 192.864 316.056 191.248 315.574 187.248C313.811 172.606 307.131 141.873 307.131 141.873L328.532 136.863C338.426 134.547 348.132 141.356 349.385 151.488Z" fill="#95E7D4"/>
<path d="M318.668 193.487C317.867 193.242 317.148 192.783 316.588 192.16C316.028 191.537 315.648 190.774 315.489 189.952L307.397 147.565C307.372 147.46 307.369 147.351 307.387 147.245C307.405 147.139 307.445 147.038 307.504 146.947C307.562 146.857 307.638 146.779 307.728 146.719C307.817 146.659 307.918 146.617 308.023 146.597C308.129 146.577 308.238 146.578 308.343 146.601C308.449 146.624 308.548 146.668 308.636 146.73C308.724 146.792 308.798 146.872 308.855 146.964C308.911 147.055 308.948 147.158 308.964 147.264L317.056 189.652C317.196 190.387 317.607 191.044 318.207 191.491C318.808 191.939 319.555 192.145 320.301 192.068L328.137 191.237C328.347 191.22 328.555 191.285 328.717 191.419C328.879 191.554 328.982 191.746 329.004 191.955C329.026 192.164 328.965 192.374 328.834 192.539C328.703 192.704 328.513 192.81 328.304 192.837L320.466 193.668C319.861 193.731 319.249 193.669 318.668 193.487Z" fill="#91A7D3"/>
<path d="M405.738 99.0104C397.117 99.0104 390.099 91.9353 390.099 83.2399C390.099 74.5445 397.113 67.4694 405.738 67.4694C414.364 67.4694 421.377 74.543 421.377 83.2399C421.377 91.9368 414.359 99.0104 405.738 99.0104ZM405.738 67.746C397.272 67.746 390.385 74.6918 390.385 83.2279C390.385 91.7639 397.272 98.7097 405.738 98.7097C414.204 98.7097 421.092 91.7624 421.092 83.2279C421.092 74.6933 414.204 67.7535 405.738 67.7535V67.746Z" fill="#6C8AC5"/>
<path d="M400.232 80.8905C397.18 82.6176 395.708 86.1093 396.344 89.4041C396.399 89.676 396.517 89.9312 396.689 90.1487C396.861 90.3662 397.082 90.5398 397.335 90.6552C397.587 90.7707 397.863 90.8247 398.14 90.8128C398.417 90.801 398.688 90.7236 398.929 90.587L402.481 88.5759C402.752 88.4221 402.951 88.1678 403.036 87.8681C403.12 87.5684 403.083 87.2476 402.932 86.9751L401.729 84.8136C401.59 84.5639 401.555 84.2695 401.632 83.9943C401.709 83.7191 401.892 83.4853 402.14 83.3436L408.349 79.8294C408.471 79.7598 408.607 79.7153 408.747 79.6985C408.886 79.6816 409.028 79.6927 409.164 79.7312C409.3 79.7697 409.426 79.8347 409.536 79.9225C409.647 80.0103 409.738 80.1192 409.806 80.2427L411.009 82.4027C411.083 82.5372 411.182 82.6558 411.302 82.7514C411.422 82.8471 411.56 82.918 411.708 82.9599C411.855 83.0019 412.01 83.0141 412.162 82.9958C412.315 82.9776 412.462 82.9292 412.595 82.8536L416.147 80.844C416.389 80.7065 416.596 80.5142 416.75 80.2826C416.905 80.051 417.003 79.7864 417.037 79.5102C417.07 79.2339 417.039 78.9535 416.945 78.6916C416.851 78.4296 416.697 78.1933 416.495 78.0016C415.269 76.8675 413.715 76.1512 412.057 75.9556C410.398 75.7601 408.72 76.0954 407.265 76.9134L400.232 80.8905Z" fill="#6C8AC5"/>
<path d="M411.594 109.125C411.543 109.129 411.491 109.12 411.444 109.101C411.396 109.082 411.354 109.051 411.32 109.013C411.286 108.974 411.261 108.928 411.248 108.878C411.236 108.829 411.234 108.777 411.245 108.726C411.273 108.614 411.337 108.514 411.429 108.443C411.52 108.372 411.633 108.333 411.749 108.334C411.8 108.33 411.851 108.338 411.899 108.358C411.947 108.377 411.989 108.407 412.023 108.446C412.057 108.485 412.081 108.531 412.094 108.58C412.107 108.63 412.108 108.682 412.098 108.732C412.07 108.845 412.005 108.944 411.914 109.015C411.822 109.087 411.71 109.125 411.594 109.125Z" fill="#6C8AC5"/>
<path d="M411.192 111.176C411.141 111.18 411.09 111.172 411.042 111.152C410.994 111.133 410.952 111.102 410.918 111.063C410.884 111.025 410.86 110.979 410.847 110.929C410.834 110.879 410.833 110.827 410.844 110.777C410.872 110.664 410.937 110.565 411.028 110.494C411.119 110.423 411.232 110.384 411.347 110.384C411.399 110.381 411.45 110.389 411.498 110.409C411.545 110.428 411.588 110.459 411.621 110.497C411.655 110.536 411.68 110.582 411.693 110.632C411.706 110.682 411.707 110.734 411.696 110.784C411.668 110.896 411.603 110.996 411.512 111.067C411.421 111.138 411.308 111.177 411.192 111.176Z" fill="#6C8AC5"/>
<path d="M410.791 113.23C410.74 113.233 410.689 113.225 410.641 113.205C410.594 113.186 410.551 113.156 410.518 113.117C410.484 113.078 410.459 113.033 410.446 112.983C410.433 112.933 410.432 112.882 410.442 112.831C410.47 112.719 410.535 112.619 410.626 112.548C410.718 112.477 410.83 112.439 410.946 112.439C410.997 112.435 411.049 112.443 411.096 112.463C411.144 112.482 411.186 112.512 411.22 112.551C411.254 112.589 411.279 112.635 411.292 112.685C411.305 112.735 411.307 112.787 411.296 112.837C411.268 112.95 411.203 113.049 411.111 113.121C411.02 113.192 410.907 113.23 410.791 113.23Z" fill="#6C8AC5"/>
<path d="M410.391 115.287C410.34 115.291 410.288 115.283 410.24 115.263C410.193 115.243 410.15 115.213 410.116 115.174C410.082 115.136 410.058 115.09 410.045 115.04C410.032 114.99 410.03 114.938 410.04 114.888C410.069 114.776 410.134 114.676 410.225 114.605C410.316 114.534 410.429 114.496 410.544 114.495C410.596 114.492 410.647 114.5 410.695 114.52C410.742 114.539 410.785 114.569 410.819 114.608C410.853 114.647 410.877 114.693 410.89 114.743C410.904 114.792 410.905 114.845 410.895 114.895C410.866 115.007 410.801 115.106 410.71 115.177C410.619 115.248 410.506 115.287 410.391 115.287Z" fill="#6C8AC5"/>
<path d="M408.123 108.508L401.334 108.453L401.14 109.443L407.929 109.499L408.123 108.508Z" fill="#6C8AC5"/>
<path d="M407.744 110.444L400.955 110.389L400.762 111.379L407.552 111.435L407.744 110.444Z" fill="#6C8AC5"/>
<path d="M406.988 114.316L396.716 114.232L396.522 115.223L406.795 115.307L406.988 114.316Z" fill="#6C8AC5"/>
<path d="M397.85 108.424L397.656 109.415L400.072 109.434L400.265 108.444L397.85 108.424Z" fill="#6C8AC5"/>
<path d="M397.471 110.36L397.278 111.351L399.693 111.37L399.887 110.38L397.471 110.36Z" fill="#6C8AC5"/>
<path d="M167.695 248.728C167.536 248.728 167.382 248.67 167.262 248.567C167.142 248.463 167.063 248.32 167.039 248.162L160.692 205.711C160.67 205.538 160.717 205.365 160.821 205.226C160.926 205.088 161.081 204.996 161.253 204.97C161.424 204.945 161.599 204.987 161.74 205.089C161.881 205.19 161.976 205.343 162.006 205.514L168.352 247.966C168.377 248.139 168.333 248.316 168.228 248.457C168.124 248.597 167.968 248.691 167.794 248.717C167.761 248.724 167.728 248.727 167.695 248.728Z" fill="#324B7F"/>
<path fill-rule="evenodd" clip-rule="evenodd" d="M141.518 133.342C141.33 133.33 141.146 133.365 140.989 133.466C140.983 133.47 140.977 133.475 140.971 133.479C141.188 133.466 141.408 133.453 141.624 133.44C141.588 133.408 141.553 133.375 141.518 133.342ZM143.562 134.688C143.473 135.38 143.433 136.078 143.442 136.777C143.442 137.634 142.412 144.007 141.938 145.142C141.83 145.401 141.664 145.415 141.448 145.433C141.329 145.443 141.196 145.454 141.05 145.507C140.488 145.704 140.186 145.912 139.966 146.063C139.55 146.35 139.429 146.433 138.403 145.85C138.357 145.824 137.877 145.719 137.289 145.59C136.288 145.37 134.973 145.081 134.944 144.999C134.899 144.868 136.444 138.826 136.492 138.706C136.75 138.058 136.844 137.461 136.947 136.801C136.97 136.658 136.993 136.511 137.018 136.361C137.065 136.075 137.064 135.694 137.062 135.312C137.061 134.833 137.059 134.353 137.153 134.064C137.306 133.606 137.904 133.611 138.411 133.616C138.534 133.618 138.652 133.619 138.756 133.613C138.837 133.608 139.097 133.593 139.461 133.571L139.461 133.571L139.6 133.562L138.344 132.788C138.295 132.354 138.235 132.029 138.209 131.895C137.646 130.687 137.402 129.354 137.499 128.025L137.925 122.613C138.092 120.485 139.173 118.793 140.677 117.85L149.445 122.507C149.445 122.506 149.445 122.504 149.445 122.502L149.997 122.803L149.666 130.52C149.587 131.436 149.294 132.32 148.812 133.103C148.33 133.885 147.671 134.545 146.889 135.028C146.607 135.094 146.32 135.135 146.032 135.149C145.181 135.176 144.339 135.017 143.562 134.688ZM149.443 122.839C149.443 122.961 149.445 123.085 149.446 123.21V123.21L149.446 123.21C149.447 123.269 149.448 123.328 149.449 123.388C149.449 123.262 149.447 123.137 149.445 123.013C149.445 122.955 149.444 122.897 149.443 122.839Z" fill="white"/>
<path fill-rule="evenodd" clip-rule="evenodd" d="M141.62 133.109L141.683 133.169C141.716 133.201 141.75 133.233 141.785 133.264L142.202 133.644L141.638 133.678C141.422 133.691 141.202 133.704 140.985 133.717L140.365 133.754L139.479 133.808L139.476 133.808L139.451 133.81C139.101 133.831 138.849 133.846 138.77 133.851L138.769 133.851C138.657 133.857 138.533 133.856 138.413 133.855L138.409 133.854C138.148 133.852 137.903 133.851 137.704 133.898C137.515 133.943 137.42 134.019 137.38 134.139C137.343 134.252 137.321 134.418 137.31 134.629C137.299 134.837 137.3 135.07 137.301 135.311L137.301 135.327C137.302 135.697 137.304 136.094 137.253 136.4L137.253 136.4C137.228 136.549 137.205 136.694 137.183 136.838L137.181 136.848C137.079 137.502 136.981 138.122 136.713 138.794M136.713 138.794C136.715 138.789 136.714 138.791 136.711 138.804C136.708 138.814 136.703 138.831 136.696 138.858C136.682 138.907 136.663 138.978 136.64 139.066C136.593 139.242 136.529 139.488 136.454 139.781C136.303 140.366 136.107 141.136 135.914 141.906C135.721 142.677 135.531 143.447 135.392 144.032C135.323 144.325 135.266 144.57 135.229 144.746C135.22 144.786 135.213 144.822 135.207 144.854C135.22 144.858 135.234 144.862 135.249 144.867C135.386 144.907 135.58 144.957 135.808 145.011C136.262 145.121 136.839 145.247 137.34 145.357L137.341 145.357C137.634 145.422 137.902 145.481 138.102 145.526C138.203 145.549 138.288 145.57 138.351 145.586C138.383 145.594 138.411 145.601 138.434 145.608L138.436 145.609C138.451 145.613 138.487 145.624 138.519 145.642L138.521 145.643C139.042 145.939 139.283 146.034 139.432 146.045C139.546 146.054 139.612 146.018 139.831 145.867C140.058 145.711 140.38 145.489 140.97 145.283C141.146 145.219 141.305 145.206 141.422 145.196L141.428 145.196C141.547 145.186 141.597 145.179 141.633 145.162C141.651 145.154 141.683 145.136 141.718 145.05L141.718 145.05C141.827 144.791 141.976 144.203 142.14 143.427C142.302 142.661 142.475 141.734 142.633 140.815C142.791 139.896 142.934 138.986 143.038 138.253C143.142 137.513 143.203 136.973 143.204 136.779C143.195 136.069 143.235 135.36 143.325 134.658L143.365 134.346L143.655 134.469C144.4 134.784 145.207 134.936 146.022 134.911C146.283 134.898 146.542 134.862 146.796 134.804C147.533 134.343 148.153 133.718 148.609 132.978C149.071 132.228 149.351 131.381 149.428 130.504L149.752 122.941L149.682 122.903C149.683 122.938 149.683 122.973 149.684 123.009L149.684 123.01C149.686 123.133 149.688 123.261 149.687 123.39L149.21 123.39C149.21 123.332 149.209 123.273 149.208 123.215C149.208 123.214 149.208 123.214 149.208 123.213L149.208 123.213V123.212C149.206 123.088 149.204 122.963 149.205 122.839L149.558 122.837L140.688 118.126C139.311 119.04 138.319 120.631 138.162 122.632L137.737 128.042C137.737 128.042 137.737 128.042 137.737 128.043C137.643 129.331 137.879 130.623 138.425 131.795L138.438 131.821L138.443 131.85C138.467 131.975 138.52 132.261 138.567 132.646L140.28 133.702L140.828 133.289C140.835 133.283 140.843 133.278 140.85 133.272L140.855 133.269L140.861 133.265C141.069 133.131 141.306 133.09 141.533 133.104L141.62 133.109M138.344 132.788C138.295 132.354 138.235 132.029 138.209 131.895C137.646 130.687 137.402 129.354 137.499 128.025L137.925 122.613C138.092 120.485 139.173 118.793 140.677 117.85L149.445 122.507L149.445 122.502L149.997 122.803L149.666 130.52C149.587 131.436 149.294 132.32 148.812 133.103C148.33 133.885 147.671 134.545 146.889 135.028C146.607 135.094 146.32 135.135 146.032 135.149C145.264 135.173 144.503 135.046 143.79 134.779C143.714 134.75 143.637 134.72 143.562 134.688C143.551 134.77 143.541 134.852 143.532 134.934C143.464 135.545 143.434 136.161 143.442 136.777C143.442 137.634 142.412 144.007 141.938 145.142C141.83 145.401 141.664 145.415 141.448 145.433C141.329 145.443 141.196 145.454 141.05 145.507C140.488 145.704 140.186 145.912 139.966 146.063C139.55 146.35 139.429 146.433 138.403 145.85C138.357 145.824 137.877 145.719 137.289 145.59C136.288 145.37 134.973 145.081 134.944 144.999C134.899 144.868 136.444 138.826 136.492 138.706C136.75 138.058 136.844 137.461 136.947 136.801C136.97 136.658 136.993 136.511 137.018 136.361C137.065 136.075 137.064 135.694 137.062 135.312C137.061 134.833 137.059 134.353 137.153 134.064C137.306 133.606 137.904 133.611 138.411 133.616C138.534 133.618 138.652 133.619 138.756 133.613C138.815 133.61 138.968 133.6 139.186 133.587C139.264 133.583 139.349 133.577 139.442 133.572L139.461 133.571L139.6 133.562L139.455 133.473L139.453 133.471L138.344 132.788ZM149.449 123.388C149.448 123.328 149.447 123.269 149.446 123.21L149.446 123.21C149.445 123.144 149.444 123.078 149.444 123.013C149.443 122.955 149.443 122.897 149.443 122.839C149.444 122.897 149.445 122.955 149.445 123.013C149.446 123.078 149.448 123.144 149.448 123.21C149.449 123.269 149.449 123.328 149.449 123.388ZM140.998 133.478C140.998 133.478 140.997 133.478 140.997 133.478C140.988 133.478 140.98 133.479 140.971 133.479C140.977 133.475 140.983 133.47 140.989 133.466C141.146 133.365 141.33 133.33 141.518 133.342C141.553 133.375 141.588 133.408 141.624 133.44C141.587 133.443 141.549 133.445 141.512 133.447C141.478 133.449 141.445 133.451 141.412 133.453C141.274 133.461 141.136 133.469 140.998 133.478Z" fill="#273B63"/>
<path d="M150.764 119.195C150.266 117.961 148.65 117.79 147.456 117.314C145.579 116.562 146.296 116.736 145.35 115.81C144.923 115.393 142.91 114.945 142.335 114.88C142.244 115.021 142.866 115.441 142.744 115.568C142.478 115.848 142.865 116.045 142.444 116.239C140.204 117.28 138.81 118.944 137.77 120.88C137.857 121.022 137.928 121.174 137.982 121.331C138.055 121.556 138.054 121.799 137.978 122.023C137.902 122.247 137.756 122.44 137.561 122.574C137.367 122.688 137.14 122.731 136.917 122.698C136.165 124.489 135.573 126.419 134.832 128.286C134.964 128.619 135.053 128.967 135.095 129.323C135.236 130.862 133.69 132.819 136.532 133.574C138.83 134.184 138.226 134.45 139.066 134.988C139.274 135.118 139.515 135.185 139.759 135.181C142.607 135.128 144.931 133.467 146.075 130.915C146.97 130.06 147.759 129.101 148.427 128.059C148.462 128.175 148.511 128.27 148.606 128.265C148.958 128.244 149.013 126.831 149.075 126.473C149.236 125.528 150.352 124.369 150.698 123.488C151.17 122.319 151.263 120.435 150.764 119.195ZM136.391 130.61C136.647 130.986 136.955 131.325 137.307 131.614C136.936 131.345 136.624 131.004 136.391 130.61Z" fill="#91A7D3"/>
<path d="M147.218 131.521C148.08 131.662 148.806 130.769 148.839 129.537C148.87 128.822 148.642 128.121 148.195 127.562C148.059 127.471 147.905 127.409 147.744 127.378C146.881 127.235 146.156 128.13 146.123 129.362C146.093 130.076 146.321 130.776 146.767 131.334C146.904 131.425 147.057 131.488 147.218 131.521Z" fill="white"/>
<path fill-rule="evenodd" clip-rule="evenodd" d="M148.601 129.528L148.601 129.526C148.629 128.882 148.428 128.25 148.033 127.741C147.932 127.679 147.82 127.635 147.703 127.613C147.374 127.559 147.058 127.697 146.807 128.005C146.553 128.317 146.377 128.795 146.362 129.369L146.362 129.371L146.361 129.372C146.334 130.015 146.535 130.647 146.929 131.155C147.031 131.217 147.144 131.262 147.261 131.287C147.589 131.338 147.904 131.201 148.155 130.893C148.409 130.582 148.585 130.104 148.601 129.53L148.601 129.528ZM147.218 131.521C147.057 131.488 146.904 131.425 146.767 131.334C146.321 130.776 146.093 130.076 146.123 129.362C146.156 128.13 146.881 127.235 147.744 127.378C147.905 127.409 148.059 127.471 148.195 127.562C148.642 128.121 148.87 128.822 148.839 129.537C148.806 130.769 148.08 131.662 147.218 131.521Z" fill="#273B63"/>
<path d="M165.962 233.909L164.156 243.461L168.559 244.74L171.165 233.731L165.962 233.909Z" fill="white"/>
<path fill-rule="evenodd" clip-rule="evenodd" d="M164.431 243.292L168.385 244.441L170.861 233.98L166.161 234.14L164.431 243.292ZM165.962 233.909L164.156 243.461L168.559 244.74L171.165 233.731L165.962 233.909Z" fill="#273B63"/>
<path d="M139.038 234.332L137.232 243.886L141.657 244.239L144.241 234.157L139.038 234.332Z" fill="white"/>
<path fill-rule="evenodd" clip-rule="evenodd" d="M137.232 243.886L141.657 244.239L144.241 234.157L139.038 234.332L137.232 243.886ZM139.236 234.564L137.515 243.67L141.476 243.986L143.931 234.405L139.236 234.564Z" fill="#273B63"/>
<path d="M164.144 243.482C167.221 243.8 173.874 246.136 173.874 246.136C176.072 246.847 175.298 249.025 172.833 249.06L163.454 249.194C163.003 249.194 162.66 248.938 162.735 248.646L164.036 243.646C164.058 243.583 164.095 243.527 164.144 243.482Z" fill="#91A7D3"/>
<path d="M137.573 243.321C140.65 243.64 147.302 245.975 147.302 245.975C149.501 246.686 148.726 248.864 146.263 248.899L136.883 249.033C136.432 249.033 136.089 248.777 136.164 248.486L137.465 243.485C137.487 243.422 137.524 243.366 137.573 243.321Z" fill="#91A7D3"/>
<path d="M149.459 195.538L147.841 196.304C147.567 199.195 146.134 202.789 144.272 208.826C142.202 215.542 139.626 223.901 137.976 232.021C137.884 232.474 137.898 232.943 138.015 233.39C138.133 233.838 138.352 234.252 138.656 234.602C138.958 234.951 139.332 235.231 139.753 235.423C140.174 235.614 140.631 235.712 141.093 235.709H141.144L147.128 235.619C147.789 235.615 148.431 235.404 148.966 235.016C149.5 234.628 149.899 234.082 150.107 233.455C153.496 223.026 156.364 215.626 158.668 209.682C160.654 204.559 162.087 200.859 162.878 197.68L163.08 196.874L149.459 195.538Z" fill="#11192B"/>
<path d="M142.341 114.859C142.341 114.859 126.617 116.006 133.43 131.507C133.43 131.507 151.88 118.929 142.341 114.859Z" fill="#91A7D3"/>
<path d="M123.355 204.349C123.355 204.535 123.391 204.72 123.462 204.892C123.534 205.065 123.638 205.221 123.77 205.353C123.902 205.485 124.058 205.59 124.231 205.661C124.403 205.732 124.588 205.769 124.774 205.769H163.529C163.898 205.757 164.247 205.602 164.504 205.337C164.761 205.072 164.904 204.718 164.904 204.349C164.904 203.981 164.761 203.626 164.504 203.362C164.247 203.097 163.898 202.942 163.529 202.93H124.774C124.588 202.93 124.403 202.966 124.231 203.037C124.058 203.109 123.902 203.213 123.77 203.345C123.638 203.477 123.534 203.633 123.462 203.805C123.391 203.978 123.355 204.162 123.355 204.349Z" fill="#DAE1F0"/>
<path d="M119.125 249.213C119.092 249.215 119.059 249.215 119.026 249.213C118.852 249.187 118.696 249.093 118.591 248.953C118.486 248.812 118.441 248.635 118.466 248.462L124.812 206.002C124.842 205.831 124.937 205.679 125.078 205.577C125.219 205.475 125.394 205.433 125.566 205.459C125.737 205.484 125.892 205.576 125.997 205.715C126.102 205.853 126.148 206.027 126.126 206.199L119.781 248.651C119.756 248.807 119.677 248.95 119.557 249.053C119.437 249.156 119.283 249.213 119.125 249.213Z" fill="#324B7F"/>
<path d="M138.57 248.728C138.537 248.731 138.504 248.731 138.471 248.728C138.297 248.702 138.141 248.608 138.036 248.467C137.931 248.326 137.886 248.15 137.911 247.976L144.257 205.524C144.287 205.353 144.382 205.201 144.523 205.099C144.664 204.998 144.839 204.955 145.011 204.981C145.182 205.007 145.337 205.098 145.442 205.237C145.547 205.375 145.593 205.549 145.571 205.721L139.226 248.161C139.202 248.318 139.124 248.462 139.003 248.566C138.883 248.67 138.729 248.728 138.57 248.728Z" fill="#324B7F"/>
<path d="M204.662 55.7212C210.949 56.9012 217.466 58.9243 221.722 63.6982C225.257 67.6648 226.784 73.1346 226.743 78.448C226.702 83.7615 225.217 88.9697 223.334 93.9299C221.158 99.6776 218.442 105.207 215.224 110.443C213.361 113.476 211.266 116.473 208.353 118.521C202.14 122.889 193.711 122.02 186.346 120.156C176.868 117.757 167.776 114.037 159.335 109.105C154.674 106.38 150.092 103.154 147.266 98.5549C144.729 94.4259 143.817 89.5364 142.949 84.767C141.836 78.6509 141.205 71.1249 144.815 65.5996C147.774 61.0677 154.289 59.6879 159.165 58.2179C173.85 53.8003 189.593 52.8909 204.662 55.7212Z" fill="#B5C4E2"/>
<path d="M203.971 83.6562C203.708 83.4548 203.435 83.2669 203.153 83.0881C203.057 82.736 202.934 82.3918 202.785 82.0584C203.469 80.0247 203.633 77.8287 203.042 75.7364C202.188 72.7092 199.904 70.0247 196.92 68.9304C196.264 68.6916 195.581 68.5371 194.886 68.4705C194.195 67.3635 193.353 66.3587 192.383 65.4853C187.722 61.3217 180.487 61.1038 175.202 64.2122C173.876 64.9843 172.69 65.9736 171.693 67.1387C171.235 67.6693 170.832 68.2449 170.49 68.8568C169.762 69.0802 169.145 69.5718 168.765 70.2321C168.102 71.3594 168.185 72.6656 168.579 73.8726L168.444 73.9147C166.759 74.4738 165.089 75.4313 164.17 77.005C163.301 78.4946 163.182 80.4095 164.247 81.8345C164.317 81.9292 164.397 82.0118 164.477 82.1005L164.946 82.5755C165.533 83.0795 166.192 83.4929 166.901 83.802C165.576 85.2931 165.152 87.4891 165.498 89.4822C164.868 89.856 164.309 90.3361 163.844 90.9011C163.344 91.5294 163.002 92.305 163.116 93.1227C163.23 93.9404 163.777 94.5792 164.433 95.0512C165.185 95.5908 166.062 95.9681 166.91 96.3228C167.289 96.4821 167.675 96.6234 168.062 96.7647C168.006 96.9606 167.973 97.1624 167.964 97.366C167.913 98.9081 168.857 100.309 169.919 101.342C171.19 102.575 172.695 103.542 174.344 104.188C177.38 105.398 180.758 105.433 183.818 104.288C185.438 105.411 187.382 105.758 189.325 105.701C191 105.648 192.659 105.352 194.25 104.823C197.396 103.758 200.226 101.924 202.483 99.4883C204.493 97.3374 206.11 94.7175 206.965 91.8902C207.088 91.4676 207.169 91.0342 207.209 90.596C207.391 88.7616 206.88 86.9255 205.777 85.4479C205.363 84.8993 204.888 84.3995 204.361 83.9584L203.971 83.6562ZM203.657 84.0125C203.565 84.1267 203.472 84.2394 203.377 84.3522C203.361 84.1507 203.334 83.9523 203.299 83.7509C203.421 83.8381 203.54 83.9238 203.657 84.0125ZM202.922 84.8166C202.535 85.115 202.057 85.2706 201.568 85.257C201.51 85.1578 201.456 85.0541 201.394 84.9564C201.759 84.384 202.081 83.7851 202.356 83.1647C202.484 83.2354 202.609 83.315 202.734 83.3857C202.847 83.8546 202.91 84.3343 202.922 84.8166ZM168.543 82.571L168.474 82.5996C168.368 82.6507 168.269 82.7108 168.173 82.7679C168.18 82.7033 168.194 82.6386 168.203 82.574L168.543 82.571ZM168.29 82.0915C168.417 81.5408 168.62 81.0103 168.892 80.5148C168.931 80.4441 168.977 80.378 169.02 80.3088C168.776 80.8743 168.623 81.4751 168.568 82.0885L168.29 82.0915ZM168.576 83.0911C168.608 83.3954 168.663 83.6968 168.74 83.9929C168.538 83.9253 168.34 83.8546 168.138 83.781C168.131 83.6427 168.125 83.5029 168.128 83.3631C168.271 83.2644 168.419 83.1735 168.571 83.0911H168.576ZM168.856 84.5355L168.911 84.5521C169.196 85.3562 169.638 86.0955 170.212 86.727C170.403 86.9364 170.609 87.1323 170.827 87.3133L170.123 87.5538C169.317 86.9962 168.715 86.1916 168.408 85.2615C168.309 84.9527 168.237 84.6359 168.194 84.3146C168.421 84.3912 168.638 84.4649 168.856 84.5355ZM172.314 74.5174C172.324 74.8431 172.361 75.1673 172.424 75.4869C172.011 76.0881 171.54 76.6413 171.071 77.1959C170.272 76.3109 169.633 75.2937 169.183 74.1897C169.819 74.0138 170.468 73.8882 171.123 73.814C171.489 74.0991 171.891 74.3355 172.317 74.5174H172.314ZM171.863 73.7523C172.014 73.7448 172.173 73.7373 172.329 73.7373C172.32 73.8245 172.319 73.9117 172.314 73.9988C172.286 73.9853 172.256 73.9763 172.227 73.9613C172.111 73.8996 171.991 73.826 171.88 73.7523H171.863ZM178.131 76.4744C178.232 76.5376 178.323 76.6112 178.418 76.6819C178.641 77.0112 178.826 77.3641 178.971 77.734C179.25 78.4623 179.348 79.2474 179.256 80.0217C177.774 79.8714 176.322 79.4776 175.077 78.6209C174.357 78.1322 173.768 77.4734 173.364 76.7029C174.887 76.022 176.659 75.5636 178.14 76.4744H178.131ZM173.168 76.258C173.075 76.0335 172.998 75.8024 172.938 75.5666C173.089 75.3426 173.229 75.1156 173.358 74.8797C174.586 75.2148 175.886 75.302 177.171 75.3201C177.334 75.4523 177.49 75.5906 177.639 75.7379C176.738 75.4419 175.769 75.4189 174.854 75.6718C174.279 75.8229 173.717 76.019 173.173 76.258H173.168ZM188.958 86.8954C189 86.8533 189.048 86.8187 189.09 86.7752C189.132 86.7316 189.176 86.682 189.218 86.6339C189.353 86.7631 189.483 86.8969 189.608 87.0367C189.389 87.008 189.174 86.9607 188.964 86.8954H188.958ZM190.039 87.5688C190.168 87.7477 190.293 87.931 190.406 88.1219C190.427 88.1565 190.445 88.1926 190.465 88.2271C190.062 87.9558 189.646 87.7049 189.218 87.4756C189.49 87.533 189.767 87.5642 190.045 87.5688H190.039ZM189.158 85.9304C188.915 85.7285 188.659 85.5436 188.391 85.3773C187.375 84.7756 186.239 84.4036 185.063 84.2875C184.704 83.9989 184.331 83.7058 183.938 83.4413C184.273 83.2731 184.584 83.0635 184.866 82.8175C185.46 82.2672 185.93 81.5971 186.245 80.8515C186.677 81.2032 187.107 81.5549 187.526 81.9202C188.239 82.5394 189.048 83.2324 189.373 84.1477C189.483 84.44 189.522 84.7543 189.485 85.0645C189.449 85.3746 189.339 85.6716 189.164 85.9304H189.158ZM188.868 86.3182C188.741 86.4593 188.605 86.5914 188.46 86.7135C187.477 86.2746 186.624 85.5787 185.794 84.8873C186.211 84.9692 186.62 85.0848 187.018 85.233C187.691 85.491 188.318 85.8576 188.872 86.3182H188.868ZM179.271 83.9749L179.341 83.8832C179.617 83.9268 179.893 83.9659 180.171 83.9944C180.483 84.026 180.799 84.0395 181.116 84.041C181.126 84.1538 181.138 84.268 181.149 84.3822C180.729 84.4318 180.311 84.4889 179.892 84.5476C179.699 84.3537 179.489 84.1613 179.277 83.9749H179.271ZM179.313 84.6302L178.83 84.6994C178.886 84.5836 178.947 84.4679 179.015 84.3552C179.122 84.4454 179.22 84.5385 179.319 84.6242L179.313 84.6302ZM179.752 83.4608C179.919 83.3179 180.106 83.1995 180.307 83.1091C180.529 83.0145 180.765 82.9581 181.006 82.9423C181.029 83.1497 181.048 83.3556 181.069 83.563C180.63 83.5554 180.193 83.5212 179.758 83.4608H179.752ZM181.105 84.8662L181.197 84.8557C181.247 85.2931 181.307 85.729 181.385 86.1589C181.049 85.7443 180.693 85.3469 180.317 84.9684C180.588 84.9324 180.851 84.8978 181.114 84.8662H181.105ZM181.105 80.5749C181.341 80.5749 181.577 80.5749 181.814 80.5644C183.122 80.5283 184.429 80.4667 185.735 80.4306L185.857 80.5313C185.561 81.2733 185.105 81.9406 184.52 82.4853C184.205 82.7622 183.847 82.987 183.46 83.1512C182.939 82.831 182.361 82.6132 181.758 82.5094C181.642 82.4933 181.526 82.4833 181.409 82.4793C181.353 81.833 181.253 81.1972 181.117 80.5749H181.105ZM182.203 83.0971C182.423 83.1697 182.639 83.2576 182.847 83.3601C182.416 83.4749 181.973 83.5415 181.528 83.5585C181.507 83.3556 181.486 83.1527 181.463 82.9483C181.718 82.9704 181.971 83.0203 182.215 83.0971H182.203ZM183.406 83.6683C183.683 83.8395 183.952 84.0246 184.211 84.2229C183.856 84.2079 183.499 84.2019 183.146 84.2139C182.63 84.2319 182.116 84.2725 181.603 84.3266L181.571 84.026C182.204 84.002 182.829 83.8814 183.426 83.6683H183.406ZM186.081 79.9406H185.893C185.318 79.4736 184.774 78.9679 184.268 78.427C183.484 77.5702 182.764 76.4624 182.481 75.2885C184.018 75.273 185.555 75.3735 187.077 75.5891C186.965 76.4222 186.806 77.2482 186.6 78.0632C186.47 78.698 186.303 79.3248 186.101 79.9406H186.081ZM182.394 74.8165C182.322 74.2977 182.358 73.7694 182.501 73.2653C182.725 72.4912 183.253 71.7156 184.057 71.4616C184.929 71.1926 185.802 71.6555 186.352 72.3214C187.005 73.1105 187.167 74.1011 187.116 75.1186C185.558 74.9005 183.986 74.7996 182.414 74.8165H182.394ZM185.152 79.9481C183.777 80.0217 182.38 80.0984 180.985 80.0984C180.669 78.8794 180.161 77.7355 179.239 76.7781C179.073 76.6064 178.892 76.4495 178.699 76.3091C178.446 75.9557 178.159 75.6275 177.842 75.3291H178.705C179.793 75.3291 180.896 75.302 182.003 75.299C182.003 75.3171 182.003 75.3351 182.003 75.3531C182.444 77.2185 183.768 78.7216 185.171 79.9481H185.152ZM179.514 77.8603C179.95 78.5512 180.284 79.3015 180.505 80.0879C180.257 80.0879 180.009 80.0698 179.761 80.0533C179.835 79.3131 179.751 78.5656 179.514 77.8603ZM179.665 80.6756C179.675 80.626 179.678 80.5779 179.689 80.5253C180.003 80.5463 180.319 80.5583 180.633 80.5644C180.782 81.1939 180.892 81.8319 180.962 82.4748C180.598 82.4977 180.242 82.5976 179.919 82.7679C179.643 82.9251 179.394 83.125 179.18 83.3601C178.937 83.318 178.693 83.2699 178.453 83.2188C179.032 82.467 179.445 81.6006 179.663 80.6771L179.665 80.6756ZM178.657 84.0425C178.58 84.1673 178.507 84.292 178.441 84.4198C178.374 84.5476 178.335 84.6543 178.29 84.7715C177.895 84.8241 177.501 84.8737 177.105 84.9128C176.999 84.9248 176.893 84.9294 176.788 84.9384C176.848 84.8903 176.91 84.8452 176.97 84.7881C177.383 84.4371 177.767 84.053 178.117 83.6397L178.218 83.6607C178.364 83.7915 178.508 83.9193 178.656 84.044L178.657 84.0425ZM175.919 84.994C175.891 84.9663 175.869 84.933 175.854 84.8963C175.518 84.1928 175.019 83.5793 174.399 83.1061C174.066 82.8754 173.701 82.6951 173.316 82.571C173.814 82.6477 174.305 82.7454 174.783 82.8506C175.722 83.0565 176.653 83.3015 177.589 83.527C177.093 84.082 176.532 84.5751 175.917 84.9955L175.919 84.994ZM175.713 86.6474C175.526 87.5222 174.627 87.9641 173.8 88.0002C173.122 88.0068 172.455 87.8195 171.88 87.4606C171.965 87.4305 172.051 87.4019 172.137 87.3704C173.37 86.9496 174.555 86.3994 175.672 85.729C175.758 86.0307 175.772 86.3485 175.711 86.6564L175.713 86.6474ZM171.371 87.1164C170.541 86.4968 169.891 85.6665 169.49 84.7114C171.313 85.2307 173.199 85.4922 175.095 85.4885C173.952 86.1724 172.666 86.6714 171.37 87.1254L171.371 87.1164ZM174.48 88.3789C175.19 88.1986 175.833 87.7236 176.101 87.0262C176.271 86.5174 176.264 85.9662 176.083 85.4614C176.761 85.4224 177.436 85.3532 178.111 85.2675C177.783 86.3979 177.91 87.5838 178.647 88.5653C178.261 88.5331 177.873 88.527 177.486 88.5473C175.701 88.636 173.863 88.8314 172.102 88.4255C171.598 88.3077 171.111 88.1226 170.656 87.8754C170.869 87.8048 171.083 87.7326 171.295 87.659C172.232 88.3038 173.361 88.6706 174.478 88.382L174.48 88.3789ZM178.493 87.2291C178.323 86.5543 178.368 85.8431 178.623 85.1954L179.762 85.0376C180.478 85.7323 181.117 86.5018 181.669 87.3328C181.743 87.5868 181.82 87.8378 181.923 88.0843C181.471 88.4314 181.057 88.8249 180.687 89.2583C180.298 88.9695 179.85 88.7694 179.374 88.6721C178.957 88.2822 178.654 87.7867 178.496 87.2381L178.493 87.2291ZM180.737 89.9632C180.756 89.9888 180.78 90.0098 180.8 90.0384C181.239 90.6576 181.341 91.4753 181.202 92.2103C180.982 93.3557 180.223 94.1644 179.268 94.6799C179.225 93.1287 179.653 91.6008 180.495 90.2969C180.568 90.1857 180.653 90.082 180.735 89.9722L180.737 89.9632ZM181.144 89.4597C181.441 89.1236 181.768 88.8143 182.119 88.5353C182.227 88.7697 182.348 88.998 182.481 89.2192C182.516 89.2763 182.558 89.3259 182.594 89.38C182.117 89.4793 181.628 89.5092 181.143 89.4687L181.144 89.4597ZM182.475 87.7026C182.361 87.5021 182.241 87.3082 182.114 87.1209C181.957 86.5343 181.836 85.9384 181.753 85.3367C181.726 85.1578 181.702 84.9759 181.68 84.7941C182.745 84.6649 183.82 84.6453 184.889 84.7354C185.144 84.9474 185.397 85.1608 185.641 85.3668C186.27 85.9071 186.941 86.3967 187.648 86.8308C186.419 86.4924 185.115 86.5449 183.917 86.9811C183.411 87.1718 182.927 87.4167 182.474 87.7116L182.475 87.7026ZM184.42 87.3208C185.462 87.0102 186.572 87.0102 187.614 87.3208C187.14 87.6214 186.653 87.8634 186.245 88.0723C185.291 88.5541 184.291 88.9418 183.262 89.2297L183.189 89.2477C183.053 88.8609 182.89 88.4842 182.701 88.1204C183.234 87.7782 183.812 87.512 184.418 87.3298L184.42 87.3208ZM183.983 89.5093C184.962 89.1874 185.912 88.7852 186.824 88.3068C187.29 88.0676 187.742 87.8016 188.177 87.5102C188.549 87.6523 188.91 87.8226 189.256 88.0197C189.829 88.3459 190.371 88.7187 190.91 89.0974C191.084 89.51 191.227 89.9351 191.338 90.369C190.471 90.7203 189.567 90.9695 188.642 91.1116C186.791 91.3927 184.774 91.1687 183.447 89.7182C183.433 89.7032 183.423 89.6866 183.409 89.6716C183.609 89.6355 183.797 89.5844 183.982 89.5183L183.983 89.5093ZM190.889 85.8087C190.683 84.0515 190.672 82.2523 190.588 80.4652C192.266 80.5418 193.937 80.7189 195.594 80.9957C195.714 81.2441 195.822 81.4985 195.916 81.7578C195.314 83.3556 194.389 84.8181 193.093 85.8943C192.503 86.3937 191.807 86.7534 191.059 86.9465C190.991 86.5782 190.932 86.198 190.887 85.8177L190.889 85.8087ZM190.564 79.9842C190.512 78.7697 190.372 77.5605 190.146 76.3662C190.486 76.4925 190.824 76.6278 191.156 76.7841C192.8 77.5567 194.233 78.7065 195.196 80.2592C195.236 80.3254 195.271 80.3945 195.31 80.4622C193.737 80.2194 192.152 80.0628 190.562 79.9932L190.564 79.9842ZM190.585 87.0262C190.48 87.0397 190.373 87.0517 190.268 87.0562C190.038 86.7655 189.786 86.4922 189.516 86.2385C189.833 85.7875 189.992 85.2441 189.967 84.6934C189.911 83.8216 189.392 83.076 188.808 82.4613C188.077 81.7296 187.3 81.0462 186.481 80.4156C187.003 80.405 187.525 80.4005 188.048 80.4065C188.736 80.4125 189.423 80.4301 190.11 80.4591C190.212 82.6476 190.203 84.8858 190.583 87.0292L190.585 87.0262ZM187.141 79.909C186.962 79.909 186.785 79.918 186.608 79.921C186.767 79.4431 186.908 78.9575 187.014 78.4856C187.261 77.5602 187.448 76.6198 187.574 75.6703C188.265 75.7938 188.947 75.9635 189.615 76.1783C189.798 77.024 189.926 77.8805 190 78.7426C190.036 79.1469 190.063 79.5558 190.086 79.9646C189.102 79.9306 188.12 79.915 187.14 79.918L187.141 79.909ZM187.611 75.1968C187.67 74.4359 187.563 73.6713 187.298 72.9557C186.725 71.5187 185.077 70.3779 183.555 71.1595C182.238 71.8359 181.803 73.4141 181.949 74.809C180.505 74.809 179.059 74.8511 177.63 74.8285H177.283C176.383 74.1411 175.339 73.6653 174.23 73.4367C174.143 73.4186 174.054 73.4096 173.967 73.3946C174.192 72.551 174.151 71.6588 173.85 70.8393C174.093 70.4691 174.377 70.1272 174.696 69.8202C177.344 67.2995 181.591 67.3912 184.621 69.1213C186.182 70.0084 187.48 71.2944 188.38 72.8475C188.875 73.7284 189.25 74.6717 189.493 75.6522C188.874 75.4674 188.245 75.3183 187.609 75.2058L187.611 75.1968ZM175.28 74.2228C175.695 74.3764 176.094 74.5708 176.471 74.803C175.495 74.7899 174.523 74.67 173.573 74.4453C173.665 74.2499 173.746 74.0499 173.82 73.844C174.317 73.9271 174.806 74.0569 175.28 74.2318V74.2228ZM173.589 72.8986C173.564 73.0414 173.52 73.1766 173.483 73.3134C173.284 73.2909 173.084 73.2759 172.881 73.2653C172.995 72.5998 173.214 71.9565 173.529 71.3594C173.664 71.8646 173.685 72.3935 173.589 72.9076V72.8986ZM173.335 73.7854C173.271 73.9613 173.205 74.1371 173.123 74.307C173.012 74.2709 172.901 74.2348 172.792 74.1927C172.792 74.0424 172.805 73.8921 172.82 73.7418C172.993 73.7614 173.164 73.7764 173.335 73.8019V73.7854ZM172.805 76.9599L172.932 76.8968C173.58 78.1308 174.689 79.0703 175.964 79.652C176.988 80.1001 178.078 80.3783 179.191 80.4757C179.038 81.2264 178.741 81.9408 178.319 82.58C178.233 82.7123 178.138 82.834 178.047 82.9573C176.994 82.1306 175.907 81.3505 174.853 80.5523C173.677 79.6883 172.571 78.7334 171.544 77.6965C171.948 77.4269 172.369 77.1839 172.805 76.969V76.9599ZM171.965 76.8607C172.176 76.6022 172.382 76.3422 172.58 76.0746C172.627 76.2249 172.68 76.3377 172.731 76.4549C172.464 76.5902 172.209 76.7285 171.965 76.8698V76.8607ZM171.155 77.973C172.95 79.885 175.215 81.349 177.32 82.9633C176.205 82.6927 175.095 82.3966 173.965 82.1922C172.675 81.9577 171.323 81.845 170.036 82.087C169.708 82.078 169.38 82.0745 169.053 82.0765C169.192 80.6365 169.929 79.3709 170.857 78.2075C170.958 78.1369 171.054 78.0572 171.155 77.982V77.973ZM170.089 82.5605C171.168 82.583 172.251 82.6852 173.247 83.043C173.932 83.295 174.526 83.7482 174.949 84.3431C175.108 84.5523 175.25 84.7734 175.374 85.0045C173.807 85.0331 172.243 84.8757 170.713 84.5355C170.232 84.4273 169.755 84.2996 169.284 84.1568C169.177 83.82 169.102 83.4737 169.06 83.1226C169.05 83.0354 169.06 82.9513 169.048 82.8641C169.385 82.734 169.734 82.6354 170.089 82.5695V82.5605ZM170.033 88.0813C170.926 88.616 171.927 88.9475 172.962 89.0523C174.776 89.2733 176.571 88.9516 178.376 89.0087C178.622 89.0167 178.866 89.0419 179.108 89.0839C179.451 89.3878 179.854 89.6157 180.292 89.7528C180.257 89.7994 180.22 89.8445 180.186 89.8911C179.186 91.3235 178.746 93.0656 178.777 94.8002C178.777 94.8363 178.777 94.8723 178.777 94.9084C178.359 95.0827 177.923 95.2127 177.477 95.2962C175.408 95.684 173.307 95.1639 171.235 95.0843C171.002 95.0752 170.764 95.0722 170.526 95.0843C169.927 94.7677 169.358 94.3963 168.827 93.975C167.585 92.9859 166.603 91.7639 166.144 90.2278C166.096 90.0669 166.054 89.9031 166.017 89.7378C166.146 89.6641 166.272 89.5874 166.393 89.5333C167.569 88.9643 168.786 88.482 170.033 88.0904V88.0813ZM178.889 96.0823L178.853 96.0958C177.208 96.6355 175.352 96.5768 173.675 96.2191C172.962 96.0653 172.263 95.8485 171.588 95.5713L172.18 95.6239C173.25 95.7141 174.314 95.8659 175.388 95.9049C176.532 95.944 177.735 95.8283 178.814 95.4179C178.832 95.6494 178.857 95.8704 178.889 96.0913V96.0823ZM171.916 96.2131C174.153 97.0247 176.704 97.2442 178.965 96.5332C179.051 96.9903 179.164 97.442 179.302 97.886C177.742 97.9359 176.18 97.8857 174.626 97.7357C172.613 97.5426 170.628 97.1277 168.707 96.4987L168.662 96.4806C168.787 96.2628 168.962 96.0771 169.171 95.938C169.543 95.7081 169.968 95.5786 170.405 95.5622C170.893 95.8148 171.398 96.0352 171.916 96.2221V96.2131ZM179.284 95.2195C179.682 95.029 180.053 94.7874 180.388 94.5011C181.513 93.5361 182.059 91.8872 181.546 90.4622C181.479 90.2768 181.393 90.099 181.289 89.9316C181.818 89.9554 182.348 89.9125 182.866 89.8039C183.182 90.8786 183.232 92.0134 182.723 93.0385C182.059 94.3823 180.738 95.3503 179.353 95.908C179.325 95.6885 179.302 95.4585 179.287 95.2286L179.284 95.2195ZM181.559 95.1669C182.95 94.0561 183.764 92.4914 183.537 90.6862C183.525 90.59 183.504 90.4968 183.487 90.4021C184.344 91.1321 185.408 91.5757 186.529 91.6707C188.183 91.8331 189.911 91.4633 191.45 90.8455C191.542 91.2953 191.603 91.7508 191.633 92.2088C190.589 93.1897 189.894 94.4851 189.656 95.8974C189.611 96.1876 189.584 96.4803 189.576 96.7737C188.58 96.8564 187.593 96.9887 186.641 97.1255C184.659 97.4125 182.684 97.7087 180.684 97.8319C180.393 97.8484 180.099 97.8575 179.806 97.8695C179.647 97.3839 179.52 96.8883 179.427 96.3859C180.198 96.0966 180.918 95.6884 181.562 95.1759L181.559 95.1669ZM190.053 96.7271C190.053 96.6084 190.053 96.4897 190.069 96.3694C190.205 95.0605 190.763 93.8313 191.659 92.8672C191.663 94.1717 191.432 95.4663 190.979 96.6896C190.671 96.7016 190.363 96.7171 190.056 96.7362L190.053 96.7271ZM190.78 97.1781C190.608 97.5782 190.412 97.9676 190.194 98.3445C190.108 97.9733 190.058 97.5948 190.044 97.2141C190.293 97.2001 190.54 97.1891 190.783 97.1811L190.78 97.1781ZM191.567 88.9832C191.4 88.4814 191.262 87.9705 191.153 87.453C193.445 86.9059 195.203 84.5491 196.126 82.4492C196.374 83.3664 196.406 84.3285 196.22 85.26C195.794 87.2546 194.4 88.7382 192.677 89.7317C192.304 89.4957 191.935 89.2432 191.57 88.9832H191.567ZM196.764 83.2083C196.697 82.703 196.578 82.2059 196.409 81.7248C196.474 81.5474 196.544 81.3715 196.602 81.1911L196.723 81.2167C196.883 81.6806 197.098 82.1233 197.365 82.5349C198.117 83.7554 199.056 85.0346 200.418 85.5276C199.477 86.7892 198.335 87.888 197.038 88.7803C196.099 89.4266 195.083 89.9332 194.083 90.4908C193.758 90.3492 193.441 90.1886 193.135 90.0098C194.076 89.4485 194.9 88.7117 195.562 87.8393C196.547 86.5102 196.979 84.8516 196.767 83.2113L196.764 83.2083ZM200.902 85.6674C201.032 85.695 201.164 85.7155 201.296 85.729C201.681 86.3827 201.996 87.0755 202.235 87.7957C202.078 88.0937 201.893 88.3765 201.684 88.6405C200.66 89.8878 199.217 90.7202 197.624 90.9823C196.631 91.1443 195.613 91.0533 194.665 90.7178C195.611 90.1962 196.573 89.7017 197.454 89.0764C198.781 88.1347 199.946 86.9832 200.902 85.6674ZM200.475 85.0496C199.573 84.6964 198.89 83.9253 198.347 83.1497C197.97 82.6131 197.517 81.9908 197.268 81.3324C197.496 81.3835 197.719 81.4392 197.958 81.4978C199.028 82.5531 199.992 83.7111 200.836 84.9549L200.714 85.1323C200.629 85.1037 200.547 85.0752 200.469 85.0496H200.475ZM201.113 84.519C200.439 83.5324 199.685 82.6033 198.857 81.7413C199.92 82.0443 200.952 82.4469 201.94 82.9438C201.699 83.4873 201.42 84.0136 201.107 84.519H201.113ZM198.203 81.0619C197.854 80.7102 197.501 80.366 197.15 80.0248C197.332 79.4401 197.902 79.1229 198.556 79.1229C199.338 79.1334 200.071 79.4881 200.662 79.9767C201.349 80.5513 201.903 81.2696 202.283 82.081C202.235 82.2163 202.18 82.35 202.132 82.4838C200.877 81.8665 199.556 81.3901 198.196 81.0634L198.203 81.0619ZM197.301 80.8469C197.238 80.8334 197.176 80.8184 197.113 80.8064C197.104 80.7522 197.101 80.6996 197.095 80.6455L197.301 80.8469ZM192.202 89.9948C192.135 90.0293 192.068 90.0594 192 90.0925C191.952 89.9873 191.91 89.879 191.866 89.7723L192.202 89.9948ZM192.299 91.6482C192.224 91.7053 192.149 91.7669 192.081 91.827C192.059 91.5971 192.029 91.3671 191.991 91.1401C192.087 91.3085 192.19 91.4768 192.298 91.6437L192.299 91.6482ZM192.211 90.5284C192.361 90.4532 192.511 90.3781 192.662 90.2939C192.947 90.4682 193.236 90.6366 193.538 90.7869C193.266 90.9793 192.971 91.1687 192.684 91.3686L192.662 91.334C192.495 91.068 192.347 90.7974 192.209 90.5239L192.211 90.5284ZM194.105 91.0409C195.379 91.5631 196.783 91.6796 198.125 91.3746C199.652 91.0311 201.022 90.1905 202.02 88.9847C202.16 88.8067 202.292 88.6215 202.414 88.4301C202.457 88.5999 202.499 88.7713 202.535 88.9471C202.896 90.7508 202.535 92.6823 200.94 93.7705C200.305 94.1862 199.589 94.4633 198.839 94.5837C198.09 94.7042 197.323 94.6652 196.589 94.4695C195.086 94.0697 193.85 93.01 192.955 91.7639C193.326 91.4994 193.711 91.2619 194.104 91.0364L194.105 91.0409ZM202.513 87.1795C202.492 87.1224 202.472 87.0622 202.45 87.0066C202.274 86.5687 202.073 86.1412 201.848 85.726C202.223 85.6924 202.586 85.5802 202.914 85.3968C202.871 86.0079 202.736 86.609 202.513 87.1795ZM195.313 69.0071C196.925 69.2806 198.424 70.0164 199.626 71.1249C200.868 72.2419 201.808 73.6537 202.36 75.23C202.912 76.8062 203.058 78.4961 202.783 80.1435C202.708 80.5828 202.608 81.0174 202.483 81.4452C202.283 81.0886 202.051 80.7505 201.791 80.4351C200.889 79.3529 199.466 78.3894 197.989 78.6975C197.646 78.7696 197.332 78.9417 197.087 79.192C197.642 75.678 196.981 72.0799 195.214 68.992L195.313 69.0071ZM194.606 68.9364C196.112 71.4309 196.871 74.3045 196.794 77.217C196.772 77.9736 196.692 78.7274 196.553 79.4716L196.368 79.2957C195.12 78.1128 193.859 76.9374 192.717 75.6477C191.632 74.4212 190.373 72.5694 190.889 70.8378C191.359 69.2581 193.107 68.8583 194.606 68.9364ZM173.749 65.798C174.966 64.8152 176.338 64.0407 177.809 63.5057C180.749 62.4178 183.955 62.2717 186.982 63.0879C189.984 63.934 192.58 65.8346 194.292 68.4404C193.567 68.4205 192.847 68.5499 192.174 68.8207C191.431 69.1188 190.836 69.7 190.52 70.4365C190.22 71.1881 190.256 72.0148 190.472 72.7783C190.952 74.4663 192.155 75.7995 193.349 77.0306C194.346 78.0602 195.397 79.0327 196.433 80.0202C196.386 80.2292 196.334 80.4366 196.283 80.6425L195.917 80.5779C195.568 79.9099 195.136 79.2879 194.633 78.7261C193.43 77.3898 191.845 76.4714 190.167 75.8702C190.12 75.8537 190.074 75.8416 190.029 75.8251C189.853 75.0759 189.611 74.3435 189.307 73.6366C187.911 70.4215 184.83 67.9774 181.337 67.4814C178.48 67.0741 175.335 68.009 173.614 70.3373C173.362 69.8821 173.009 69.4907 172.582 69.1934C172.146 68.8882 171.622 68.734 171.09 68.7545C171.765 67.6182 172.743 66.6171 173.749 65.798ZM170.626 69.688C170.686 69.5377 170.756 69.3873 170.829 69.2461C170.917 69.2297 171.007 69.2202 171.098 69.2175C171.929 69.198 172.656 69.7301 173.099 70.4004C173.18 70.5255 173.253 70.6555 173.317 70.7897C173.172 71.0213 173.042 71.2618 172.928 71.5097C172.676 72.0684 172.498 72.6576 172.399 73.2623C172.022 73.2578 171.645 73.2729 171.269 73.3074C170.998 73.0671 170.773 72.7799 170.605 72.4597C170.155 71.5834 170.268 70.5733 170.626 69.688ZM169.122 70.5613C169.367 70.1021 169.738 69.7221 170.191 69.4655C169.865 70.2456 169.714 71.0783 169.901 71.9231C170.024 72.4676 170.288 72.9703 170.666 73.3811C170.114 73.4631 169.567 73.5811 169.03 73.7343C169.008 73.6652 168.982 73.599 168.961 73.5284C168.686 72.5604 168.63 71.4706 169.128 70.5613H169.122ZM163.964 79.8805C163.885 78.9584 164.099 78.035 164.577 77.2425C165.463 75.7229 167.093 74.8376 168.735 74.3205C168.881 74.6877 169.049 75.0452 169.241 75.3907C169.673 76.1652 170.187 76.8908 170.774 77.5552C170.693 77.6544 170.611 77.7536 170.532 77.8558C170.399 77.964 170.266 78.0737 170.138 78.1895C168.991 79.2281 168.119 80.5779 167.794 82.0975H167.405C166.644 82.0975 165.883 82.0975 165.123 82.0975C164.486 81.5221 164.077 80.7368 163.97 79.885L163.964 79.8805ZM165.708 82.571C166.374 82.571 167.041 82.571 167.708 82.571C167.686 82.7439 167.666 82.9182 167.657 83.0926C167.519 83.1953 167.386 83.3052 167.259 83.4217C166.716 83.1937 166.199 82.9101 165.714 82.5755L165.708 82.571ZM166.143 86.0717C166.384 85.2955 166.802 84.5859 167.364 83.9989L167.68 84.1252C167.765 85.1184 168.119 86.0697 168.704 86.8774C168.947 87.2012 169.23 87.4931 169.546 87.7462C169.212 87.8604 168.878 87.9776 168.55 88.0979C167.649 88.4096 166.771 88.7858 165.923 89.2237C165.757 88.1711 165.835 87.0945 166.149 86.0762L166.143 86.0717ZM165.872 95.3323C165.084 94.9445 164.197 94.4845 163.767 93.6789C162.976 92.1758 164.317 90.823 165.592 90.0023C166.155 92.2569 167.767 94.0125 169.732 95.191C169.367 95.2678 169.024 95.4277 168.731 95.6584C168.515 95.8393 168.339 96.063 168.214 96.3153C167.417 96.0335 166.638 95.7068 165.878 95.3368L165.872 95.3323ZM173.43 103.263C171.893 102.49 170.295 101.375 169.31 99.9378C168.782 99.1682 168.238 97.9041 168.484 96.9135C168.895 97.0518 169.307 97.1856 169.723 97.3028C171.64 97.8298 173.605 98.1616 175.588 98.2934C176.876 98.3808 178.168 98.4013 179.459 98.355C179.673 98.9511 179.929 99.5313 180.226 100.091C181 101.545 182.05 102.917 183.352 103.945C181.737 104.5 180.026 104.726 178.322 104.609C176.618 104.492 174.954 104.034 173.43 103.263ZM181.215 100.826C180.709 100.046 180.291 99.2118 179.967 98.34C180.531 98.3144 181.093 98.2813 181.656 98.2347C183.602 98.0724 185.523 97.7477 187.457 97.4832C188.159 97.3885 188.866 97.3028 189.574 97.2442C189.594 97.8049 189.687 98.3606 189.85 98.8976C188.387 101.071 186.309 102.757 183.881 103.742C182.825 102.939 181.922 101.953 181.215 100.831V100.826ZM191.211 105.051C189.269 105.341 187.134 105.37 185.304 104.578C184.973 104.431 184.653 104.259 184.349 104.064C184.411 104.037 184.474 104.014 184.534 103.986C186.743 102.992 188.646 101.425 190.045 99.4492C190.216 99.8692 190.433 100.269 190.693 100.64C191.654 101.996 193.083 102.948 194.705 103.311C195.264 103.431 195.838 103.462 196.406 103.404C194.769 104.218 193.017 104.775 191.211 105.056V105.051ZM198.383 101.895C197.932 102.523 197.122 102.831 196.382 102.927C194.713 103.145 192.956 102.341 191.788 101.187C191.151 100.559 190.668 99.7932 190.374 98.9487C190.735 98.3811 191.046 97.7837 191.304 97.163C191.902 97.1586 192.499 97.1887 193.093 97.2532C194.866 97.4546 196.929 98.0799 198.108 99.5079C198.669 100.193 198.931 101.14 198.383 101.91V101.895ZM205.668 86.1363C206.192 86.9534 206.537 87.8717 206.681 88.8314C206.735 89.2112 206.758 89.5947 206.752 89.9782C206.752 90.1496 206.743 90.3209 206.725 90.4923C206.711 90.6637 206.695 90.7929 206.68 90.8921C206.557 91.5753 206.359 92.2431 206.092 92.8837C204.85 96.0187 202.832 98.7868 200.227 100.928C199.811 101.274 199.373 101.596 198.929 101.905C199.671 100.512 198.528 98.9878 197.338 98.2092C195.577 97.0563 193.547 96.6911 191.483 96.6805C191.972 95.3099 192.188 93.8565 192.117 92.4027C192.26 92.2735 192.409 92.1502 192.568 92.0315C193.226 92.9777 194.084 93.7679 195.081 94.3462C196.407 95.0902 197.967 95.3004 199.442 94.934C200.826 94.5912 202.12 93.7164 202.723 92.3937C203.379 90.9568 203.214 89.3139 202.747 87.8273C203.179 86.9527 203.406 85.9916 203.412 85.0165C203.634 84.7882 203.842 84.5479 204.038 84.2965C204.671 84.8274 205.221 85.4513 205.668 86.1469V86.1363Z" fill="#DAE1F0"/>
<path d="M278.466 53.8875L283.85 53.8018C284.231 53.7958 284.6 53.9416 284.874 54.2072C285.148 54.4727 285.305 54.8362 285.311 55.2177C285.317 55.5992 285.171 55.9675 284.906 56.2415C284.64 56.5154 284.276 56.6727 283.895 56.6787L278.511 56.7629C278.137 56.7582 277.779 56.6076 277.513 56.3433C277.248 56.0789 277.096 55.7215 277.091 55.3471C277.085 54.9727 277.225 54.6107 277.482 54.3382C277.739 54.0656 278.092 53.9039 278.466 53.8875Z" fill="#11192B"/>
<path d="M258.307 54.1971L262.487 54.131C263.099 54.1204 263.609 54.7607 263.621 55.5514C263.633 56.342 263.143 56.9973 262.532 57.0064L258.352 57.0725C257.741 57.0815 257.231 56.4427 257.219 55.6521C257.207 54.8615 257.696 54.2061 258.307 54.1971Z" fill="#11192B"/>
<path d="M266.377 71.3369L266.546 70.8544C266.696 71.9456 267.335 72.9151 268.326 73.2217L270.743 73.9733C271.576 74.2303 272.322 73.7779 272.753 73.0519L272.808 73.3255C273.134 74.9668 271.856 76.4188 270.463 75.9889L268.045 75.2374C266.599 74.788 265.814 72.9542 266.377 71.3369Z" fill="#91A7D3"/>
<path d="M279.426 63.0744C279.447 64.4482 280.177 65.5515 281.08 65.5379C281.982 65.5244 282.671 64.3986 282.65 63.0248C282.629 61.6509 281.898 60.5477 280.995 60.5612C280.093 60.5747 279.399 61.7005 279.426 63.0744Z" fill="#11192B"/>
<path d="M280.994 60.5612L278.259 60.6048L279.972 62.2747L280.994 60.5612Z" fill="#11192B"/>
<path d="M260.09 63.3795C260.111 64.7533 260.85 65.8551 261.744 65.8416C262.639 65.828 263.335 64.7022 263.314 63.3284C263.293 61.9546 262.562 60.8513 261.66 60.8663C260.758 60.8814 260.069 62.0042 260.09 63.3795Z" fill="#11192B"/>
<path d="M261.66 60.8663L258.923 60.9084L260.636 62.5783L261.66 60.8663Z" fill="#11192B"/>
<path d="M279.369 79.9646C279.199 81.4873 279.054 83.0039 275.77 83.5029C275.77 83.5029 270.281 84.3807 270.749 80.7838L279.369 79.9646Z" fill="white"/>
<path d="M156.919 203.068H127.316L127.616 201.885L125.21 186.28L126.48 186.639C128.478 187.201 134.081 186.602 136.104 186.26L136.084 186.166L137.004 186.043C145.201 184.951 165.65 183.036 178.447 188.817L178.179 189.656L178.508 188.843C182.735 190.69 184.974 195.371 183.842 199.966C182.314 206.158 179.343 218.693 176.606 233.067C176.511 233.624 176.228 234.131 175.804 234.504C175.38 234.877 174.841 235.094 174.277 235.117L167.022 235.337H166.949C166.613 235.335 166.282 235.264 165.976 235.127C165.669 234.99 165.395 234.791 165.17 234.543C164.933 234.282 164.752 233.975 164.638 233.642C164.525 233.308 164.48 232.955 164.508 232.604C165.171 224.126 166.741 215.288 168.004 208.186C168.155 207.335 168.302 206.505 168.445 205.694C168.501 205.382 168.491 205.061 168.414 204.753C168.338 204.445 168.197 204.156 168.002 203.906C167.806 203.656 167.56 203.45 167.279 203.302C166.999 203.154 166.69 203.066 166.373 203.046C163.224 202.858 160.067 202.865 156.919 203.068Z" fill="#273B63"/>
<path fill-rule="evenodd" clip-rule="evenodd" d="M157.932 165.724C157.932 165.724 160.152 172.503 161.024 175.849C161.219 176.6 162.182 177.376 162.931 177.189C165.11 176.653 167.271 175.987 169.447 175.317C172.011 174.526 174.596 173.73 177.256 173.131C177.299 173.102 177.343 173.073 177.388 173.045L177.872 172.728C178.392 172.474 178.925 172.216 179.475 172.166C179.864 172.146 180.253 172.182 180.631 172.273L182.663 172.656C182.998 172.719 183.335 172.784 183.663 172.88C183.738 172.894 183.804 172.935 183.85 172.996C183.87 173.046 183.876 173.1 183.867 173.154C183.857 173.207 183.833 173.256 183.797 173.296C183.727 173.375 183.634 173.43 183.532 173.456C183.268 173.517 182.994 173.522 182.728 173.471L181.549 173.32C181.292 173.289 181.013 173.262 180.768 173.4C180.739 173.413 180.715 173.435 180.699 173.463C180.653 173.558 180.774 173.621 180.868 173.624L183.241 173.726C183.367 173.736 183.495 173.733 183.621 173.717C183.947 173.667 184.246 173.46 184.538 173.258C184.578 173.23 184.618 173.202 184.659 173.175C184.839 173.053 185.096 172.951 185.209 173.12C185.298 173.251 185.224 173.456 185.129 173.604C184.982 173.824 184.81 174.026 184.616 174.206C184.024 174.789 183.412 175.347 182.782 175.879C182.591 176.055 182.375 176.204 182.143 176.321C181.925 176.405 181.692 176.442 181.459 176.431C181.226 176.421 180.998 176.361 180.789 176.257C180.557 176.156 180.338 176.025 180.119 175.894C179.945 175.789 179.77 175.684 179.586 175.593C179.173 175.389 178.711 175.259 178.247 175.392C178.024 175.456 177.761 175.519 177.504 175.508C176.782 175.86 176.048 176.219 175.306 176.582C170.634 178.868 165.623 181.319 161.101 183.107C158.786 184.388 156.801 182.025 156.589 181.643C155.308 179.325 153.111 173.531 151.646 168.163L157.932 165.724Z" fill="white"/>
<path fill-rule="evenodd" clip-rule="evenodd" d="M177.256 173.131C174.596 173.73 172.011 174.526 169.447 175.317C167.271 175.987 165.11 176.653 162.931 177.189C162.182 177.376 161.219 176.6 161.024 175.849C160.246 172.866 158.398 167.156 158.006 165.951C157.958 165.804 157.932 165.724 157.932 165.724L151.646 168.163C153.111 173.531 155.308 179.325 156.589 181.643C156.801 182.025 158.786 184.388 161.101 183.107C165.623 181.319 170.634 178.868 175.306 176.582C176.048 176.219 176.782 175.86 177.504 175.508C177.761 175.519 178.024 175.456 178.247 175.392C178.711 175.259 179.173 175.389 179.586 175.593C179.77 175.684 179.945 175.789 180.119 175.894C180.338 176.025 180.557 176.156 180.789 176.257C180.998 176.361 181.226 176.421 181.459 176.431C181.692 176.442 181.925 176.405 182.143 176.321C182.375 176.204 182.591 176.055 182.782 175.879C183.412 175.347 184.024 174.789 184.616 174.206C184.81 174.026 184.982 173.824 185.129 173.604C185.224 173.456 185.298 173.251 185.209 173.12C185.096 172.951 184.839 173.053 184.659 173.175C184.618 173.202 184.578 173.23 184.538 173.258C184.246 173.46 183.947 173.667 183.621 173.717C183.525 173.729 183.428 173.734 183.331 173.731C183.301 173.73 183.271 173.729 183.241 173.726L180.868 173.624C180.774 173.621 180.653 173.558 180.699 173.463C180.715 173.435 180.739 173.413 180.768 173.4C181.013 173.262 181.292 173.289 181.549 173.32L182.728 173.471C182.9 173.504 183.076 173.514 183.25 173.499C183.253 173.499 183.255 173.499 183.258 173.499C183.279 173.497 183.3 173.495 183.322 173.492C183.392 173.484 183.463 173.472 183.532 173.456C183.634 173.43 183.727 173.375 183.797 173.296C183.833 173.256 183.857 173.207 183.867 173.154C183.876 173.1 183.87 173.046 183.85 172.996C183.804 172.935 183.738 172.894 183.663 172.88C183.335 172.784 182.998 172.719 182.663 172.656L180.631 172.273C180.253 172.182 179.864 172.146 179.475 172.166C178.925 172.216 178.392 172.474 177.872 172.728L177.388 173.045C177.343 173.073 177.299 173.102 177.256 173.131ZM177.99 172.936L177.516 173.246L177.514 173.247C177.472 173.274 177.43 173.301 177.391 173.328L177.353 173.354L177.308 173.364C174.659 173.96 172.083 174.753 169.517 175.544L169.514 175.545C167.34 176.215 165.174 176.883 162.988 177.42C162.517 177.538 162.016 177.349 161.628 177.062C161.237 176.774 160.908 176.35 160.793 175.909C160.359 174.242 159.588 171.716 158.924 169.603C158.592 168.547 158.287 167.596 158.066 166.908C157.955 166.565 157.865 166.287 157.803 166.095C157.796 166.075 157.79 166.055 157.784 166.037L151.933 168.307C153.395 173.608 155.546 179.263 156.798 181.528C156.836 181.596 156.983 181.798 157.228 182.046C157.469 182.29 157.793 182.567 158.178 182.793C158.943 183.244 159.925 183.485 160.985 182.899L160.999 182.891L161.013 182.886C165.525 181.102 170.527 178.655 175.201 176.368L175.202 176.368C175.944 176.005 176.678 175.646 177.399 175.294L177.454 175.268L177.514 175.271C177.73 175.28 177.961 175.226 178.18 175.163L178.181 175.163C178.729 175.007 179.256 175.164 179.692 175.38C179.884 175.475 180.066 175.584 180.238 175.687L180.242 175.689C180.464 175.822 180.669 175.945 180.885 176.039L180.89 176.042L180.896 176.044C181.075 176.133 181.271 176.184 181.471 176.194C181.667 176.203 181.863 176.172 182.046 176.102C182.255 175.997 182.448 175.862 182.62 175.704L182.624 175.7L182.628 175.697C183.254 175.169 183.861 174.615 184.449 174.036L184.452 174.034L184.454 174.031C184.634 173.865 184.793 173.678 184.929 173.474C184.966 173.416 184.994 173.354 185.005 173.304C185.008 173.29 185.01 173.279 185.01 173.271C185.008 173.271 185.007 173.272 185.004 173.272C184.948 173.283 184.87 173.32 184.792 173.372C184.753 173.398 184.714 173.425 184.674 173.453L184.653 173.468C184.376 173.66 184.039 173.894 183.657 173.953L183.654 173.953L183.65 173.953C183.51 173.971 183.368 173.975 183.226 173.964L180.86 173.862C180.859 173.862 180.859 173.862 180.858 173.862C180.771 173.859 180.668 173.83 180.585 173.766C180.542 173.733 180.492 173.68 180.466 173.602C180.439 173.518 180.449 173.432 180.485 173.358L180.488 173.352L180.492 173.346C180.53 173.278 180.589 173.223 180.659 173.188C180.979 173.011 181.331 173.054 181.578 173.084L181.579 173.084L182.765 173.235L182.773 173.237C183.006 173.282 183.245 173.277 183.476 173.224C183.531 173.21 183.581 173.18 183.62 173.137L183.62 173.136C183.625 173.131 183.629 173.124 183.631 173.117C183.627 173.116 183.624 173.115 183.62 173.114L183.608 173.112L183.596 173.108C183.281 173.016 182.955 172.953 182.619 172.89L180.582 172.506L180.576 172.504C180.221 172.419 179.856 172.386 179.492 172.404C178.999 172.449 178.512 172.681 177.99 172.936Z" fill="#273B63"/>
<path d="M151.612 145.811C153.589 148.175 153.377 146.809 154.454 149.696C156.507 155.2 160.355 161.978 160.185 164.868C160.065 166.916 155.607 169.511 153.048 169.767C152.742 169.796 152.434 169.726 152.17 169.568C151.906 169.41 151.699 169.171 151.58 168.888C151.28 168.171 150.829 167.135 150.562 166.525C150.447 166.263 150.331 165.996 150.214 165.745C148.501 162.067 146.905 158.316 145.074 154.697C143.624 151.841 145.126 148.182 147.287 145.755C147.559 145.448 147.895 145.203 148.27 145.037C148.645 144.871 149.052 144.788 149.462 144.793C149.873 144.799 150.277 144.892 150.648 145.068C151.019 145.243 151.348 145.497 151.612 145.811Z" fill="#7BE1C9"/>
<path d="M128.376 147.395C128.376 147.395 135.835 135.301 151.478 145.429C152.217 145.958 152.868 146.6 153.407 147.33C154.203 148.428 153.379 149.809 153.547 151.36C153.747 153.21 153.174 159.364 152.832 161.223C151.77 166.985 152.332 171.52 152.338 176.72C152.314 179.466 153.579 185.56 153.756 188.444C153.629 189.385 153.036 191.751 152.441 192.331C151.989 192.769 147.621 195.695 142.065 196.197C136.774 196.675 136.177 193.041 126.426 193.456C125.826 193.475 125.242 193.264 124.793 192.867C124.344 192.469 124.064 191.915 124.01 191.318C122.842 179.578 125.213 172.53 126.677 155.198C126.562 154.351 126.58 150.03 128.376 147.395Z" fill="#7BE1C9"/>
<path d="M122.027 146.011C123.137 145.014 124.642 144.231 125.009 142.783C125.271 141.754 124.859 140.679 124.804 139.613C124.726 138.11 125.382 136.636 126.401 135.536C127.421 134.435 128.777 133.688 130.198 133.197C130.776 132.998 131.376 132.832 131.877 132.486C132.404 132.121 132.779 131.584 133.18 131.082C134.401 129.543 138.134 127.659 138.871 130.781C139.46 133.285 136.495 134.498 135.764 136.46C135.389 137.463 135.656 138.615 136.192 139.547C136.729 140.479 137.516 141.244 138.265 142.021C140.116 143.944 141.874 146.196 142.144 148.836C142.362 150.98 141.568 153.075 140.764 155.067C140.012 156.917 139.171 158.265 137.505 159.37C136.241 160.209 134.656 161.048 133.132 161.112C129.898 161.251 126.531 160.661 123.845 158.838C121.159 157.015 119.292 153.812 119.654 150.61C119.862 148.841 120.705 147.206 122.027 146.011Z" fill="#91A7D3"/>
<path d="M124.774 203.403C124.662 203.403 124.553 203.363 124.467 203.29C124.382 203.217 124.325 203.116 124.307 203.005L120.817 181.335C120.797 181.211 120.827 181.084 120.901 180.982C120.974 180.88 121.086 180.811 121.21 180.792C121.334 180.772 121.461 180.802 121.563 180.875C121.665 180.949 121.733 181.06 121.753 181.185L125.244 202.855C125.263 202.979 125.233 203.106 125.159 203.207C125.085 203.309 124.974 203.377 124.85 203.397C124.825 203.402 124.8 203.404 124.774 203.403Z" fill="#324B7F"/>
<path d="M148.938 203.16C148.826 203.159 148.717 203.119 148.631 203.046C148.545 202.972 148.489 202.871 148.471 202.76L144.981 181.09C144.961 180.966 144.991 180.839 145.065 180.737C145.138 180.635 145.25 180.566 145.374 180.546C145.498 180.527 145.625 180.557 145.727 180.63C145.829 180.704 145.898 180.815 145.917 180.94L149.408 202.617C149.427 202.741 149.397 202.868 149.323 202.97C149.249 203.071 149.138 203.14 149.014 203.16C148.989 203.162 148.964 203.162 148.938 203.16Z" fill="#324B7F"/>
<path d="M153.069 170.098C152.742 170.094 152.422 169.993 152.152 169.809C151.881 169.625 151.67 169.365 151.546 169.062C151.245 168.345 150.794 167.314 150.529 166.705L150.463 166.555C150.37 166.343 150.278 166.132 150.184 165.932C149.603 164.685 149.036 163.428 148.468 162.175C147.38 159.77 146.257 157.281 145.048 154.894C145.024 154.838 145.023 154.776 145.043 154.719C145.064 154.663 145.105 154.616 145.159 154.589C145.213 154.561 145.275 154.556 145.333 154.572C145.39 154.589 145.44 154.627 145.471 154.679C146.684 157.084 147.811 159.568 148.901 161.979C149.468 163.234 150.033 164.488 150.614 165.737C150.708 165.938 150.803 166.153 150.898 166.368L150.964 166.519C151.233 167.129 151.675 168.163 151.982 168.882C152.078 169.114 152.244 169.311 152.458 169.444C152.672 169.578 152.922 169.64 153.173 169.624C155.765 169.387 160.024 166.789 160.134 164.943C160.137 164.881 160.166 164.822 160.213 164.781C160.259 164.739 160.321 164.717 160.384 164.721C160.446 164.725 160.505 164.753 160.546 164.8C160.588 164.846 160.61 164.908 160.606 164.97C160.474 167.236 155.833 169.857 153.215 170.096C153.167 170.096 153.119 170.098 153.069 170.098Z" fill="#509283"/>
<path d="M121.284 185.238H146.382C146.944 185.238 147.5 185.119 148.013 184.889C148.527 184.659 148.985 184.323 149.359 183.903C149.733 183.484 150.014 182.99 150.184 182.454C150.353 181.918 150.408 181.352 150.343 180.794L147.457 155.976C147.156 153.334 144.917 151.166 142.495 151.166H118.593C116.17 151.166 114.439 153.329 114.746 155.976L117.785 182.13C117.886 182.986 118.299 183.776 118.944 184.349C119.588 184.922 120.421 185.238 121.284 185.238Z" fill="#324B7F"/>
<path d="M120.183 185.238H144.612C145.131 185.239 145.645 185.131 146.119 184.919C146.593 184.707 147.017 184.398 147.363 184.01C147.708 183.623 147.968 183.167 148.124 182.672C148.281 182.177 148.331 181.655 148.271 181.139L145.338 155.976C145.038 153.334 142.797 151.166 140.376 151.166H116.474C114.051 151.166 112.319 153.329 112.627 155.976L115.549 181.112C115.68 182.249 116.225 183.297 117.079 184.058C117.934 184.819 119.039 185.239 120.183 185.238Z" fill="#DAE1F0"/>
</svg>
