<svg width="191" height="32" viewBox="0 0 191 32" fill="none" xmlns="http://www.w3.org/2000/svg">
<g clip-path="url(#clip0_1204_423)">
<path d="M81.2954 16.023C81.2954 10.881 85.1406 6.93262 90.2978 6.93262C93.6454 6.93262 96.5406 8.67724 97.8978 11.386L94.7311 13.2683C93.9621 11.6615 92.3335 10.6055 90.2525 10.6055C87.2668 10.6055 84.9597 12.9011 84.9597 16.023C84.9597 19.145 87.2216 21.4405 90.2525 21.4405C92.2883 21.4405 93.9621 20.3846 94.7763 18.7777L97.943 20.6141C96.4954 23.3229 93.6002 25.1134 90.2978 25.1134C85.1406 25.1134 81.2954 21.1191 81.2954 16.023Z" fill="white"/>
<path d="M98.1692 16.023C98.1692 10.881 102.195 6.93262 107.172 6.93262C112.193 6.93262 116.174 10.881 116.174 16.023C116.174 21.1191 112.193 25.1134 107.172 25.1134C102.195 25.1134 98.1692 21.1191 98.1692 16.023ZM112.464 16.023C112.464 12.8551 110.157 10.5596 107.172 10.5596C104.186 10.5596 101.879 12.8551 101.879 16.023C101.879 19.1909 104.186 21.4864 107.172 21.4864C110.157 21.4864 112.464 19.145 112.464 16.023Z" fill="white"/>
<path d="M133.591 14.0488V24.6543H129.881V14.4161C129.881 11.7992 128.388 10.4219 126.081 10.4219C123.684 10.4219 121.738 11.891 121.738 15.3803V24.6543H118.074V7.34583C121.014 7.34583 121.738 8.21814 121.738 9.54956C122.869 7.75903 124.724 6.88672 127.031 6.88672C130.831 6.93263 133.591 9.54956 133.591 14.0488Z" fill="white"/>
<path d="M141.1 10.9728V19.2827C141.1 21.4864 142.548 21.4405 145.307 21.3028V24.6543C139.653 25.3429 137.391 23.7361 137.391 19.2827V10.9728H134.631V7.34581H137.391V6.38167C137.391 4.04021 138.25 3.44337 139.969 2.84652L141.055 2.52515V7.34581H145.262V10.9269H141.1V10.9728Z" fill="white"/>
<path d="M146.438 2.38737C146.438 1.05595 147.479 0 148.791 0C150.103 0 151.143 1.05595 151.143 2.38737C151.143 3.67288 150.103 4.77475 148.791 4.77475C147.524 4.77475 146.438 3.67288 146.438 2.38737ZM146.981 7.34577H150.645V24.6083H146.981V7.34577Z" fill="white"/>
<path d="M169.51 7.34584C168.424 7.34584 167.791 7.62131 167.429 8.03451C167.067 8.49362 166.976 9.13637 166.976 9.87095C165.664 7.9886 163.674 6.84082 161.05 6.84082C156.255 6.84082 152.455 10.8351 152.455 15.7476C152.455 20.706 156.255 24.6543 161.05 24.6543C163.674 24.6543 165.664 23.5065 166.976 21.6242V23.8738C166.976 26.9039 165.076 28.6486 161.91 28.6486C158.924 28.6486 157.702 27.4549 156.933 25.9857L154.264 28.6945C155.802 30.8982 158.472 32.046 161.819 32.046C166.298 32.046 170.595 29.475 170.595 23.8738V7.34584H169.51ZM161.593 21.2569C158.472 21.2569 156.164 18.9613 156.164 15.8394C156.164 12.7174 158.472 10.4219 161.593 10.4219C164.714 10.4219 167.022 12.7174 167.022 15.8394C167.022 18.9613 164.669 21.2569 161.593 21.2569Z" fill="white"/>
<path d="M172.495 16.023C172.495 10.881 176.522 6.93262 181.498 6.93262C186.519 6.93262 190.5 10.881 190.5 16.023C190.5 21.1191 186.519 25.1134 181.498 25.1134C176.522 25.1134 172.495 21.1191 172.495 16.023ZM186.836 16.023C186.836 12.8551 184.529 10.5596 181.543 10.5596C178.557 10.5596 176.25 12.8551 176.25 16.023C176.25 19.1909 178.557 21.4864 181.543 21.4864C184.483 21.4864 186.836 19.145 186.836 16.023Z" fill="white"/>
<path d="M78.8072 14.3701V25.0674H75.1429V14.5996C75.1429 12.1664 73.831 10.8349 71.8405 10.8349C69.6691 10.8349 68.131 12.2582 68.131 15.3801V25.0674H64.4667V14.5996C64.4667 12.1664 63.2905 10.8349 61.2548 10.8349C59.1739 10.8349 57.4548 12.2582 57.4548 15.3801V25.0674H53.7905V7.80481C56.3239 7.80481 57.4548 8.35575 57.4548 9.87081C58.5405 8.1721 60.2143 7.3457 62.3405 7.3457C64.5572 7.3457 66.1858 8.35575 67.181 10.0545C68.312 8.26392 70.1215 7.3457 72.3834 7.3457C76.2286 7.3457 78.8072 10.0545 78.8072 14.3701Z" fill="white"/>
<path d="M47.9097 22.4505C47.9097 23.4147 47.6835 24.1492 47.2763 24.6543C46.7335 25.3429 45.8739 25.5266 45.4216 25.5266C45.4216 25.5266 45.3763 25.5266 45.3311 25.5266H45.2858H45.2406C44.0644 25.5266 43.2954 24.5165 43.2501 24.4247L43.2049 24.3788C40.0382 20.5223 32.1668 12.6715 28.4573 8.99859C28.5025 8.95268 28.5478 8.95268 28.593 8.90677C28.7739 8.76904 28.9097 8.6313 29.0906 8.49357C29.2263 8.40175 29.3168 8.30993 29.4525 8.17219C29.5882 8.08037 29.6787 7.98855 29.7692 7.89673C29.8597 7.85082 29.9049 7.75899 29.9954 7.71308C31.3525 6.56531 32.6644 5.46344 33.5692 4.72886C33.6597 4.63704 33.7954 4.54522 33.8858 4.4534C33.9763 4.36158 34.112 4.26975 34.2025 4.17793C34.5192 3.90247 34.7001 3.76473 34.7001 3.76473C34.7001 3.76473 36.5549 2.11193 38.9073 3.44336C39.2239 3.627 39.5406 3.94838 39.9025 4.40749C39.9477 4.4534 39.993 4.49931 40.0382 4.59113L40.0835 4.63704C40.1739 4.72886 40.2644 4.8666 40.3549 5.00433C40.4454 5.14206 40.5358 5.2798 40.6263 5.41753C40.6716 5.50935 40.7168 5.55526 40.762 5.64709C40.8073 5.693 40.8525 5.73891 40.8525 5.83073C40.8977 5.92255 40.9882 6.06029 41.0335 6.15211C41.0787 6.24393 41.1239 6.33575 41.1692 6.42757C41.2144 6.47348 41.2144 6.5194 41.2597 6.56531C41.3501 6.70304 41.3954 6.84077 41.4858 6.97851C41.4858 7.02442 41.5311 7.02442 41.5311 7.07033C41.7573 7.48353 42.0287 7.94264 42.3001 8.44766C42.3454 8.53948 42.4358 8.67722 42.4811 8.76904C42.5263 8.86086 42.5716 8.99859 42.662 9.09041C42.7525 9.27406 42.843 9.4577 42.9335 9.64135C42.9335 9.68726 42.9787 9.73317 42.9787 9.77908C43.0692 9.91681 43.1144 10.1005 43.2049 10.2841C43.4763 10.7891 43.7025 11.3401 43.9287 11.891C44.0192 12.1205 44.1549 12.3501 44.2454 12.6256C44.6073 13.4061 44.9239 14.2325 45.2406 15.0129C45.4216 15.4261 45.6025 15.8853 45.7382 16.2984C45.8287 16.528 45.9192 16.7116 45.9644 16.9412C46.1454 17.4003 46.3263 17.8594 46.462 18.3185C46.5525 18.5481 46.5977 18.7317 46.6882 18.9613C46.7787 19.1908 46.8239 19.3745 46.9144 19.604C47.0049 19.7877 47.0501 20.0172 47.0954 20.2009C47.1406 20.3845 47.2311 20.6141 47.2763 20.7977C47.3216 20.9355 47.3668 21.0732 47.412 21.2109C47.5477 21.5782 47.6382 21.9914 47.7287 22.3128C47.8192 22.1751 47.8644 22.2669 47.9097 22.4505Z" fill="white"/>
<path d="M47.0501 26.3998C46.6429 26.9967 46.3262 27.2721 46.3262 27.2721C46.3262 27.2721 44.9239 28.879 42.481 28.879C42.481 28.879 40.8524 28.9249 39.5858 28.0526C39.1334 27.7312 37.7762 26.8589 35.8762 25.8489C34.8358 25.298 33.5691 24.6552 32.2572 24.1043C32.212 24.1043 32.212 24.0584 32.1667 24.0584C30.8096 23.4615 29.4072 22.9106 27.9596 22.4974C27.9596 22.4974 27.9143 22.4974 27.8691 22.4515C26.0143 21.9005 24.1143 21.5332 22.3953 21.5332C15.4286 21.5332 3.21434 28.6035 3.21434 28.6035C3.21434 28.6035 2.85243 28.8331 2.30957 28.8331C1.76672 28.8331 0.771478 28.5576 0.50005 27.318C0.364335 26.7671 1.08815 24.8848 2.98815 21.7628C2.98815 21.7628 2.98815 21.7169 3.03338 21.7169C4.02862 20.0641 5.34053 18.0899 7.01434 15.7485C9.32148 12.4888 12.3072 8.63224 16.1524 4.08705C16.1524 4.08705 17.1024 2.93927 18.7762 2.93927C18.7762 2.93927 20.1334 2.84745 21.4001 3.9034C21.8524 4.27069 23.7524 6.10713 26.4667 8.72406C31.4881 13.6365 39.2691 21.4873 42.2548 25.2061C42.2548 25.2061 43.3858 26.813 45.2405 26.813H45.331C45.3762 26.813 45.4667 26.813 45.512 26.813C45.7834 26.7671 46.4167 26.7212 47.0501 26.3998Z" fill="white"/>
<path opacity="0.2" d="M47.9097 22.4505C47.9097 23.4147 47.6835 24.1492 47.2763 24.6543C46.7335 25.3429 45.8739 25.5266 45.4216 25.5266C45.4216 25.5266 45.3763 25.5266 45.3311 25.5266H45.2858H45.2406C44.0644 25.5266 43.2954 24.5165 43.2501 24.4247L43.2049 24.3788C40.0382 20.5223 32.1668 12.6715 28.4573 8.99859C28.5025 8.95268 28.5478 8.95268 28.593 8.90677C28.7739 8.76904 28.9097 8.6313 29.0906 8.49357C29.2263 8.40175 29.3168 8.30993 29.4525 8.17219C29.5882 8.08037 29.6787 7.98855 29.7692 7.89673C32.212 8.95268 37.2787 11.386 46.1001 16.8035C46.2811 17.2626 46.462 17.7217 46.5977 18.1808C46.6882 18.4104 46.7335 18.594 46.8239 18.8236C46.9144 19.0531 46.9597 19.2368 47.0501 19.4663C47.1406 19.65 47.1858 19.8795 47.2311 20.0632C47.2763 20.2468 47.3668 20.4764 47.412 20.66C47.4573 20.7977 47.5025 20.9355 47.5477 21.0732C47.6835 21.4405 47.7739 21.8537 47.8644 22.1751C47.8192 22.1751 47.8644 22.2669 47.9097 22.4505Z" fill="white"/>
<path opacity="0.2" d="M27.8691 22.4045C26.0143 21.8536 24.1143 21.4863 22.3953 21.4863C15.4286 21.5322 3.21434 28.6025 3.21434 28.6025C3.21434 28.6025 2.85243 28.8321 2.30957 28.8321C1.76672 28.8321 0.771478 28.5566 0.50005 27.317C0.364335 26.7661 1.08815 24.8837 2.98815 21.7618C2.98815 21.7618 2.98815 21.7159 3.03338 21.7159C13.6191 18.043 26.7381 22.0373 27.8691 22.4045Z" fill="white"/>
</g>
<defs>
<clipPath id="clip0_1204_423">
<rect width="190" height="32" fill="white" transform="translate(0.5)"/>
</clipPath>
</defs>
</svg>
